<?xml version="1.0" encoding="UTF-8" standalone="no"?>
<svg width="240px" height="233px" viewBox="0 0 240 233" version="1.1" xmlns="http://www.w3.org/2000/svg" xmlns:xlink="http://www.w3.org/1999/xlink" xmlns:sketch="http://www.bohemiancoding.com/sketch/ns">
    <!-- Generator: Sketch 3.0.3 (7892) - http://www.bohemiancoding.com/sketch -->
    <title>adv_cheap_plans</title>
    <desc>Created with Sketch.</desc>
    <defs></defs>
    <g id="Page-1" stroke="none" stroke-width="1" fill="none" fill-rule="evenodd" sketch:type="MSPage">
        <g id="Group" sketch:type="MSLayerGroup" transform="translate(-5.000000, -3017.000000)" fill="#2D2E2B">
            <g id="Item-8" transform="translate(5.000000, 3017.000000)" sketch:type="MSShapeGroup">
                <g id="adv_cheap_plans" transform="translate(-60.000000, -60.000000)">
                    <path d="M195,187.774194 C186.72,187.774194 180,194.508645 180,202.806452 C180,211.104258 186.72,217.83871 195,217.83871 C203.28,217.83871 210,211.104258 210,202.806452 C210,194.508645 203.28,187.774194 195,187.774194" id="Fill-1"></path>
                    <path d="M277.515,150.193548 L277.5,150.193548 L277.5,82.5483871 C277.5,70.0941613 267.4275,60 255,60 L101.25,60 C78.5025,60 60,78.5498065 60,101.33871 L60,251.66129 C60,274.450194 78.5025,293 101.25,293 L236.25,293 C258.9975,293 277.5,274.450194 277.5,251.66129 L277.5,240.387097 L277.515,240.387097 C307.5,217.831194 307.5,172.749452 277.515,150.193548 L277.515,150.193548 Z M101.25,75.0322581 L255,75.0322581 C259.1325,75.0322581 262.5,78.3994839 262.5,82.5483871 L262.5,129.028129 C260.1375,128.186323 257.6475,127.645161 255,127.645161 L255,90.0645161 C255,85.9080968 251.64,82.5483871 247.5,82.5483871 L90,82.5483871 C85.8525,82.5483871 82.5,85.9080968 82.5,90.0645161 L82.5,119.700613 C77.8725,114.965452 75,108.494065 75,101.33871 C75,86.8100323 86.7525,75.0322581 101.25,75.0322581 L101.25,75.0322581 Z M90,90.0645161 L247.5,90.0645161 L247.5,97.5806452 L90,97.5806452 L90,90.0645161 Z M90,105.096774 L247.5,105.096774 L247.5,112.612903 L90,112.612903 L90,105.096774 Z M247.5,120.129032 L247.5,127.645161 L101.25,127.645161 C97.2,127.645161 93.42,126.653032 90,125.014516 L90,120.129032 L247.5,120.129032 L247.5,120.129032 Z M262.5,251.66129 C262.5,266.189968 250.7475,277.967742 236.25,277.967742 L101.25,277.967742 C86.7525,277.967742 75,266.189968 75,251.66129 L75,133.199581 C82.14,139.114774 91.2825,142.677419 101.25,142.677419 L255,142.677419 C259.1325,142.677419 262.5,146.044645 262.5,150.193548 L262.5,165.225806 L195,165.225806 C174.2925,165.225806 157.5,182.046903 157.5,202.806452 C157.5,223.566 174.2925,240.387097 195,240.387097 L262.5,240.387097 L262.5,251.66129 L262.5,251.66129 Z M272.0775,225.354839 L195,225.354839 C182.595,225.354839 172.5,215.238129 172.5,202.806452 C172.5,190.374774 182.595,180.258065 195,180.258065 L262.5,180.258065 C267.135,180.197935 271.725,177.950613 274.515,174.215097 C275.3025,173.170355 275.9025,171.982806 276.39,170.750161 C276.4575,170.584806 276.5775,170.457032 276.6375,170.291677 C282.03,177.371871 285,186.060516 285,195.290323 C285,206.850129 280.3425,217.575645 272.0775,225.354839 L272.0775,225.354839 Z" id="Fill-2"></path>
                </g>
            </g>
        </g>
    </g>
</svg>