<?xml version="1.0" encoding="UTF-8" standalone="no"?>
<svg width="269px" height="269px" viewBox="0 0 269 269" version="1.1" xmlns="http://www.w3.org/2000/svg" xmlns:xlink="http://www.w3.org/1999/xlink" xmlns:sketch="http://www.bohemiancoding.com/sketch/ns">
    <!-- Generator: Sketch 3.0.3 (7891) - http://www.bohemiancoding.com/sketch -->
    <title>adv_oneprice</title>
    <desc>Created with Sketch.</desc>
    <defs></defs>
    <g id="Page-1" stroke="none" stroke-width="1" fill="none" fill-rule="evenodd" sketch:type="MSPage">
        <path d="M268.931798,134.188713 C269.222535,131.240582 268.608454,128.852188 267.426485,126.982774 C264.475636,117.334097 257.900081,110.288471 249.849101,103.185784 C245.577707,99.4170666 239.662424,95.4472787 237.822899,89.8118645 C235.494283,82.6684201 237.915283,72.7860666 238.119071,65.4007938 C238.47502,52.5241171 234.122111,40.1256625 222.193727,33.9848544 C208.463858,26.920208 193.095535,33.4441373 178.77604,30.7595716 C168.325798,28.8004908 160.204172,11.049208 151.234788,5.25619787 C139.292818,-2.45241829 126.087363,-1.58835768 115.00402,7.23158171 C106.450363,14.0353797 98.5732827,30.1509251 87.0062827,31.1752989 C71.9803231,32.5175817 58.2259998,28.0016423 44.0423635,35.2972484 C32.0134443,41.4842484 30.442919,57.1242888 30.7662625,68.9439858 C30.9591817,75.8374504 32.2525554,82.9591575 30.9673332,89.8091474 C29.7989493,96.0341878 20.7942423,101.552764 16.3897069,105.435602 C7.15404024,113.581683 -1.15778804,123.93139 0.132868521,136.946642 C1.57296953,151.412865 13.9795756,160.662117 23.9896362,169.666824 C35.1409089,179.701339 30.4972625,192.819844 30.7282221,206.405703 C30.9727675,221.037673 38.5020503,232.118299 52.4492928,236.563592 C64.8694847,240.519794 80.8219998,232.688905 92.2585756,238.495501 C104.290212,244.598269 109.76803,259.817147 122.603949,265.941652 C142.746343,275.555006 157.739697,258.083592 169.877303,244.590117 C183.36806,229.596764 207.243848,242.076733 224.745151,233.074743 C245.104919,222.602764 234.613919,195.66744 237.820182,178.562844 C239.273869,170.810753 251.933172,163.550471 257.250677,158.352521 C262.527424,153.195329 265.972798,147.426774 267.741677,140.747966 C268.692687,138.979087 269.192646,136.82437 268.931798,134.188713 L268.931798,134.188713 Z M226.005893,163.727319 C216.644245,177.476314 219.421909,193.626492 219.854715,209.290505 C220.106691,218.343854 217.996022,219.710453 209.28951,219.85571 C201.504935,219.986144 193.750004,218.915987 185.947641,219.073102 C169.483234,219.402153 158.876528,228.992062 148.58405,240.716356 C145.287611,244.481174 139.747104,252.920887 134.24217,253.469305 C129.448698,253.943613 122.577165,243.757855 119.897326,240.716356 C109.026786,228.393249 99.3271926,220.567171 82.5337346,219.073102 C74.846985,218.38832 66.8875084,219.639307 59.1918656,219.85571 C50.1385168,220.104721 48.7748821,217.994052 48.6296253,209.28754 C48.3598628,193.359694 52.0891073,177.840938 42.478447,163.727319 C36.6177821,155.130491 16.0476489,144.612717 15.0160296,134.243165 C14.5417218,129.452657 24.7274803,122.578159 27.7689786,119.901285 C33.9527656,114.443781 39.5703477,109.024816 44.2333856,102.182927 C52.4685535,90.0940085 49.0061071,72.7550966 48.6325898,59.1958244 C48.3835782,50.1424757 50.4912832,48.7758765 59.1977944,48.6306198 C68.2214989,48.4764698 77.0851246,49.899393 86.1236512,49.0930698 C100.963554,47.7739015 110.532713,38.4448613 119.903255,27.769973 C123.202658,24.0051554 128.743165,15.5654423 134.245135,15.017024 C139.702638,14.4745345 147.961521,27.0525826 151.035628,30.5565309 C160.939766,41.839126 170.870585,48.0703438 185.95357,49.4102631 C193.64032,50.0950449 201.599796,48.8440583 209.292475,48.6306198 C220.397205,48.3223198 220.023687,53.2195471 219.75096,63.0643968 C219.344834,77.6730749 217.308276,91.9793817 226.005893,104.756046 C231.866558,113.355838 252.436692,123.870648 253.471275,134.2402 C252.436692,144.612717 231.866558,155.127527 226.005893,163.727319 L226.005893,163.727319 Z M190.5,164 C195.19442,164 199,160.19442 199,155.5 C199,150.80558 195.19442,147 190.5,147 L79.5,147 C74.8055796,147 71,150.80558 71,155.5 C71,160.19442 74.8055796,164 79.5,164 L190.5,164 Z M190.5,121 C195.19442,121 199,117.19442 199,112.5 C199,107.80558 195.19442,104 190.5,104 L79.5,104 C74.8055796,104 71,107.80558 71,112.5 C71,117.19442 74.8055796,121 79.5,121 L190.5,121 Z" id="adv_oneprice" fill="#000000" sketch:type="MSShapeGroup"></path>
    </g>
</svg>