<?xml version="1.0" encoding="UTF-8" standalone="no"?>
<svg width="240px" height="233px" viewBox="0 0 240 233" version="1.1" xmlns="http://www.w3.org/2000/svg" xmlns:xlink="http://www.w3.org/1999/xlink" xmlns:sketch="http://www.bohemiancoding.com/sketch/ns">
    <!-- Generator: Sketch 3.0.3 (7891) - http://www.bohemiancoding.com/sketch -->
    <title>adv_lowtariffs</title>
    <desc>Created with Sketch.</desc>
    <defs></defs>
    <g id="Page-1" stroke="none" stroke-width="1" fill="none" fill-rule="evenodd" sketch:type="MSPage">
        <path d="M217.515,90.1935484 L217.5,90.1935484 L217.5,22.5483871 C217.5,10.0941613 207.4275,0 195,0 L41.25,0 C18.5025,0 0,18.5498065 0,41.3387097 L0,191.66129 C0,214.450194 18.5025,233 41.25,233 L176.25,233 C198.9975,233 217.5,214.450194 217.5,191.66129 L217.5,180.387097 L217.515,180.387097 C247.5,157.831194 247.5,112.749452 217.515,90.1935484 L217.515,90.1935484 Z M41.25,15.0322581 L195,15.0322581 C199.1325,15.0322581 202.5,18.3994839 202.5,22.5483871 L202.5,69.028129 C200.1375,68.1863226 197.6475,67.6451613 195,67.6451613 L195,30.0645161 C195,25.9080968 191.64,22.5483871 187.5,22.5483871 L30,22.5483871 C25.8525,22.5483871 22.5,25.9080968 22.5,30.0645161 L22.5,59.7006129 C17.8725,54.9654516 15,48.4940645 15,41.3387097 C15,26.8100323 26.7525,15.0322581 41.25,15.0322581 L41.25,15.0322581 Z M30,30.0645161 L187.5,30.0645161 L187.5,37.5806452 L30,37.5806452 L30,30.0645161 Z M30,45.0967742 L187.5,45.0967742 L187.5,52.6129032 L30,52.6129032 L30,45.0967742 Z M187.5,60.1290323 L187.5,67.6451613 L41.25,67.6451613 C37.2,67.6451613 33.42,66.6530323 30,65.0145161 L30,60.1290323 L187.5,60.1290323 L187.5,60.1290323 Z M202.5,191.66129 C202.5,206.189968 190.7475,217.967742 176.25,217.967742 L41.25,217.967742 C26.7525,217.967742 15,206.189968 15,191.66129 L15,73.1995806 C22.14,79.1147742 31.2825,82.6774194 41.25,82.6774194 L195,82.6774194 C199.1325,82.6774194 202.5,86.0446452 202.5,90.1935484 L202.5,105.225806 L135,105.225806 C114.2925,105.225806 97.5,122.046903 97.5,142.806452 C97.5,163.566 114.2925,180.387097 135,180.387097 L202.5,180.387097 L202.5,191.66129 L202.5,191.66129 Z M212.0775,165.354839 L135,165.354839 C122.595,165.354839 112.5,155.238129 112.5,142.806452 C112.5,130.374774 122.595,120.258065 135,120.258065 L202.5,120.258065 C207.135,120.197935 211.725,117.950613 214.515,114.215097 C215.3025,113.170355 215.9025,111.982806 216.39,110.750161 C216.4575,110.584806 216.5775,110.457032 216.6375,110.291677 C222.03,117.371871 225,126.060516 225,135.290323 C225,146.850129 220.3425,157.575645 212.0775,165.354839 L212.0775,165.354839 Z M135,127.774194 C126.72,127.774194 120,134.508645 120,142.806452 C120,151.104258 126.72,157.83871 135,157.83871 C143.28,157.83871 150,151.104258 150,142.806452 C150,134.508645 143.28,127.774194 135,127.774194" id="adv_lowtariffs" fill="#2D2E2B" sketch:type="MSShapeGroup"></path>
    </g>
</svg>