<?xml version="1.0" encoding="UTF-8" standalone="no"?>
<svg width="230px" height="230px" viewBox="0 0 230 230" version="1.1" xmlns="http://www.w3.org/2000/svg" xmlns:xlink="http://www.w3.org/1999/xlink" xmlns:sketch="http://www.bohemiancoding.com/sketch/ns">
    <!-- Generator: Sketch 3.0.3 (7891) - http://www.bohemiancoding.com/sketch -->
    <title>adv_thumbsup</title>
    <desc>Created with Sketch.</desc>
    <defs></defs>
    <g id="Page-1" stroke="none" stroke-width="1" fill="none" fill-rule="evenodd" sketch:type="MSPage">
        <g id="Imported-Layers" sketch:type="MSLayerGroup" fill="#000000">
            <path d="M209.61625,75.2675 C200.639062,72.91 179.507812,72.9315625 148.60875,72.119375 C150.075,65.3775 150.405625,59.296875 150.405625,48.50125 C150.405625,22.7125 131.624687,0 115,0 C103.262813,0 93.5884375,9.5953125 93.4375,21.3971875 C93.279375,35.865625 88.80875,60.8709375 64.6875,73.5425 C62.919375,74.476875 57.859375,76.9709375 57.1190625,77.3015625 L57.5,77.625 C53.7265625,74.3690625 48.4940625,71.875 43.125,71.875 L21.5625,71.875 C9.674375,71.875 0,81.549375 0,93.4375 L0,208.4375 C0,220.325625 9.674375,230 21.5625,230 L43.125,230 C51.678125,230 58.8296875,224.832188 62.30125,217.587187 C62.3875,217.615938 62.5384375,217.659063 62.6390625,217.673438 C63.1134375,217.802813 63.666875,217.939375 64.356875,218.12625 C64.48625,218.155 64.5509375,218.162188 64.6875,218.205313 C68.8275,219.233125 76.7984375,221.145 93.8328125,225.055 C97.49125,225.88875 116.768125,230 136.76375,230 L176.050625,230 C188.032188,230 196.657187,225.392813 201.79625,216.1425 C201.875313,216.005938 203.528437,212.771563 204.879687,208.40875 C205.893125,205.124063 206.266875,200.480938 205.045,195.75875 C212.764375,190.454375 215.244062,182.440313 216.868438,177.222187 C219.570937,168.654687 218.751563,162.229062 216.875625,157.621875 C221.209688,153.525 224.918437,147.279063 226.485312,137.748437 C227.455625,131.833125 226.413438,125.759687 223.682188,120.6925 C227.7575,116.12125 229.611875,110.37125 229.820312,105.0525 L229.899375,103.550313 C229.956875,102.601562 230,102.019375 230,99.949375 C230,90.8715625 223.718125,79.2925 209.61625,75.2675 L209.61625,75.2675 Z M50.3125,208.4375 C50.3125,212.412188 47.0996875,215.625 43.125,215.625 L21.5625,215.625 C17.5878125,215.625 14.375,212.412188 14.375,208.4375 L14.375,93.4375 C14.375,89.4628125 17.5878125,86.25 21.5625,86.25 L43.125,86.25 C47.0996875,86.25 50.3125,89.4628125 50.3125,93.4375 L50.3125,208.4375 L50.3125,208.4375 Z M215.466875,104.470313 C215.315937,108.020938 213.828125,115 201.25,115 L186.875,115 C184.89125,115 183.28125,116.61 183.28125,118.59375 C183.28125,120.5775 184.89125,122.1875 186.875,122.1875 L200.804375,122.1875 C211.578438,122.1875 213.001563,131.135937 212.297188,135.44125 C211.420312,140.803125 208.904687,150.9375 196.765,150.9375 L179.6875,150.9375 C177.70375,150.9375 176.09375,152.540312 176.09375,154.53125 C176.09375,156.515 177.70375,158.125 179.6875,158.125 L193.839687,158.125 C205.965,158.125 204.908438,167.3825 203.161875,172.895313 C200.869062,180.1475 199.4675,186.875 184.186875,186.875 L172.456875,186.875 C170.473125,186.875 168.863125,188.477812 168.863125,190.46875 C168.863125,192.445312 170.473125,194.0625 172.456875,194.0625 L183.734062,194.0625 C191.59,194.0625 191.96375,201.501563 191.144375,204.168125 C190.245937,207.093437 189.182187,209.249687 189.139062,209.350312 C186.96125,213.2675 183.460938,215.625 176.050625,215.625 L136.76375,215.625 C117.019687,215.625 97.448125,211.147188 96.9378125,211.032187 C67.0809375,204.15375 65.506875,203.621875 63.6309375,203.09 C63.6309375,203.09 57.5575,202.062187 57.5575,196.757812 L57.5,97.49125 C57.5,94.1203125 59.6490625,91.0728125 63.206875,90.001875 C63.6525,89.8221875 64.25625,89.6425 64.6875,89.455625 C97.52,75.8640625 107.517812,46.043125 107.8125,21.5625 C107.855625,18.126875 110.507812,14.375 115,14.375 C122.604375,14.375 136.030625,29.626875 136.030625,48.50125 C136.030625,65.5428125 135.347813,68.4896875 129.375,86.25 C201.25,86.25 200.746875,87.285 207.093437,88.9453125 C214.949375,91.1878125 215.625,97.706875 215.625,99.949375 C215.625,102.414687 215.553125,102.055312 215.466875,104.470313 Z M32.34375,186.875 C26.3925,186.875 21.5625,191.705 21.5625,197.65625 C21.5625,203.6075 26.3925,208.4375 32.34375,208.4375 C38.295,208.4375 43.125,203.6075 43.125,197.65625 C43.125,191.705 38.295,186.875 32.34375,186.875 Z M32.34375,201.25 C30.3671875,201.25 28.75,199.632812 28.75,197.65625 C28.75,195.679688 30.3671875,194.0625 32.34375,194.0625 C34.3203125,194.0625 35.9375,195.679688 35.9375,197.65625 C35.9375,199.632812 34.3203125,201.25 32.34375,201.25 Z" id="adv_thumbsup" sketch:type="MSShapeGroup"></path>
        </g>
    </g>
</svg>