<?xml version="1.0" encoding="UTF-8" standalone="no"?>
<svg width="248px" height="260px" viewBox="0 0 248 260" version="1.1" xmlns="http://www.w3.org/2000/svg" xmlns:xlink="http://www.w3.org/1999/xlink" xmlns:sketch="http://www.bohemiancoding.com/sketch/ns">
    <!-- Generator: Sketch 3.0.3 (7891) - http://www.bohemiancoding.com/sketch -->
    <title>adv_insurance</title>
    <desc>Created with Sketch.</desc>
    <defs></defs>
    <g id="Page-1" stroke="none" stroke-width="1" fill="none" fill-rule="evenodd" sketch:type="MSPage">
        <path d="M145.000967,23.841427 L145.67683,22.6950509 C145.67683,10.4753758 135.730191,0.5 123.516059,0.5 C111.25112,0.5 101.36279,10.4583926 101.36279,22.6950509 C101.36279,22.6950509 102.601922,23.5576782 102.040968,23.8430687 C100.315312,24.7210119 97.5964626,25.648485 94.4468846,26.3999591 C51.5938765,36.6232973 17.1298496,68.9839076 3.99952662,111.104758 C1.93225993,117.813152 0.830920275,122.411577 0.564179185,125.979395 C0.363216549,128.667388 0.594104994,131.017588 1.56567755,133.256411 C3.0487133,136.673814 6.04946155,139.009213 9.74624338,139.569121 C13.9592104,140.53485 18.1361434,138.856932 25.0442445,134.677017 C30.5994858,131.299719 37.8555203,129.3918 45.7974492,129.3918 C53.6551638,129.3918 60.9144682,131.305237 66.4453437,134.667744 C81.697517,143.767143 87.6396629,143.767143 102.759191,134.692786 C105.444764,133.071515 108.544384,131.778923 112.120523,130.793653 C115.631508,129.881804 119.574565,129.376759 123.523561,129.376759 C127.46821,129.376759 131.397008,129.880597 135.041681,130.826444 C138.555807,131.789159 141.663664,133.080756 144.177812,134.63485 C159.395668,143.769071 165.422575,143.769071 180.545316,134.692786 C186.117613,131.301529 193.378923,129.3918 201.309686,129.3918 C209.105268,129.3918 216.382516,131.297586 221.95338,134.626177 C228.726937,138.667116 232.813135,140.312432 237.489933,139.448271 C240.917773,138.927443 243.907916,136.600998 245.401647,133.20352 C246.38778,130.960568 246.633587,128.592094 246.442206,125.89108 C246.184121,122.248652 245.053462,117.541202 242.960229,110.871167 C229.846445,68.9134521 195.383874,36.6158071 152.593848,26.4002248 C149.447633,25.649553 145.000967,23.841427 145.000967,23.841427 Z M227.342187,118.370313 C219.048397,113.490026 212.102362,112.3918 201.309686,112.3918 C190.350692,112.3918 180.0282,115.106621 171.751983,120.143748 C162.058805,125.961157 162.759438,125.961157 153.021226,120.116529 C149.130175,117.710461 144.533009,115.79992 139.421015,114.400589 C134.275965,113.064598 128.912372,112.376759 123.523561,112.376759 C118.130079,112.376759 112.749705,113.065903 107.724088,114.372441 C102.583006,115.787946 98.0487477,117.678806 93.9919986,120.127902 C84.2694666,125.963085 85.035373,125.963085 75.2157632,120.104959 C67.0027299,115.111483 56.6846471,112.3918 45.7974492,112.3918 C34.8291349,112.3918 27.6627958,113.5694 19.3765625,118.607031 C30.6964237,82.0261333 61.387107,51.7640289 98.3920406,42.9358517 C102.747748,41.896601 106.688057,40.5524548 109.749586,38.994874 C111.6843,38.0105708 113.330253,36.9190635 114.686696,35.6147062 C116.906915,33.4797411 118.36279,30.8015597 118.36279,27.4932072 L118.36279,22.6950509 C118.36279,19.8204702 120.666934,17.5 123.516059,17.5 C126.330354,17.5 128.67683,19.8532552 128.67683,22.6950509 L128.67683,27.4932072 C128.67683,30.8026664 130.133839,33.4787996 132.354558,35.6131055 C133.709895,36.9157031 135.354661,38.0066712 137.287718,38.9908753 C140.35127,40.5506642 144.29428,41.8971757 148.647363,42.9358002 C185.597725,51.7572361 216.008918,82.1093902 227.342187,118.370313 Z M114.41588,153.429661 L114.41588,213.53742 C114.41588,225.964699 104.301227,236.077829 91.8720759,236.077829 C84.6956315,236.077829 78.2931912,232.719308 74.167675,227.467393 C69.0276877,220.953215 64.2934888,213.53742 58.0563697,213.53742 C51.8192505,213.53742 46.5364858,220.442299 49.2567715,228.286361 C55.3586278,245.950529 72.1387326,258.618239 91.8720759,258.618239 C116.76795,258.618239 136.959684,238.429545 136.959684,213.53742 L136.959684,153.429661 C136.959684,145.13479 131.917387,145.916191 125.687782,145.916191 C119.458177,145.916191 114.41588,145.13479 114.41588,153.429661 L114.41588,153.429661 Z" id="adv_insurance" fill="#000000" sketch:type="MSShapeGroup"></path>
    </g>
</svg>