<?xml version="1.0" encoding="UTF-8" standalone="no"?>
<svg width="195px" height="260px" viewBox="0 0 195 260" version="1.1" xmlns="http://www.w3.org/2000/svg" xmlns:xlink="http://www.w3.org/1999/xlink" xmlns:sketch="http://www.bohemiancoding.com/sketch/ns">
    <!-- Generator: Sketch 3.0.3 (7891) - http://www.bohemiancoding.com/sketch -->
    <title>adv_lock</title>
    <desc>Created with Sketch.</desc>
    <defs></defs>
    <g id="Page-1" stroke="none" stroke-width="1" fill="none" fill-rule="evenodd" sketch:type="MSPage">
        <path d="M170.625,105.625 L170.625,73.125 C170.625,32.735625 137.889375,0 97.5,0 C57.110625,0 24.375,32.735625 24.375,73.125 L24.375,105.625 C10.911875,105.625 0,116.536875 0,130 L0,186.875 C0,227.264375 32.735625,260 73.125,260 L121.875,260 C162.264375,260 195,227.264375 195,186.875 L195,130 C195,116.536875 184.088125,105.625 170.625,105.625 L170.625,105.625 Z M40.625,73.125 C40.625,41.71375 66.08875,16.25 97.5,16.25 C128.91125,16.25 154.375,41.71375 154.375,73.125 L154.375,105.625 L138.125,105.625 L138.125,73.149375 C138.125,50.708125 119.94125,32.524375 97.5,32.524375 C75.05875,32.524375 56.875,50.708125 56.875,73.149375 L56.875,105.625 L40.625,105.625 L40.625,73.125 L40.625,73.125 Z M130,73.125 L130,105.625 L65,105.625 L65,73.125 C65,55.176875 79.551875,40.625 97.5,40.625 C115.448125,40.625 130,55.176875 130,73.125 L130,73.125 Z M178.75,154.375 L178.75,186.875 C178.75,218.229375 153.229375,243.75 121.875,243.75 L73.125,243.75 C41.770625,243.75 16.25,218.229375 16.25,186.875 L16.25,130 C16.25,125.515 19.89,121.875 24.375,121.875 L40.625,121.875 L154.375,121.875 L170.625,121.875 C175.11,121.875 178.75,125.515 178.75,130 L178.75,154.375 L178.75,154.375 Z M77.75,170.625 C77.75,175.607383 80.0825409,184.527019 83.3828422,193.538621 C86.5599818,202.173934 90.4498787,206.616875 97.5,206.616875 C101.529814,206.616875 104.714064,205.122827 107.129957,202.283068 C108.902775,200.19921 110.0845,197.769962 111.619904,193.634456 C114.885814,184.802982 117.25,175.669707 117.25,170.625 C117.25,159.716413 108.405533,150.875 97.5,150.875 L97.5,157.875 C104.54008,157.875 110.25,163.582948 110.25,170.625 C110.25,174.606171 108.049151,183.108445 105.056023,191.202288 C102.619107,197.765943 101.044448,199.616875 97.5,199.616875 C94.2572166,199.616875 92.2231499,197.293616 89.9541047,191.126467 C86.9267017,182.860014 84.75,174.536307 84.75,170.625 C84.75,163.582948 90.4599195,157.875 97.5,157.875 L97.5,150.875 C86.5944674,150.875 77.75,159.716413 77.75,170.625 Z" id="adv_lock" fill="#2D2E2B" sketch:type="MSShapeGroup"></path>
    </g>
</svg>