<?xml version="1.0" encoding="UTF-8" standalone="no"?>
<svg width="240px" height="242px" viewBox="0 0 240 242" version="1.1" xmlns="http://www.w3.org/2000/svg" xmlns:xlink="http://www.w3.org/1999/xlink" xmlns:sketch="http://www.bohemiancoding.com/sketch/ns">
    <!-- Generator: Sketch 3.0.3 (7891) - http://www.bohemiancoding.com/sketch -->
    <title>adv_mantie</title>
    <desc>Created with Sketch.</desc>
    <defs>
        <path d="M117.178,190.946 C113.307,190.946 109.671,194.044 109.058,197.852 L105.107,222.428 C104.099,228.698 108.431,233.78 114.786,233.78 L120.214,233.78 C126.568,233.78 130.902,228.698 129.893,222.428 L125.942,197.852 C125.328,194.038 121.704,190.946 117.822,190.946 L117.178,190.946 L117.178,190.946 Z M117.849,186.154 C122.862,186.154 126.926,178.599 126.926,173.586 C126.926,168.573 122.862,168 117.849,168 C112.836,168 108.772,168.573 108.772,173.586 C108.772,178.599 112.836,186.154 117.849,186.154 L117.849,186.154 Z" id="path-1"></path>
    </defs>
    <g id="Page-1" stroke="none" stroke-width="1" fill="none" fill-rule="evenodd" sketch:type="MSPage">
        <g id="adv_mantie" sketch:type="MSLayerGroup" transform="translate(0.000000, 1.000000)">
            <path d="M120.002,15.89 C138.518,15.89 153.896,23.819 162.193,37.644 C169.177,49.283 171.232,64.223 168.3,82.049 C165.76,97.494 159.387,115.166 149.87,133.151 C147.696,137.259 143.171,145.807 147.63,155.572 C152.81,166.916 164.913,171.429 198.651,179.231 C214.331,182.856 218.791,188.642 220.926,193.278 C223.695,199.288 224.024,205.945 223.995,224.093 L16.086,224.093 C16.434,209.63 17.599,196.848 19.09,193.247 C21.23,188.617 25.706,182.849 41.347,179.232 C75.245,171.405 87.391,166.88 92.517,155.514 C96.938,145.713 92.156,136.886 90.114,133.116 C79.139,112.856 72.622,93.996 70.743,77.059 C69.027,61.594 71.301,48.454 77.502,38.006 C85.843,23.951 101.334,15.89 120.002,15.89 L120.002,15.89 Z M120.002,-0.11 C95.545,-0.11 75.039,10.806 63.742,29.841 C47.638,56.977 52.007,96.361 76.046,140.737 C81.15,150.159 81.273,153.592 37.748,163.643 C20.462,167.639 9.911,174.929 4.543,186.584 C-0.798,198.182 0.049,240.093 0.049,240.093 L239.954,240.093 C239.954,209.882 240.782,198.142 235.459,186.584 C230.091,174.929 219.541,167.639 202.256,163.643 C158.867,153.609 158.98,150.141 164.012,140.636 C181.947,106.74 195.647,62.298 175.912,29.411 C164.654,10.65 144.275,-0.11 120.002,-0.11 L120.002,-0.11 Z" id="Fill-1" fill="#000106" sketch:type="MSShapeGroup"></path>
            <mask id="mask-2" sketch:name="Clip 3" fill="white">
                <use xlink:href="#path-1"></use>
            </mask>
            <use id="Clip-3" fill="#000000" sketch:type="MSShapeGroup" xlink:href="#path-1"></use>
        </g>
    </g>
</svg>