<?xml version="1.0" encoding="UTF-8" standalone="no"?>
<svg width="254px" height="223px" viewBox="0 0 254 223" version="1.1" xmlns="http://www.w3.org/2000/svg" xmlns:xlink="http://www.w3.org/1999/xlink" xmlns:sketch="http://www.bohemiancoding.com/sketch/ns">
    <!-- Generator: Sketch 3.0.3 (7891) - http://www.bohemiancoding.com/sketch -->
    <title>adv_heart</title>
    <desc>Created with Sketch.</desc>
    <defs></defs>
    <g id="Page-1" stroke="none" stroke-width="1" fill="none" fill-rule="evenodd" sketch:type="MSPage">
        <path d="M-9.09494702e-13,82.5598412 C-9.09494702e-13,101.463385 6.25123147,119.032119 17.6702924,135.616062 C26.4737961,148.401421 37.7853091,159.999539 52.7633294,172.665664 C57.7222556,176.859167 61.5765137,179.962862 70.1215929,186.729629 C81.4035684,195.657691 103.355194,212.454219 105.674878,214.33179 C117.851748,224.14246 135.427497,224.054436 147.429807,214.071121 C150.446799,211.559869 154.115808,208.678771 160.256395,203.980723 C162.069257,202.593736 176.881134,191.320123 182.648859,186.906848 C203.037376,171.321387 216.008836,159.929415 227.569154,145.930569 C243.883926,126.174368 253,105.163476 253,82.1210912 C253,11.0944475 172.011719,-25.2832031 126.345721,22.5717815 C80.9296875,-25 -9.09494702e-13,11.2287195 -9.09494702e-13,82.5598412 Z M18,82.5598412 C18,122.573841 54.1305,151.106091 81.2961875,172.618341 C100.087031,187.488591 109.885937,194.582841 116.999469,200.340591 C122.478719,204.755091 130.5145,204.728091 135.919156,200.232591 C142.958094,194.373591 152.682406,187.171341 171.710594,172.611591 C199.269594,151.544841 235,122.128341 235,82.1210912 C235,27.4393412 172.225969,-3.88065881 134.400156,35.9645912 C129.565125,41.0675912 123.441656,41.0675912 118.599844,35.9645912 C80.7740312,-3.87390881 18,27.4730912 18,82.5598412 Z" id="adv_heart" fill="#000000" sketch:type="MSShapeGroup"></path>
    </g>
</svg>