<?xml version="1.0" encoding="UTF-8" standalone="no"?>
<svg width="264px" height="192px" viewBox="0 0 264 192" version="1.1" xmlns="http://www.w3.org/2000/svg" xmlns:xlink="http://www.w3.org/1999/xlink" xmlns:sketch="http://www.bohemiancoding.com/sketch/ns">
    <!-- Generator: Sketch 3.0.3 (7891) - http://www.bohemiancoding.com/sketch -->
    <title>adv_car</title>
    <desc>Created with Sketch.</desc>
    <defs></defs>
    <g id="Page-1" stroke="none" stroke-width="1" fill="none" fill-rule="evenodd" sketch:type="MSPage">
        <path d="M241.306397,70.4736459 C253.953504,83.6992216 263.421152,106.086634 263.421152,123.759047 L263.421152,138.657047 C263.421152,155.120568 255.696443,163.856732 245.950515,168.492469 L245.950515,168.492469 L245.950515,182.324422 C245.950515,187.266547 241.95303,191.277547 237.018697,191.277547 L212.434364,191.277547 C207.504,191.277547 203.502545,187.266547 203.502545,182.324422 L203.502545,173.733401 L59.9424242,173.733401 L59.9424242,182.324422 C59.9424242,187.266547 55.9409697,191.277547 51.0106061,191.277547 L26.4302424,191.277547 C21.4998788,191.277547 17.4984242,187.266547 17.4984242,182.324422 L17.4984242,168.505673 L17.4984242,168.505673 C7.73939627,163.873327 0,155.136212 0,138.657047 L0,123.759047 C0,106.344939 7.83196054,83.8115016 21.2903664,70.1295382 C17.6096367,69.2204968 14.7360828,68.4383193 12.7347879,67.8676723 C3.35836364,64.2943806 6.38724242,55.3651306 6.38327273,55.3611514 C8.21330303,51.3382139 13.3540606,49.4282139 17.6175152,50.6498181 C20.7722685,51.5494784 26.2006503,52.9996471 33.6325148,54.6362426 C41.5862327,36.7567491 53.2321657,20.1490593 68.3343636,5.1679431 L69.1124242,4.38404727 C70.7479394,2.31090144 73.2885455,0.985838938 76.1268788,0.985838938 L187.310152,0.985838938 C190.148485,0.985838938 192.685121,2.3148806 194.328576,4.38404727 L195.114576,5.17590144 C210.248012,20.1950025 221.91087,36.8381853 229.873827,54.7457697 C240.301531,52.4249602 246.022591,50.6078422 246.180758,50.5582973 C250.900727,49.0541723 255.914455,51.6286931 257.426909,56.3280889 C258.939364,61.0434014 256.359061,66.0850056 251.670848,67.6010681 C251.167034,67.7630941 247.606013,68.8954338 241.306397,70.4736459 Z M48.6074764,75.7734223 C48.3257427,75.8003133 48.0402065,75.8140681 47.7514848,75.8140681 C32.6428182,75.8140681 17.8636364,103.26236 17.8636364,123.759047 L17.8636364,138.657047 C17.8636364,150.292131 22.6828485,155.827151 50.0340606,155.827151 L213.387091,155.827151 C240.742273,155.827151 245.557515,150.288151 245.557515,138.657047 L245.557515,123.759047 C245.557515,111.113256 237.741182,90.7677764 226.106,80.6487556 C222.741333,77.7227165 219.443791,76.0657979 216.402488,75.6957164 C195.842347,79.2841994 167.049121,82.7059848 132.000364,82.7059848 C98.238056,82.7059848 69.6588429,79.3783727 48.6074764,75.7734223 Z M208.424191,58.8406064 C209.25152,58.429676 210.156929,58.141621 211.120394,58.0033181 C211.293372,57.9781059 211.466374,57.9545176 211.639394,57.9325502 C204.851955,43.9842215 195.433788,30.894854 183.531,18.8841306 L79.9060303,18.8841306 C67.9468375,30.9486348 58.4870573,44.1217803 51.6999979,58.1553933 C71.8762984,61.6077613 99.3688016,64.8037139 131.996394,64.8037139 C163.039752,64.8037139 189.084591,61.9762674 208.424191,58.8406064 Z M228.086876,173.125857 C227.198313,173.222116 226.319536,173.303124 225.454344,173.371297 L228.086879,173.371297 L228.086879,173.125857 L228.086876,173.125857 Z M35.3620632,173.128863 C36.2411601,173.223804 37.1106356,173.303835 37.9668073,173.371297 L35.3620606,173.371297 L35.3620606,173.128863 L35.3620632,173.128863 Z M162.634515,137.825401 L102.414212,137.825401 C97.4838485,137.825401 93.4823939,133.814401 93.4823939,128.872276 C93.4823939,123.930151 97.4838485,119.919151 102.414212,119.919151 L162.634515,119.919151 C167.564879,119.919151 171.566333,123.930151 171.566333,128.872276 C171.566333,133.814401 167.564879,137.825401 162.634515,137.825401 Z M67.1077273,138.259131 L40.9990303,138.259131 C36.0726364,138.259131 32.0672121,134.248131 32.0672121,129.306006 C32.0672121,124.363881 36.0726364,120.352881 40.9990303,120.352881 L67.1077273,120.352881 C72.0380909,120.352881 76.0395455,124.363881 76.0395455,129.306006 C76.0395455,134.248131 72.0380909,138.259131 67.1077273,138.259131 Z M222.43403,138.259131 L196.337242,138.259131 C191.406879,138.259131 187.405424,134.248131 187.405424,129.306006 C187.405424,124.363881 191.406879,120.352881 196.337242,120.352881 L222.430061,120.352881 C227.360424,120.352881 231.361879,124.363881 231.361879,129.306006 C231.361879,134.248131 227.368364,138.259131 222.43403,138.259131 Z" id="adv_car" fill="#000000" sketch:type="MSShapeGroup"></path>
    </g>
</svg>