<?xml version="1.0" encoding="UTF-8" standalone="no"?>
<svg width="209px" height="210px" viewBox="0 0 209 210" version="1.1" xmlns="http://www.w3.org/2000/svg" xmlns:xlink="http://www.w3.org/1999/xlink" xmlns:sketch="http://www.bohemiancoding.com/sketch/ns">
    <!-- Generator: Sketch 3.0.3 (7891) - http://www.bohemiancoding.com/sketch -->
    <title>adv_wizard</title>
    <desc>Created with Sketch.</desc>
    <defs></defs>
    <g id="Page-1" stroke="none" stroke-width="1" fill="none" fill-rule="evenodd" sketch:type="MSPage">
        <path d="M206.170431,195.729583 L116.590431,106.149583 C116.380431,105.939583 116.160431,105.739583 115.930431,105.559583 C123.440431,102.869583 134.530431,98.8995831 134.530431,98.8995831 C151.870431,92.7095831 154.240431,73.8695831 138.860431,63.7295831 L116.440431,48.9495831 C116.440431,48.8495831 116.270431,48.5895831 116.110431,48.3095831 C115.960431,48.0195831 115.830431,47.7395831 115.760431,47.4995831 C115.740431,47.4195831 115.300431,20.4295831 115.300431,20.4295831 C115.000431,1.82958309 97.6604315,-6.25041691 83.2204315,5.47958309 L62.1304315,22.5895831 C61.9604315,22.6195831 61.6604315,22.7095831 61.3404315,22.7695831 C61.0304315,22.8395831 60.7304315,22.8695831 60.4904315,22.8695831 C60.4304315,22.8695831 34.9204315,15.2595831 34.9204315,15.2595831 C17.2704315,9.99958309 4.36043148,23.9195831 10.7504315,41.1795831 L20.1304315,66.5295831 C20.0904315,66.7095831 20.0804315,67.0395831 20.0404315,67.3895831 C19.9904315,67.7295831 19.9204315,68.0595831 19.8404315,68.3095831 C19.7804315,68.4495831 4.43043148,90.6995831 4.43043148,90.6995831 C-6.07956852,105.959583 3.09043148,122.679583 21.6104315,121.679583 L48.4904315,120.229583 C48.5404315,120.299583 48.8104315,120.399583 49.1004315,120.529583 C49.3804315,120.669583 49.6404315,120.819583 49.8204315,120.949583 C49.8704315,120.989583 65.8904315,142.329583 65.8904315,142.329583 C77.0504315,157.159583 95.7604315,153.429583 100.660431,135.559583 L105.570431,117.749583 L194.860431,207.039583 C197.980431,210.169583 203.050431,210.169583 206.170431,207.039583 C209.290431,203.919583 209.290431,198.849583 206.170431,195.729583 L206.170431,195.729583 Z M92.4604315,105.079583 L85.2404315,131.319583 C83.8304315,136.449583 81.8004315,136.849583 78.6804315,132.719583 L62.5204315,111.189583 C59.3404315,106.969583 52.9004315,103.969583 47.6304315,104.249583 L20.7404315,105.699583 C15.5804315,105.979583 14.5904315,104.169583 17.6104315,99.7795831 L33.0604315,77.3795831 C36.0604315,73.0195831 36.9604315,65.9295831 35.1404315,60.9895831 L25.7604315,35.6295831 C23.9304315,30.6895831 25.3904315,29.1095831 30.3504315,30.5895831 L56.0804315,38.2595831 C61.1304315,39.7695831 68.1304315,38.3495831 72.2304315,34.9995831 L93.3004315,17.8995831 C97.3804315,14.5895831 99.2104315,15.4395831 99.3004315,20.6895831 L99.7404315,47.8495831 C99.8304315,53.1495831 103.230431,59.3995831 107.640431,62.2995831 L130.050431,77.0795831 C134.370431,79.9295831 134.110431,82.0595831 129.140431,83.8395831 L103.690431,92.9395831 C98.7204315,94.7295831 93.8704315,99.9795831 92.4604315,105.079583 L92.4604315,105.079583 Z" id="adv_wizard" fill="#000106" sketch:type="MSShapeGroup"></path>
    </g>
</svg>