<?xml version="1.0" encoding="UTF-8" standalone="no"?>
<svg width="231px" height="231px" viewBox="0 0 231 231" version="1.1" xmlns="http://www.w3.org/2000/svg" xmlns:xlink="http://www.w3.org/1999/xlink" xmlns:sketch="http://www.bohemiancoding.com/sketch/ns">
    <!-- Generator: Sketch 3.0.3 (7891) - http://www.bohemiancoding.com/sketch -->
    <title>adv_plane</title>
    <desc>Created with Sketch.</desc>
    <defs></defs>
    <g id="Page-1" stroke="none" stroke-width="1" fill="none" fill-rule="evenodd" sketch:type="MSPage">
        <path d="M169.800414,141.629989 C170.118928,143.540712 170.118928,143.540712 170.349167,144.921961 C175.077779,173.085191 177.165886,186.591845 177.864557,194.88923 C177.99647,196.627218 176.866775,199.683972 175.554762,201.023193 L167.791742,208.966011 C165.296979,202.608493 134.307036,142.218096 131.803741,135.856377 C129.78647,130.32025 122.325206,128.081871 117.592505,132.814572 L118.354046,132.144032 L79.6517519,162.086823 L78.7789608,162.870845 C75.956126,165.808119 73.500606,171.333839 73.1681551,175.56399 L73.113186,176.263425 L73.1807989,176.961751 L75.9087752,203.659454 C75.7405955,206.093831 74.1543726,208.864889 72.6448551,210.407065 L70.4992585,212.643915 C70.7185434,212.903044 60.5832319,179.709903 60.5832319,179.709903 C59.4142649,174.990048 54.879017,170.416038 49.7493073,169.343157 L50.4628991,169.527079 L17.4057572,159.342128 C17.3895029,159.418715 19.6279675,157.352883 19.6279675,157.352883 C21.1000963,155.880759 24.4854629,154.332597 26.5671597,154.170295 L53.5234487,156.814193 L54.2611102,156.883327 L54.998922,156.815815 C59.0617447,156.444053 64.5705582,153.789125 67.558411,150.697447 L68.1428373,150.020819 L97.3969041,112.054055 L96.6890486,112.855627 C101.166398,108.421748 100.349415,100.699946 93.8688433,98.2697311 C87.5870772,95.7880275 78.267325,91.1201499 57.9403542,80.498887 C57.0661888,80.0420877 56.4041962,79.6961121 55.2604757,79.0983771 C33.4105551,67.702059 27.8067372,64.870489 21.3437812,62.1814794 C21.3249657,62.1736667 29.0393983,54.4687785 29.0393983,54.4687785 C30.2631992,53.2175544 33.424401,52.0622272 35.2099734,52.1946008 C43.439674,52.8388724 56.7246695,54.8798355 85.0968126,59.6355834 C111.813928,64.0994708 125.282806,66.1786846 133.728993,66.9353222 L134.816776,66.9584851 C139.47214,66.7406232 144.613159,64.9319222 147.634884,61.896524 L175.403773,34.1410376 C178.315585,31.2300592 181.395132,28.7050845 184.624125,26.5389622 C191.578991,21.8733931 199.013225,18.9911336 206.572317,17.5558785 C211.695389,16.5831538 213.2808,16.6471042 213.323518,16.652544 C213.358074,16.7024853 213.291179,17.6109295 212.400383,22.5705824 C211.076726,29.9402538 208.45986,37.1892633 204.259351,43.9470101 C201.915854,47.71721 199.11588,51.2654176 195.820381,54.5599489 L168.06114,82.4061306 C164.765083,85.5671192 162.655692,91.5055925 163.045755,96.240158 C163.701854,104.173992 165.428523,115.399333 169.800414,141.629989 Z M179.21425,94.2131148 C179.493538,93.5887791 207.142099,65.8656344 207.142099,65.8656344 C211.304905,61.7040663 214.865693,57.1917337 217.848144,52.3935898 C223.181723,43.8129685 226.484186,34.6647785 228.148389,25.3990602 C229.275525,19.123552 229.530439,13.5912309 229.28292,9.19711497 C229.250398,8.61977898 228.520163,1.60108853 228.520163,1.60108853 C228.520163,1.60108853 221.363304,0.704762587 220.661923,0.656804091 C215.970755,0.336035183 210.146541,0.591380255 203.587698,1.83671662 C194.001394,3.65688128 184.552856,7.32008802 175.710613,13.2517768 C171.625766,15.9920362 167.742197,19.176243 164.092237,22.825157 L135.727344,50.9636719 C134.783032,51.1694954 113.904383,48.2269555 87.7376873,43.8550333 C58.7118559,38.9897127 45.3834759,36.9420846 36.4257444,36.2408923 C29.9632688,35.761728 22.1640303,38.6121224 17.6821486,43.1994601 L9.0633782,51.7506834 C5.38173207,55.4190147 3.72697419,60.4445757 4.69433637,65.385564 C5.65003453,70.3434262 9.13920543,74.3343584 13.9433523,76.3093966 C19.7303351,78.717235 26.6583394,82.2258339 47.8555656,93.2817218 C48.9930642,93.8762081 49.655513,94.2224221 50.1382365,94.4746761 C71.5355594,105.655229 79.0816406,109.443164 79.609375,109.601562 C79.5171875,109.591406 55.4687406,140.255202 55.4687406,140.255202 C55.064257,140.514989 26.6918107,138.229404 26.6918107,138.229404 L25.3234764,138.218704 C19.4547341,138.676267 12.4939224,141.859516 8.31937134,146.034067 L4.62008304,149.726673 C0.85247037,153.521472 -0.87438224,158.68615 0.423944763,163.738676 C1.73387641,168.775809 5.64075637,172.57095 10.7634105,174.057736 L45.3425781,184.694922 C44.3204654,184.481147 55.9605635,219.324379 55.9605635,219.324379 C57.8440475,225.584858 63.1580047,229.987608 69.6024157,229.987608 C73.622101,229.987608 77.3295197,228.28899 80.2541929,225.364316 L83.9730122,221.70531 C88.2736729,217.313618 91.3435595,210.365424 91.7728518,204.08469 L88.853125,175.242578 C89.3458137,174.802116 121.151172,149.787109 121.151172,149.787109 C124.00701,157.053877 151.35529,210.332223 153.764049,216.11638 C157.920446,226.134018 170.481051,228.709799 178.221804,220.982967 L186.926222,212.278554 C191.50344,207.607019 194.301845,200.035032 193.81331,193.611313 C193.054839,184.600606 179.593223,102.199935 178.991527,94.9239727 C179.053528,94.7342404 179.121768,94.4734748 179.21425,94.2131148 Z" id="adv_plane" fill="#000000" sketch:type="MSShapeGroup"></path>
    </g>
</svg>