<?xml version="1.0" encoding="UTF-8" standalone="no"?>
<svg width="245px" height="238px" viewBox="0 0 245 238" version="1.1" xmlns="http://www.w3.org/2000/svg" xmlns:xlink="http://www.w3.org/1999/xlink" xmlns:sketch="http://www.bohemiancoding.com/sketch/ns">
    <!-- Generator: Sketch 3.0.3 (7891) - http://www.bohemiancoding.com/sketch -->
    <title>adv_star</title>
    <desc>Created with Sketch.</desc>
    <defs></defs>
    <g id="Page-1" stroke="none" stroke-width="1" fill="none" fill-rule="evenodd" sketch:type="MSPage">
        <path d="M173.269108,84.2854673 L221.353716,91.3856858 C223.861226,91.7558355 225.744724,92.4058663 226.944116,93.1841933 C227.632085,93.6306403 227.898989,93.9603425 227.974521,94.1967175 C228.054875,94.4481816 228.027416,94.9083583 227.714767,95.7157731 C227.181812,97.0921271 226.015398,98.7665606 224.180262,100.580448 L189.387551,134.986479 C182.250052,142.060546 178.148361,154.88766 179.828755,164.822005 L188.043802,213.405899 C188.483204,215.988873 188.457367,218.05189 188.0893,219.49015 C187.964052,219.979569 187.813045,220.340186 187.658089,220.58643 C187.299781,220.942746 186.931105,221.040182 186.143743,220.992961 C184.728238,220.908069 182.825303,220.310639 180.57702,219.11284 L137.58275,196.167207 C128.700088,191.43228 115.29588,191.43228 106.423217,196.167045 L63.4235388,219.115562 C61.1775423,220.314023 59.2772271,220.911899 57.8647449,220.997156 C57.0808947,221.044469 56.7153387,220.947873 56.5533632,220.828367 C56.2000968,220.342053 56.0479803,219.97932 55.9216767,219.487529 C55.5512979,218.045374 55.5223589,215.978035 55.956014,213.398322 L64.1698615,164.821544 C65.8413063,154.883333 61.7399927,142.068814 54.6141255,134.996646 L19.8201953,100.582345 C17.9870398,98.7691926 16.8223843,97.0956413 16.2907092,95.7201808 C15.9788174,94.9133067 15.9516737,94.4532579 16.0323819,94.2011948 C16.1085371,93.9633511 16.3768029,93.6322176 17.0663586,93.1849001 C18.2669021,92.4061026 20.1511978,91.7558894 22.6587284,91.3857366 L70.7387423,84.2851446 C80.6577769,82.8284964 91.4877523,74.8506027 95.8821218,65.757981 L117.376746,21.5615141 C118.511073,19.2270765 119.717957,17.5880047 120.831057,16.6598348 C121.451419,16.1425401 121.809507,16 121.995707,16 C122.181906,16 122.539995,16.1425401 123.160356,16.6598348 C124.273456,17.5880047 125.48034,19.2270765 126.613445,21.5589997 L148.117917,65.7757722 C152.53123,74.8580741 163.339179,82.8217914 173.269108,84.2854673 Z M141.003246,14.5637439 C131.567283,-4.85541947 112.424131,-4.85541947 102.986945,14.5662584 L81.4849171,58.778002 C79.3856302,63.1216912 73.0749371,67.7704588 68.4075909,68.4558777 L20.3216711,75.5573393 C-0.821265014,78.6783848 -6.65557708,96.8997703 8.5687189,111.957946 L43.3529681,146.362655 C46.7740213,149.757944 49.2024798,157.345641 48.3926292,162.160926 L40.1786769,210.738327 C36.6057275,231.992947 51.9965519,243.34832 70.956371,233.231384 L113.95625,210.282761 C118.122033,208.059752 125.879075,208.059752 130.052919,210.28463 L173.048789,233.231115 C192.024613,243.340712 207.432668,231.975553 203.818527,210.730456 L195.604736,162.153972 C194.790894,157.342601 197.217841,149.752869 200.644259,146.356898 L235.429238,111.958521 C250.660567,96.903548 244.836989,78.6788181 223.690603,75.5572634 L175.604323,68.4567981 C170.920626,67.7664189 164.617293,63.1218774 162.507677,58.7804311 L141.003246,14.5637439 Z" id="adv_star" fill="#000000" sketch:type="MSShapeGroup"></path>
    </g>
</svg>