<?xml version="1.0" encoding="UTF-8" standalone="no"?>
<svg width="203px" height="180px" viewBox="0 0 203 180" version="1.1" xmlns="http://www.w3.org/2000/svg" xmlns:xlink="http://www.w3.org/1999/xlink" xmlns:sketch="http://www.bohemiancoding.com/sketch/ns">
    <!-- Generator: Sketch 3.0.3 (7891) - http://www.bohemiancoding.com/sketch -->
    <title>adv_nonstandart.svg</title>
    <desc>Created with Sketch.</desc>
    <defs></defs>
    <g id="Page-1" stroke="none" stroke-width="1" fill="none" fill-rule="evenodd" sketch:type="MSPage">
        <path d="M190.258082,158.240011 C164.411082,162.548011 146.202082,159.094011 134.825082,149.527011 C130.522082,145.909011 127.113082,141.315011 124.606082,135.852011 C150.608082,125.179011 170.282082,111.350011 183.468082,95.1560111 C196.618082,79.0050111 202.851082,60.9600111 202.060082,43.7980111 C201.323082,27.8090111 194.391082,13.7050111 183.370082,5.97401111 C171.170082,-2.58398889 155.964082,-2.01598889 142.975082,8.12201111 C119.076082,26.7750111 99.537082,73.3320111 100.448082,111.338011 C100.553082,115.727011 100.931082,119.964011 101.564082,124.044011 C77.496082,131.706011 58.562082,132.360011 44.878082,127.141011 C32.663082,122.482011 24.710082,113.068011 21.099082,100.068011 C14.119082,74.9410111 25.461082,42.7270111 42.586082,35.3320111 C47.403082,33.2520111 49.622082,27.6610111 47.542082,22.8440111 C45.462082,18.0280111 39.871082,15.8090111 35.054082,17.8890111 C8.31508199,29.4350111 -6.52991801,71.5970111 2.79208199,105.153011 C7.95408199,123.736011 19.991082,137.984011 38.106082,144.893011 C56.088082,151.751011 79.066082,151.055011 106.711082,142.358011 C110.366082,150.865011 115.628082,158.209011 122.597082,164.069011 C138.717082,177.624011 162.481082,182.131011 193.382082,176.981011 C198.557082,176.119011 202.053082,171.224011 201.191082,166.049011 C200.328082,160.873011 195.434082,157.377011 190.258082,158.240011 L190.258082,158.240011 Z M154.665082,23.1000111 C161.137082,18.0480111 167.175082,17.8220111 172.458082,21.5280111 C178.376082,25.6800111 182.601082,34.2750111 183.080082,44.6730111 C183.652082,57.0710111 178.992082,70.5610111 168.734082,83.1590111 C158.046082,96.2870111 141.781082,107.913011 119.836082,117.258011 C119.628082,115.196011 119.495082,113.072011 119.442082,110.883011 C118.668082,78.6030111 135.774082,37.8440111 154.665082,23.1000111 L154.665082,23.1000111 Z" id="adv_nonstandart.svg" fill="#000106" sketch:type="MSShapeGroup"></path>
    </g>
</svg>