<?xml version="1.0" encoding="UTF-8" standalone="no"?>
<svg width="242px" height="222px" viewBox="0 0 242 222" version="1.1" xmlns="http://www.w3.org/2000/svg" xmlns:xlink="http://www.w3.org/1999/xlink" xmlns:sketch="http://www.bohemiancoding.com/sketch/ns">
    <!-- Generator: Sketch 3.0.3 (7891) - http://www.bohemiancoding.com/sketch -->
    <title>adv_messages</title>
    <desc>Created with Sketch.</desc>
    <defs></defs>
    <g id="Page-1" stroke="none" stroke-width="1" fill="none" fill-rule="evenodd" sketch:type="MSPage">
        <path d="M213.25,88.7400019 C213.6,87.3500019 213.73,85.8400019 213.59,84.2300019 C209.37,35.7600019 163.24,1.89112922e-06 106.96,1.89112922e-06 C47.57,-0.00999810887 0,39.6400019 0,91.4600019 C0,115.030002 10,136.760002 27.72,153.370002 C31.03,156.440002 33.94,162.480002 33.94,166.210002 L35.6,194.040002 C35.61,196.470002 35.92,198.530002 36.69,200.410002 C37.97,203.540002 40.51,205.880002 43.95,206.590002 C48.04,207.430002 51.12,206.140002 55.81,203.090002 L81.74,186.170002 C85.3,183.850002 92.15,182.140002 96.17,182.460002 L96.21,182.460002 C97.67,182.610002 99.63,182.700002 102.24,182.790002 C103.77,182.840002 105.26,182.630002 106.63,182.160002 C120.46,197.060002 141.69,206.380002 165.71,206.380002 C168.2,206.380002 170.64,206.280002 173.01,206.080002 C175.12,206.060002 177.84,206.820002 178.88,207.500002 L195.79,218.590002 C198.58,220.440002 201.67,221.460002 204.87,221.460002 C212.96,221.460002 219.33,214.900002 219.36,205.760002 L219.36,189.400002 C219.36,188.760002 220.52,186.310002 221.54,185.350002 C234.35,173.330002 241.47,157.340002 241.47,140.430002 C241.47,119.170002 230.51,100.680002 213.25,88.7400019 L213.25,88.7400019 Z M95.01,164.620002 C95.29,165.250002 95.67,166.430002 95.58,166.440002 C88.15,166.370002 78.98,168.870002 73,172.760002 L51.2,186.990002 L49.93,165.810002 C49.75,157.400002 44.9,147.490002 38.63,141.670002 C24.08,128.030002 16,110.470002 16,91.4600019 C16,49.1900019 55.83,15.9900019 106.96,16.0000019 C153.21,16.0000019 190.58,43.3100019 196.94,80.1600019 C187.44,76.5000019 176.88,74.4900019 165.71,74.4900019 C123.54,74.4900019 89.94,103.210002 89.94,140.430002 C89.94,149.030002 91.73,157.180002 95.01,164.620002 Z M203.36,189.400002 L203.36,204.430002 L187.66,194.130002 C183.93,191.670002 178.14,190.060002 173.39,190.060002 C172.95,190.060002 172.64,190.070002 172.1,190.100002 C169.9,190.290002 167.83,190.380002 165.71,190.380002 C131.87,190.380002 105.94,168.210002 105.94,140.430002 C105.94,112.650002 131.87,90.4900019 165.71,90.4900019 C199.55,90.4900019 225.47,112.650002 225.47,140.430002 C225.47,152.850002 220.22,164.650002 210.56,173.710002 C206.47,177.580002 203.36,184.130002 203.36,189.400002 Z" id="adv_messages" fill="#1A1918" sketch:type="MSShapeGroup"></path>
    </g>
</svg>