<?xml version="1.0" encoding="UTF-8" standalone="no"?>
<svg width="243px" height="251px" viewBox="0 0 243 251" version="1.1" xmlns="http://www.w3.org/2000/svg" xmlns:xlink="http://www.w3.org/1999/xlink" xmlns:sketch="http://www.bohemiancoding.com/sketch/ns">
    <!-- Generator: Sketch 3.0.3 (7892) - http://www.bohemiancoding.com/sketch -->
    <title>adv_wifi</title>
    <desc>Created with Sketch.</desc>
    <defs></defs>
    <g id="Page-1" stroke="none" stroke-width="1" fill="none" fill-rule="evenodd" sketch:type="MSPage">
        <g id="Group" sketch:type="MSLayerGroup" transform="translate(-21.000000, -1501.000000)" fill="#000000">
            <g id="Item-5" transform="translate(21.000000, 1501.000000)" sketch:type="MSShapeGroup">
                <g id="adv_wifi" transform="translate(-60.000000, -60.000000)">
                    <path d="M130.715707,156.882531 C127.671938,156.882531 124.628169,155.711815 122.307097,153.35974 C117.686054,148.682198 117.686054,141.104472 122.338748,136.42693 C153.372532,105.216705 203.845293,105.200741 234.847426,136.442894 C239.484294,141.120437 239.484294,148.698162 234.847426,153.375705 C230.210558,158.053247 222.698725,158.053247 218.061857,153.375705 C196.33346,131.456708 160.91074,131.440744 139.087391,153.391669 C136.776869,155.711815 133.743651,156.882531 130.715707,156.882531 Z M99.9773317,116.42365 C96.9335627,116.42365 93.9056191,115.252934 91.5845473,112.916824 C86.947679,108.239281 86.947679,100.661555 91.5845473,95.9840128 C114.795265,72.5696926 145.644418,59.6758521 178.471758,59.6758521 C211.283272,59.6758521 242.111325,72.5537283 265.295667,95.9361199 C269.932535,100.613663 269.932535,108.191388 265.295667,112.868931 C260.658799,117.546473 253.146967,117.546473 248.510098,112.868931 C209.874804,73.8947302 147.005411,73.9426232 108.370116,112.916824 C106.049044,115.252934 103.021101,116.42365 99.9773317,116.42365 Z" id="Shape-4"></path>
                    <path d="M105.948816,268.459024 C102.42618,268.459024 99.0793818,267.316676 96.6235003,265.317568 C94.1676188,263.170906 92.7609087,260.45783 92.7609087,257.749514 C92.7609087,254.884125 94.1676188,252.033016 96.6235003,250.171941 C101.365286,246.173724 110.344786,246.173724 115.256549,250.171941 C117.730014,252.033016 119.136724,254.884125 119.136724,257.749514 C119.136724,260.45307 117.730014,263.170906 115.256549,265.170015 C112.800667,267.316676 109.453869,268.459024 105.948816,268.459024 L105.948816,268.459024 Z" id="Path-2"></path>
                    <path d="M303.077821,228.471076 C303.077821,210.762852 288.31617,197.538789 271.329916,197.538789 L91.4191541,197.538789 C74.4328999,197.538789 59.6712494,210.762852 59.6712494,228.471076 L59.6712494,280.552832 C59.6712494,298.261055 74.4328999,311.485118 91.4191541,311.485118 L271.334222,311.485118 C288.32619,311.485118 303.093737,298.251711 303.077811,280.532656 L303.077821,228.471076 Z M271.334222,294.485118 L91.4191541,294.485118 C83.2135928,294.485118 76.6712494,288.273792 76.6712494,280.552832 L76.6712494,228.471076 C76.6712494,220.750115 83.2135928,214.538789 91.4191541,214.538789 L271.329916,214.538789 C279.535477,214.538789 286.077821,220.750115 286.077821,228.471076 L286.077811,280.532653 C286.084759,288.2704 279.542993,294.485118 271.334222,294.485118 Z" id="Path-3"></path>
                </g>
            </g>
        </g>
    </g>
</svg>