<?xml version="1.0" encoding="UTF-8" standalone="no"?>
<svg width="315px" height="318px" viewBox="0 0 315 318" version="1.1" xmlns="http://www.w3.org/2000/svg" xmlns:xlink="http://www.w3.org/1999/xlink" xmlns:sketch="http://www.bohemiancoding.com/sketch/ns">
    <!-- Generator: Sketch 3.0.3 (7892) - http://www.bohemiancoding.com/sketch -->
    <title>adv_check</title>
    <desc>Created with Sketch.</desc>
    <defs></defs>
    <g id="Page-1" stroke="none" stroke-width="1" fill="none" fill-rule="evenodd" sketch:type="MSPage">
        <g id="Group" sketch:type="MSLayerGroup" transform="translate(15.000000, -2001.000000)">
            <g id="Item-6-+-Group-7" transform="translate(4.000000, 2021.000000)" sketch:type="MSShapeGroup">
                <g id="adv_check">
                    <path d="M159.511057,66.3881726 C157.351195,66.3881726 155.31332,65.5247591 153.799264,64.0137854 C152.295972,62.4956166 151.438485,60.4522046 151.438485,58.2936707 C151.438485,56.1279418 152.295972,54.0845297 153.695218,52.5663609 C156.8202,49.5444135 162.097867,49.5444135 165.215674,52.5663609 C166.722554,54.0845297 167.583628,56.1279418 167.583628,58.2936707 C167.583628,60.4522046 166.722554,62.4956166 165.215674,64.0137854 C163.701618,65.5211616 161.556108,66.3881726 159.511057,66.3881726 L159.511057,66.3881726 Z" id="Shape" fill="#000000"></path>
                    <path d="M178.562325,85.4840021 C176.513686,85.4840021 174.357413,84.6205886 172.850533,83.213944 C171.336477,81.6058363 170.489754,79.5408389 170.489754,77.3895002 C170.489754,75.3460881 171.336477,73.2846883 172.850533,71.6765806 C175.975515,68.6474381 181.253182,68.7553648 184.259767,71.6765806 C185.773822,73.2846883 186.634897,75.3460881 186.634897,77.3895002 C186.634897,79.548034 185.773822,81.6058363 184.259767,83.1096149 C182.756475,84.6205886 180.707835,85.4840021 178.562325,85.4840021 L178.562325,85.4840021 Z" id="Shape" fill="#000000"></path>
                    <path d="M197.714053,104.694953 C195.554191,104.694953 193.519903,103.83154 192.016611,102.327761 C190.502555,100.809592 189.641481,98.6582537 189.641481,96.6004514 C189.641481,94.4419176 190.502555,92.3985055 191.901801,90.8803367 C195.023195,87.8655844 200.300863,87.7468651 203.422258,90.7760076 C204.92555,92.3985055 205.786624,94.4455151 205.786624,96.6004514 C205.786624,98.6582537 204.92555,100.705263 203.422258,102.219835 C201.807743,103.83154 199.759104,104.694953 197.714053,104.694953 L197.714053,104.694953 Z" id="Shape" fill="#000000"></path>
                    <path d="M216.776085,123.808771 C214.616223,123.808771 212.571172,122.945357 211.064292,121.427188 C209.561,119.916215 208.703513,117.865607 208.703513,115.714269 C208.703513,113.54854 209.561,111.497933 211.064292,109.986959 C213.96683,106.965011 219.466942,106.965011 222.473526,109.986959 C223.987582,111.497933 224.848656,113.656466 224.848656,115.714269 C224.848656,117.865607 223.987582,119.916215 222.473526,121.427188 C220.963058,122.941759 218.925182,123.808771 216.776085,123.808771 L216.776085,123.808771 Z" id="Shape" fill="#000000"></path>
                    <path d="M138.945733,174.588279 C134.489673,174.588279 130.873161,170.961943 130.873161,166.493777 L130.873161,145.858194 L110.838833,145.858194 C106.382773,145.858194 102.766261,142.231857 102.766261,137.763692 C102.766261,133.295527 106.382773,129.66919 110.838833,129.66919 L138.945733,129.66919 C143.398204,129.66919 147.018304,133.295527 147.018304,137.763692 L147.018304,166.493777 C147.018304,170.961943 143.398204,174.588279 138.945733,174.588279 L138.945733,174.588279 Z" id="Shape" fill="#000000"></path>
                    <path d="M99.3399032,185.589607 C97.2697371,185.589607 95.2103345,184.790949 93.6316983,183.21522 C90.4780137,180.052968 90.4780137,174.930047 93.6316983,171.767795 L133.237528,132.029187 C136.391212,128.866935 141.500253,128.866935 144.653938,132.029187 C147.807622,135.195037 147.807622,140.317957 144.653938,143.480209 L105.048108,183.21522 C103.469472,184.798144 101.410069,185.589607 99.3399032,185.589607 L99.3399032,185.589607 Z" id="Shape" fill="#000000"></path>
                    <path d="M11.1765218,202.034487 L75.5511449,266.496681 C90.995545,281.962091 116.070136,281.943321 131.504801,266.487659 L265.814469,131.995285 C281.264476,116.52426 281.266284,91.4293264 265.823478,75.9655133 L201.448855,11.5033189 C186.004455,-3.96209081 160.929864,-3.94332055 145.495199,11.5123406 L11.1855312,146.004715 C-4.26447634,161.47574 -4.26628392,186.570674 11.1765218,202.034487 Z" id="Rectangle-23" stroke="#000000" stroke-width="17"></path>
                </g>
            </g>
        </g>
    </g>
</svg>