<?xml version="1.0" encoding="UTF-8" standalone="no"?>
<svg width="166px" height="261px" viewBox="0 0 166 261" version="1.1" xmlns="http://www.w3.org/2000/svg" xmlns:xlink="http://www.w3.org/1999/xlink" xmlns:sketch="http://www.bohemiancoding.com/sketch/ns">
    <!-- Generator: Sketch 3.0.3 (7891) - http://www.bohemiancoding.com/sketch -->
    <title>adv_economy</title>
    <desc>Created with Sketch.</desc>
    <defs></defs>
    <g id="Page-1" stroke="none" stroke-width="1" fill="none" fill-rule="evenodd" sketch:type="MSPage">
        <path d="M132.147857,78.3672316 L132.147857,78.3084746 C134.875,73.5491525 136.357143,68.1435028 136.357143,62.5028249 C136.357143,43.8180791 120.231429,28.7762712 101.26,30.0101695 C99.7185714,13.440678 85.6085714,0.455367232 68.475,0.455367232 C50.3335714,0.455367232 35.5714286,15.0858757 35.5714286,33.1242938 C35.5714286,51.1039548 50.3335714,65.7344633 68.475,65.7344633 C69.1864286,65.7344633 69.9571429,65.7344633 70.6685714,65.6169492 C70.8464286,67.7322034 71.2614286,69.8474576 71.9135714,71.9039548 C35.5121429,73.9016949 0,85.9468927 0,109.80226 L0,221.440678 C0,247.646328 43.0414286,259.632768 83,259.632768 C122.958571,259.632768 166,247.646328 166,221.440678 L166,109.80226 C166,94.7016949 151.830714,84.360452 132.147857,78.3672316 L132.147857,78.3672316 Z M68.475,53.9830508 C56.855,53.9830508 47.4285714,44.640678 47.4285714,33.1242938 C47.4285714,21.6079096 56.855,12.2067797 68.475,12.2067797 C80.095,12.2067797 89.5807143,21.6079096 89.5807143,33.1242938 C89.5807143,44.640678 80.095,53.9830508 68.475,53.9830508 L68.475,53.9830508 Z M100.192857,41.879096 C113.472857,39.8813559 124.5,49.9288136 124.5,62.5028249 C124.5,66.439548 123.373571,70.2587571 121.239286,73.6079096 C119.223571,76.780791 116.377857,79.3661017 112.939286,81.0700565 C105.765714,84.7717514 96.8135714,83.8903955 90.3514286,78.7785311 C87.2685714,76.4282486 84.9564286,73.2553672 83.6521429,69.6711864 C82.7628571,67.379661 82.3478571,65.0293785 82.3478571,62.679096 C91.0035714,58.7423729 97.6435714,51.1039548 100.192857,41.879096 L100.192857,41.879096 Z M154.142857,221.440678 C154.142857,236.012429 122.306429,247.881356 83,247.881356 C43.6935714,247.881356 11.8571429,236.012429 11.8571429,221.440678 L11.8571429,199.465537 C24.1292857,211.980791 53.6535714,218.502825 83,218.502825 C112.346429,218.502825 141.870714,211.980791 154.142857,199.465537 L154.142857,221.440678 L154.142857,221.440678 Z M154.142857,186.362712 C154.142857,200.875706 122.306429,212.627119 83,212.627119 C43.6935714,212.627119 11.8571429,200.875706 11.8571429,186.362712 L11.8571429,164.211299 C24.1292857,176.726554 53.6535714,183.248588 83,183.248588 C112.346429,183.248588 141.870714,176.726554 154.142857,164.211299 L154.142857,186.362712 L154.142857,186.362712 Z M154.142857,151.108475 C154.142857,165.621469 122.306429,177.372881 83,177.372881 C43.6935714,177.372881 11.8571429,165.621469 11.8571429,151.108475 L11.8571429,130.719774 C27.39,142.471186 55.9064286,147.99435 83,147.99435 C110.093571,147.99435 138.61,142.471186 154.142857,130.719774 L154.142857,151.108475 L154.142857,151.108475 Z M83,136.242938 C43.6935714,136.242938 11.8571429,124.374011 11.8571429,109.80226 C11.8571429,95.759322 41.1442857,84.360452 78.1978571,83.420339 C79.6207143,85.0655367 81.2214286,86.6519774 83,88.0033898 C88.8692857,92.6451977 95.9835714,95.1129944 103.453571,95.1129944 C108.611429,95.1129944 113.769286,93.879096 118.334286,91.5288136 C120.290714,90.5887006 122.01,89.4135593 123.729286,88.120904 L123.788571,88.120904 C142.107857,92.9389831 154.142857,100.812429 154.142857,109.80226 C154.142857,124.374011 122.306429,136.242938 83,136.242938 L83,136.242938 Z M118.571429,112.740113 L47.4285714,112.740113 C44.156,112.740113 41.5,110.113672 41.5,106.864407 C41.5,103.615141 44.156,100.988701 47.4285714,100.988701 L118.571429,100.988701 C121.844,100.988701 124.5,103.615141 124.5,106.864407 C124.5,110.113672 121.844,112.740113 118.571429,112.740113" id="adv_economy" fill="#2D2E2B" sketch:type="MSShapeGroup"></path>
    </g>
</svg>