<?xml version="1.0" encoding="UTF-8" standalone="no"?>
<svg width="253px" height="135px" viewBox="0 0 253 135" version="1.1" xmlns="http://www.w3.org/2000/svg" xmlns:xlink="http://www.w3.org/1999/xlink" xmlns:sketch="http://www.bohemiancoding.com/sketch/ns">
    <!-- Generator: Sketch 3.0.3 (7891) - http://www.bohemiancoding.com/sketch -->
    <title>adv_corporate</title>
    <desc>Created with Sketch.</desc>
    <defs></defs>
    <g id="Page-1" stroke="none" stroke-width="1" fill="none" fill-rule="evenodd" sketch:type="MSPage">
        <path d="M170.603804,91.1628383 C170.169252,91.0616096 169.839016,90.9845869 169.51834,90.90963 C159.143847,88.4846245 154.315056,86.957272 151.323788,84.9231993 C149.196264,83.4764764 149.02025,82.7171113 150.859505,79.21487 C162.770381,56.5333299 165.762111,36.8543638 160.050807,22.1032133 C154.598334,8.02057257 141.674913,0 126.000276,0 C110.137668,0 97.1314209,8.22038137 91.7233686,22.4965959 C86.0982047,37.3459431 89.1961195,56.9953875 101.173471,79.2747979 C103.05651,82.777562 102.877635,83.5093937 100.609256,85.0059622 C97.5069124,87.0527408 92.7994192,88.5086709 82.088409,91.0020235 C81.9697211,91.0296521 80.6813521,91.3293008 80.300527,91.4180431 C70.6572197,93.6643921 64.6099821,97.7666225 61.5308546,104.543697 C59.2635987,109.533865 58.9478331,113.464171 59.0118581,124.81707 C59.0203529,126.323368 59.0234935,127.089151 59.0234935,128 L59.0234935,135 L66.0234935,135 L185.97648,135 L192.97648,135 L192.97648,128 C192.97648,127.088803 192.979624,126.322715 192.988128,124.815904 C193.052203,113.463154 192.736459,109.533063 190.469141,104.543034 C187.389978,97.7662545 181.342762,93.6643184 171.698861,91.4179069 C171.150103,91.290067 171.150103,91.290067 170.603804,91.1628383 Z M177.723166,110.334419 C178.798231,112.700475 178.805877,112.389078 178.754883,121.424316 C178.753614,121.64919 178.97648,121 178.97648,121 L72.9995117,121.121582 C72.8411336,112.008879 73.201816,112.701156 74.2769494,110.334817 C75.3326295,108.011294 77.7150695,106.395132 83.4772389,105.05287 C83.855128,104.964812 85.141239,104.665688 85.2625205,104.637456 C97.8126947,101.715975 103.255136,100.032741 108.319031,96.6918239 C116.672681,91.1804832 118.796782,82.4901582 113.504539,72.6457139 C103.281692,53.6299063 100.818608,38.0070648 104.815481,27.4560918 C108.077218,18.8457346 115.744116,14 126.000276,14 C136.126956,14 143.726919,18.7167118 146.995205,27.15804 C151.043913,37.6150371 148.661025,53.2891674 138.464701,72.7057363 C133.363343,82.4195539 135.350195,90.9912915 143.451421,96.5001523 C148.440517,99.8927542 154.101965,101.683477 166.331779,104.542158 C166.656488,104.618058 166.989857,104.695811 167.427551,104.797772 C167.975106,104.925293 167.975106,104.925293 168.522023,105.052704 C174.285112,106.395135 176.667564,108.011196 177.723166,110.334419 Z M251.98151,127.83399 L205.416267,127.83399 C205.413937,76.980087 180.082286,101.15086 180.082286,56.5872029 C180.082286,40.5006329 190.577626,31.7705121 204.05316,31.7705121 C223.964422,31.7705121 237.82151,50.8470097 218.966364,86.518628 C212.771801,98.2380918 225.562286,101.022261 239.303451,104.203333 C253.038209,107.382068 251.98151,114.649082 251.98151,127.83399 L251.98151,127.83399 Z M12.6968495,104.203918 C26.4380146,101.02343 39.2285,98.2386763 33.0339369,86.5192126 C14.1787913,50.8475942 28.0358787,31.7710966 47.9471408,31.7710966 C61.4232573,31.7710966 71.9180146,40.5018019 71.9180146,56.5877874 C71.9180146,101.15086 46.5863641,76.9806715 46.584034,127.834575 L0.0187912849,127.834575 C0.0187912849,114.649082 -1.03790774,107.382068 12.6968495,104.203918 L12.6968495,104.203918 Z" id="adv_corporate" fill="#000000" sketch:type="MSShapeGroup"></path>
    </g>
</svg>