<?xml version="1.0" encoding="UTF-8" standalone="no"?>
<svg width="241px" height="181px" viewBox="0 0 241 181" version="1.1" xmlns="http://www.w3.org/2000/svg" xmlns:xlink="http://www.w3.org/1999/xlink" xmlns:sketch="http://www.bohemiancoding.com/sketch/ns">
    <!-- Generator: Sketch 3.0.3 (7891) - http://www.bohemiancoding.com/sketch -->
    <title>adv_card</title>
    <desc>Created with Sketch.</desc>
    <defs></defs>
    <g id="Page-1" stroke="none" stroke-width="1" fill="none" fill-rule="evenodd" sketch:type="MSPage">
        <path d="M18.2454041,49.6994579 L18.2454041,40.641232 C18.2454041,28.4940731 28.0215996,18.6069037 40.081148,18.6069037 L199.547681,18.6069037 C211.585656,18.6069037 221.383425,28.4720085 221.383425,40.641232 L221.383425,49.6994579 L18.2454041,49.6994579 Z M18.2454041,93.2290338 L18.2454041,139.598325 C18.2454041,151.767548 28.0431731,161.632653 40.081148,161.632653 L199.547681,161.632653 C211.607229,161.632653 221.383425,151.745484 221.383425,139.598325 L221.383425,93.2290338 L18.2454041,93.2290338 Z M0.0635859272,40.641232 L0.0635859272,139.598325 C0.0635859272,161.911371 18.001424,180 40.081148,180 L199.547681,180 C221.639565,180 239.565243,161.898786 239.565243,139.598325 L239.565243,40.641232 C239.565243,18.3281854 221.627405,0.23955676 199.547681,0.23955676 L40.081148,0.23955676 C17.9892637,0.23955676 0.0635859272,18.3407709 0.0635859272,40.641232 Z" id="adv_card" fill="#000000" sketch:type="MSShapeGroup"></path>
    </g>
</svg>