<?xml version="1.0" encoding="UTF-8" standalone="no"?>
<svg width="252px" height="210px" viewBox="0 0 252 210" version="1.1" xmlns="http://www.w3.org/2000/svg" xmlns:xlink="http://www.w3.org/1999/xlink" xmlns:sketch="http://www.bohemiancoding.com/sketch/ns">
    <!-- Generator: Sketch 3.0.3 (7891) - http://www.bohemiancoding.com/sketch -->
    <title>adv_nosmoking</title>
    <desc>Created with Sketch.</desc>
    <defs></defs>
    <g id="Page-1" stroke="none" stroke-width="1" fill="none" fill-rule="evenodd" sketch:type="MSPage">
        <g id="adv_nosmoking" sketch:type="MSLayerGroup" fill="#000000">
            <path d="M38.01524,56.5667756 L38.01524,59.3879495 L25.06802,59.3879495 L25.06802,56.5667756 C25.06802,45.2871268 28.335005,36.6343492 34.773405,30.8456435 C40.487485,25.7054546 48.198475,23.2047539 58.333925,23.2047539 L63.91974,23.2047539 C76.617975,23.2047539 84.238425,18.4607405 84.238425,2.82568366 L84.238425,0.00703316072 L97.1781,0.00703316072 L97.1781,2.82316025 C97.1781,14.0977623 93.916145,22.7555867 87.477745,28.5442924 C81.75612,33.6895281 74.05519,36.185182 63.91974,36.185182 L58.333925,36.185182 C45.63569,36.1877054 38.01524,40.9317188 38.01524,56.5667756 L38.01524,56.5667756 Z M25.266705,72.3683776 C17.027565,72.3683776 10.584135,74.9094529 6.11498,79.9108542 C2.17146,84.3293475 0.25,90.0776786 0.25,97.4788442 L0.25,99.1392489 C0.25,106.547985 2.16643,112.291269 6.11498,116.704715 C10.584135,121.70864 17.027565,124.244669 25.266705,124.249715 L251.75,124.252239 L251.75,72.3683776 L25.266705,72.3683776 Z M45.64575,111.264241 L25.266705,111.264241 C15.99893,111.264241 13.18716,106.717053 13.19219,99.1417723 L13.19219,97.4813676 C13.19219,89.9060867 16.001445,85.3614228 25.266705,85.3614228 L45.64575,85.3614228 L45.64575,111.264241 L45.64575,111.264241 Z M58.590455,85.3588994 L242.000002,85.3588994 L242.000001,111.26424 L58.590455,111.264241 L58.590455,85.3588994 Z" id="Shape" sketch:type="MSShapeGroup"></path>
            <path d="M30.3022009,197.96254 C27.5659331,200.698807 27.565933,205.135174 30.3022008,207.871442 C33.0384685,210.60771 37.4748352,210.60771 40.211103,207.871442 L235.197799,12.8847462 C237.934067,10.1484784 237.934067,5.71211172 235.197799,2.97584386 C232.461531,0.239576 228.025165,0.239575955 225.288897,2.97584376 L30.3022009,197.96254 Z" id="Path" sketch:type="MSShapeGroup"></path>
        </g>
    </g>
</svg>