<?xml version="1.0" encoding="UTF-8" standalone="no"?>
<svg width="278px" height="147px" viewBox="0 0 278 147" version="1.1" xmlns="http://www.w3.org/2000/svg" xmlns:xlink="http://www.w3.org/1999/xlink" xmlns:sketch="http://www.bohemiancoding.com/sketch/ns">
    <!-- Generator: Sketch 3.0.3 (7891) - http://www.bohemiancoding.com/sketch -->
    <title>adv_bowtie</title>
    <desc>Created with Sketch.</desc>
    <defs></defs>
    <g id="Page-1" stroke="none" stroke-width="1" fill="none" fill-rule="evenodd" sketch:type="MSPage">
        <path d="M108.681159,81.004 L108.681159,89.1333987 C106.447662,92.5280154 98.7831657,102.27276 79.6188406,111.664 C60.3568841,121.104 36.1648551,126.28 25.2007246,128.288 C22.0282609,120.084 16.5561594,101.76 16.5561594,73.008 C16.5561594,44.512 22.0681159,26.004 25.2365942,17.72 C36.2007246,19.728 60.3369565,24.888 79.6228261,34.34 C82.6278986,35.812 85.5293478,37.388 88.2514493,39.02 C92.0376812,41.284 96.9278986,40.048 99.1836957,36.252 C101.439493,32.456 100.203986,27.544 96.4257246,25.28 C93.325,23.424 90.025,21.636 86.6213768,19.968 C58.7028986,6.284 23.0764493,1.1 21.573913,0.884 C18.3057971,0.44 15.0974638,2.016 13.4913043,4.912 C12.9692029,5.856 0.622101449,28.592 0.622101449,73.008 C0.622101449,117.416 12.9652174,140.152 13.4913043,141.096 C14.9101449,143.652 17.5923913,145.2 20.45,145.2 C20.8246377,145.2 21.1952899,145.172 21.5699275,145.124 C23.0724638,144.912 58.7028986,139.724 86.6173913,126.04 C97.7284004,120.59604 105.697121,114.936014 111.340108,109.935243 L111.340108,109.935243 C111.497198,110.076009 111.660469,110.211073 111.82971,110.34 C112.742391,111.04 121.283333,117.176 138.492754,117.176 C155.702174,117.176 164.243116,111.04 165.163768,110.34 C165.331901,110.211917 165.494142,110.077778 165.650283,109.938007 L165.650283,109.938007 C171.29275,114.937351 179.258941,120.594891 190.36413,126.036 C218.278623,139.716 253.917029,144.904 255.419565,145.12 C255.794203,145.172 256.168841,145.2 256.543478,145.2 C259.405072,145.2 262.083333,143.652 263.502174,141.088 C264.028261,140.144 276.367391,117.408 276.367391,73 C276.367391,28.588 264.028261,5.848 263.502174,4.904 C261.896014,2.008 258.691667,0.44 255.419565,0.876 C253.917029,1.092 218.282609,6.276 190.36413,19.96 C178.517904,25.7658312 170.243576,31.8165927 164.551534,37.0517321 C164.143628,36.7968876 163.708938,36.5767098 163.250725,36.396 C162.788406,36.216 151.712681,31.916 138.496739,31.916 C125.284783,31.916 114.209058,36.212 113.742754,36.396 C110.689855,37.596 108.681159,40.552 108.681159,43.844 L108.681159,65.004 L79.3438406,65.004 C74.9438406,65.004 71.3728261,68.588 71.3728261,73.004 C71.3728261,77.42 74.9438406,81.004 79.3438406,81.004 L108.681159,81.004 Z M168.312319,81.004 L168.312319,89.1659874 L168.312319,89.1659874 C170.492588,92.4697182 178.148953,102.242597 197.366667,111.66 C216.608696,121.088 240.780797,126.268 251.756884,128.28 C254.925362,119.996 260.429348,101.492 260.429348,73.004 C260.429348,44.524 254.929348,26.024 251.752899,17.72 C240.772826,19.732 216.60471,24.908 197.366667,34.336 C178.166612,43.746716 170.496231,53.5270803 168.312319,56.8337647 L168.312319,65.004 L199.606522,65.004 C204.006522,65.004 207.577536,68.588 207.577536,73.004 C207.577536,77.42 204.006522,81.004 199.606522,81.004 L168.312319,81.004 L168.312319,81.004 Z" id="adv_bowtie" fill="#000000" sketch:type="MSShapeGroup"></path>
    </g>
</svg>