<?xml version="1.0" encoding="UTF-8" standalone="no"?>
<svg width="68px" height="67px" viewBox="0 0 68 67" version="1.1" xmlns="http://www.w3.org/2000/svg" xmlns:xlink="http://www.w3.org/1999/xlink" xmlns:sketch="http://www.bohemiancoding.com/sketch/ns">
    <!-- Generator: Sketch 3.0.3 (7891) - http://www.bohemiancoding.com/sketch -->
    <title>bill_wh</title>
    <desc>Created with Sketch.</desc>
    <defs></defs>
    <g id="Page-1" stroke="none" stroke-width="1" fill="none" fill-rule="evenodd" sketch:type="MSPage">
        <g id="Index" sketch:type="MSArtboardGroup" transform="translate(-880.000000, -701.000000)" fill="#FFFFFF">
            <g id="HEAD-2" sketch:type="MSLayerGroup" transform="translate(1.000000, -1.000000)">
                <g id="Group" transform="translate(103.000000, 702.000000)" sketch:type="MSShapeGroup">
                    <g id="feature_5" transform="translate(777.000000, 0.000000)">
                        <g id="Group-2">
                            <path d="M30.7103086,37.2944283 L30.7103086,39.4498243 C30.7103086,40.4980208 31.5589486,41.3487309 32.6045943,41.3487309 C33.6493981,41.3487309 34.49888,40.4980208 34.49888,39.4498243 L34.49888,32.7365707 C34.5062259,32.2411403 34.3212875,31.7432751 33.9440648,31.364702 C33.5480677,30.9677389 33.0206874,30.7831933 32.5025319,30.8110652 L26.0091124,30.8110652 C24.9634667,30.8110652 24.1148267,31.6617754 24.1148267,32.7099718 C24.1148267,33.7581683 24.9634667,34.6088784 26.0091124,34.6088784 L28.0308928,34.6088784 L21.9713371,40.6870675 C21.2313029,41.428907 21.2313029,42.6307039 21.9713371,43.3725434 C22.3417752,43.7421972 22.8250286,43.929556 23.3108076,43.929556 C23.7965867,43.929556 24.27984,43.7438851 24.6502781,43.3725434 L30.7103086,37.2944283 Z M2.62264951,47.7873957 L17.728608,62.9097203 C21.3527452,66.537784 27.2366745,66.5333806 30.8585273,62.9076039 L62.3752364,31.3567489 C66.0006894,27.7273679 66.0011136,21.8402935 62.3773505,18.2126043 L47.271392,3.09027968 C43.6472548,-0.537784 37.7633255,-0.533380644 34.1414727,3.0923961 L2.62476364,34.6432511 C-1.00068939,38.2726321 -1.00111356,44.1597065 2.62264951,47.7873957 Z M5.24904613,45.1581535 L20.3550046,60.2804782 C22.5296291,62.4574587 26.061807,62.4510368 28.2321306,60.2783618 L59.7488397,28.7275067 C61.9246318,26.5493573 61.9233404,23.0165866 59.7509539,20.8418465 L44.6449954,5.7195218 C42.4703709,3.54254128 38.938193,3.54896324 36.7678694,5.72163822 L5.25116026,37.2724933 C3.07536817,39.4506427 3.07665961,42.9834134 5.24904613,45.1581535 Z M37.4303924,15.9658354 C36.9235657,15.9658354 36.4453638,15.7632854 36.09008,15.4088228 C35.7373219,15.0526723 35.5361067,14.5733039 35.5361067,14.0669288 C35.5361067,13.5588658 35.7373219,13.0794974 36.0656648,12.7233469 C36.7989638,12.0144218 38.0374057,12.0144218 38.769021,12.7233469 C39.122621,13.0794974 39.3246781,13.5588658 39.3246781,14.0669288 C39.3246781,14.5733039 39.122621,15.0526723 38.769021,15.4088228 C38.4137371,15.7624414 37.9102781,15.9658354 37.4303924,15.9658354 Z M41.9009067,20.4455671 C41.420179,20.4455671 40.9141943,20.243017 40.5605943,19.9130293 C40.2053105,19.5357798 40.006621,19.0513477 40.006621,18.5466605 C40.006621,18.0672921 40.2053105,17.5837039 40.5605943,17.2064544 C41.2938933,16.4958414 42.5323352,16.5211601 43.2378514,17.2064544 C43.5931352,17.5837039 43.7951924,18.0672921 43.7951924,18.5466605 C43.7951924,19.0530356 43.5931352,19.5357798 43.2378514,19.8885545 C42.8850933,20.243017 42.4043657,20.4455671 41.9009067,20.4455671 Z M46.3949943,24.9523054 C45.8881676,24.9523054 45.4108076,24.7497554 45.0580495,24.3969807 C44.7027657,24.0408302 44.5007086,23.5361431 44.5007086,23.0533988 C44.5007086,22.5470237 44.7027657,22.0676553 45.0311086,21.7115048 C45.7635657,21.0042676 47.0020076,20.976417 47.7344648,21.68703 C48.0872229,22.0676553 48.28928,22.5478677 48.28928,23.0533988 C48.28928,23.5361431 48.0872229,24.0163554 47.7344648,24.371662 C47.3556076,24.7497554 46.87488,24.9523054 46.3949943,24.9523054 Z M50.8680343,29.4362569 C50.3612076,29.4362569 49.8813219,29.2337068 49.5277219,28.8775563 C49.1749638,28.5230938 48.9737486,28.0420374 48.9737486,27.5373503 C48.9737486,27.0292872 49.1749638,26.5482309 49.5277219,26.1937683 C50.2088229,25.4848432 51.4994629,25.4848432 52.204979,26.1937683 C52.5602629,26.5482309 52.76232,27.054606 52.76232,27.5373503 C52.76232,28.0420374 52.5602629,28.5230938 52.204979,28.8775563 C51.8505371,29.2328629 51.3723352,29.4362569 50.8680343,29.4362569 Z" id="bill_wh"></path>
                        </g>
                    </g>
                </g>
            </g>
        </g>
    </g>
</svg>