<?xml version="1.0" encoding="UTF-8" standalone="no"?>
<svg width="50px" height="62px" viewBox="0 0 50 62" version="1.1" xmlns="http://www.w3.org/2000/svg" xmlns:xlink="http://www.w3.org/1999/xlink" xmlns:sketch="http://www.bohemiancoding.com/sketch/ns">
    <!-- Generator: Sketch 3.0.3 (7892) - http://www.bohemiancoding.com/sketch -->
    <title>callusicon</title>
    <desc>Created with Sketch.</desc>
    <defs></defs>
    <g id="Page-1" stroke="none" stroke-width="1" fill="none" fill-rule="evenodd" sketch:type="MSPage">
        <g id="Index" sketch:type="MSArtboardGroup" transform="translate(-658.000000, -3831.000000)">
            <g id="Group" sketch:type="MSLayerGroup" transform="translate(357.000000, 3816.000000)">
                <g id="callusicon" transform="translate(251.000000, 0.000000)" sketch:type="MSShapeGroup">
                    <path d="M91,65 C91,67.209 89.209,69 87,69 L65,69 C62.791,69 61,67.209 61,65 L61,27 C61,24.791 62.791,23 65,23 L87,23 C89.209,23 91,24.791 91,27 L91,65 L91,65 Z" id="Path" stroke="#1B1A19" stroke-width="2" stroke-linecap="round" stroke-linejoin="round"></path>
                    <path d="M91,31 L61,31 L91,31 Z" id="Path" stroke="#1B1A19" stroke-width="2" stroke-linecap="round" stroke-linejoin="round"></path>
                    <path d="M91,61 L61,61 L91,61 Z" id="Path" stroke="#1B1A19" stroke-width="2" stroke-linecap="round" stroke-linejoin="round"></path>
                    <path d="M76,63 C74.896,63 74,63.895 74,65 C74,66.104 74.896,67 76,67 C77.105,67 78,66.104 78,65 C78,63.895 77.105,63 76,63" id="Fill-20" fill="#1B1A19"></path>
                    <path d="M71,27 L81,27 L71,27 Z" id="Path" stroke="#1B1A19" stroke-width="2" stroke-linecap="round" stroke-linejoin="round"></path>
                </g>
            </g>
        </g>
    </g>
</svg>