<?xml version="1.0" encoding="UTF-8" standalone="no"?>
<svg width="65px" height="66px" viewBox="0 0 65 66" version="1.1" xmlns="http://www.w3.org/2000/svg" xmlns:xlink="http://www.w3.org/1999/xlink" xmlns:sketch="http://www.bohemiancoding.com/sketch/ns">
    <!-- Generator: Sketch 3.0.3 (7892) - http://www.bohemiancoding.com/sketch -->
    <title>check_wh.svg</title>
    <desc>Created with Sketch.</desc>
    <defs></defs>
    <g id="Page-1" stroke="none" stroke-width="1" fill="none" fill-rule="evenodd" sketch:type="MSPage">
        <g id="Index" sketch:type="MSArtboardGroup" transform="translate(-881.000000, -701.000000)" fill="#FFFFFF">
            <g id="HEAD-2" sketch:type="MSLayerGroup" transform="translate(1.000000, -1.000000)">
                <g id="Group" transform="translate(103.000000, 702.000000)" sketch:type="MSShapeGroup">
                    <g id="feature_5" transform="translate(777.000000, 0.000000)">
                        <g id="check_wh.svg" transform="translate(-60.000000, -60.000000)">
                            <path d="M97.4303924,75.9658354 C96.9235657,75.9658354 96.4453638,75.7632854 96.09008,75.4088228 C95.7373219,75.0526723 95.5361067,74.5733039 95.5361067,74.0669288 C95.5361067,73.5588658 95.7373219,73.0794974 96.0656648,72.7233469 C96.7989638,72.0144218 98.0374057,72.0144218 98.769021,72.7233469 C99.122621,73.0794974 99.3246781,73.5588658 99.3246781,74.0669288 C99.3246781,74.5733039 99.122621,75.0526723 98.769021,75.4088228 C98.4137371,75.7624414 97.9102781,75.9658354 97.4303924,75.9658354 L97.4303924,75.9658354 Z" id="Shape"></path>
                            <path d="M101.900907,80.4455671 C101.420179,80.4455671 100.914194,80.243017 100.560594,79.9130293 C100.20531,79.5357798 100.006621,79.0513477 100.006621,78.5466605 C100.006621,78.0672921 100.20531,77.5837039 100.560594,77.2064544 C101.293893,76.4958414 102.532335,76.5211601 103.237851,77.2064544 C103.593135,77.5837039 103.795192,78.0672921 103.795192,78.5466605 C103.795192,79.0530356 103.593135,79.5357798 103.237851,79.8885545 C102.885093,80.243017 102.404366,80.4455671 101.900907,80.4455671 L101.900907,80.4455671 Z" id="Shape"></path>
                            <path d="M106.394994,84.9523054 C105.888168,84.9523054 105.410808,84.7497554 105.05805,84.3969807 C104.702766,84.0408302 104.500709,83.5361431 104.500709,83.0533988 C104.500709,82.5470237 104.702766,82.0676553 105.031109,81.7115048 C105.763566,81.0042676 107.002008,80.976417 107.734465,81.68703 C108.087223,82.0676553 108.28928,82.5478677 108.28928,83.0533988 C108.28928,83.5361431 108.087223,84.0163554 107.734465,84.371662 C107.355608,84.7497554 106.87488,84.9523054 106.394994,84.9523054 L106.394994,84.9523054 Z" id="Shape"></path>
                            <path d="M110.868034,89.4362569 C110.361208,89.4362569 109.881322,89.2337068 109.527722,88.8775563 C109.174964,88.5230938 108.973749,88.0420374 108.973749,87.5373503 C108.973749,87.0292872 109.174964,86.5482309 109.527722,86.1937683 C110.208823,85.4848432 111.499463,85.4848432 112.204979,86.1937683 C112.560263,86.5482309 112.76232,87.054606 112.76232,87.5373503 C112.76232,88.0420374 112.560263,88.5230938 112.204979,88.8775563 C111.850537,89.2328629 111.372335,89.4362569 110.868034,89.4362569 L110.868034,89.4362569 Z" id="Shape"></path>
                            <path d="M92.6045943,101.348731 C91.5589486,101.348731 90.7103086,100.498021 90.7103086,99.4498243 L90.7103086,94.6088784 L86.0091124,94.6088784 C84.9634667,94.6088784 84.1148267,93.7581683 84.1148267,92.7099718 C84.1148267,91.6617754 84.9634667,90.8110652 86.0091124,90.8110652 L92.6045943,90.8110652 C93.6493981,90.8110652 94.49888,91.6617754 94.49888,92.7099718 L94.49888,99.4498243 C94.49888,100.498021 93.6493981,101.348731 92.6045943,101.348731 L92.6045943,101.348731 Z" id="Shape"></path>
                            <path d="M83.3108076,103.929556 C82.8250286,103.929556 82.3417752,103.742197 81.9713371,103.372543 C81.2313029,102.630704 81.2313029,101.428907 81.9713371,100.687067 L91.2651238,91.364702 C92.0051581,90.6228625 93.2040305,90.6228625 93.9440648,91.364702 C94.684099,92.1073855 94.684099,93.3091824 93.9440648,94.0510219 L84.6502781,103.372543 C84.27984,103.743885 83.7965867,103.929556 83.3108076,103.929556 L83.3108076,103.929556 Z" id="Shape"></path>
                            <path d="M62.6226495,107.787396 L77.728608,122.90972 C81.3527452,126.537784 87.2366745,126.533381 90.8585273,122.907604 L122.375236,91.3567489 C126.000689,87.7273679 126.001114,81.8402935 122.37735,78.2126043 L107.271392,63.0902797 C103.647255,59.462216 97.7633255,59.4666194 94.1414727,63.0923961 L62.6247636,94.6432511 C58.9993106,98.2726321 58.9988864,104.159707 62.6226495,107.787396 Z M65.2490461,105.158154 L80.3550046,120.280478 C82.5296291,122.457459 86.061807,122.451037 88.2321306,120.278362 L119.74884,88.7275067 C121.924632,86.5493573 121.92334,83.0165866 119.750954,80.8418465 L104.644995,65.7195218 C102.470371,63.5425413 98.938193,63.5489632 96.7678694,65.7216382 L65.2511603,97.2724933 C63.0753682,99.4506427 63.0766596,102.983413 65.2490461,105.158154 Z" id="as"></path>
                        </g>
                    </g>
                </g>
            </g>
        </g>
    </g>
</svg>