<?xml version="1.0" encoding="UTF-8" standalone="no"?>
<svg width="35px" height="35px" viewBox="0 0 35 35" version="1.1" xmlns="http://www.w3.org/2000/svg" xmlns:xlink="http://www.w3.org/1999/xlink" xmlns:sketch="http://www.bohemiancoding.com/sketch/ns">
    <!-- Generator: Sketch 3.0.3 (7891) - http://www.bohemiancoding.com/sketch -->
    <title>fbfooter</title>
    <desc>Created with Sketch.</desc>
    <defs></defs>
    <g id="Page-1" stroke="none" stroke-width="1" fill="none" fill-rule="evenodd" sketch:type="MSPage">
        <g id="Index" sketch:type="MSArtboardGroup" transform="translate(-332.000000, -5419.000000)">
            <g id="Group" sketch:type="MSLayerGroup" transform="translate(332.000000, 5420.000000)">
                <g id="fbfooter" transform="translate(-0.077508, -0.077508)" sketch:type="MSShapeGroup">
                    <path d="M0.0629364921,16.5387541 C0.0629364921,7.40465199 7.47828884,0 16.6255905,0 C25.7728923,0 33.1882446,7.40465199 33.1882446,16.5387541 C33.1882446,25.6728563 25.7728923,33.0775082 16.6255905,33.0775082 C7.47828884,33.0775082 0.0629364921,25.6728563 0.0629364921,16.5387541 Z" id="Facebook" fill="#3B5998"></path>
                    <path d="M18.010546,25.5356561 L18.010546,16.5377006 L20.4943752,16.5377006 L20.8235362,13.4369554 L18.010546,13.4369554 L18.014766,11.8850025 C18.014766,11.0762804 18.0916054,10.6429486 19.253164,10.6429486 L20.8059528,10.6429486 L20.8059528,7.54185218 L18.321772,7.54185218 C15.3378712,7.54185218 14.2876155,9.04604724 14.2876155,11.5756303 L14.2876155,13.4373065 L12.4276449,13.4373065 L12.4276449,16.5380518 L14.2876155,16.5380518 L14.2876155,25.5356561 L18.010546,25.5356561 Z" id="Path" fill="#FFFFFF"></path>
                </g>
            </g>
        </g>
    </g>
</svg>