<?xml version="1.0" encoding="UTF-8" standalone="no"?>
<svg width="17px" height="17px" viewBox="0 0 17 17" version="1.1" xmlns="http://www.w3.org/2000/svg" xmlns:xlink="http://www.w3.org/1999/xlink" xmlns:sketch="http://www.bohemiancoding.com/sketch/ns">
    <!-- Generator: Sketch 3.0.3 (7891) - http://www.bohemiancoding.com/sketch -->
    <title>feedback_fb_wh</title>
    <desc>Created with Sketch.</desc>
    <defs></defs>
    <g id="Page-1" stroke="none" stroke-width="1" fill="none" fill-rule="evenodd" sketch:type="MSPage">
        <g id="Index" sketch:type="MSArtboardGroup" transform="translate(-872.000000, -4338.000000)" fill="#FFFFFF">
            <g id="TESTIMONIALS" sketch:type="MSLayerGroup" transform="translate(-359.000000, 4006.000000)">
                <g id="feedback1-3" transform="translate(1143.000000, 232.000000)" sketch:type="MSShapeGroup">
                    <path d="M88.9999602,100 C88.4476974,100 88,100.454709 88,100.99996 L88,116.00004 C88,116.552303 88.4547089,117 88.9999602,117 L104.00004,117 C104.552303,117 105,116.545291 105,116.00004 L105,100.99996 C105,100.447697 104.545291,100 104.00004,100 L88.9999602,100 Z M96.989738,115.488039 L96.989738,109.057783 L98.7647699,109.057783 L99,106.841881 L96.989738,106.841881 L96.9927538,105.732801 C96.9927538,105.15486 97.0476659,104.845186 97.8777566,104.845186 L98.9874343,104.845186 L98.9874343,102.629033 L97.212151,102.629033 C95.0797504,102.629033 94.3292006,103.703984 94.3292006,105.511713 L94.3292006,106.842132 L93,106.842132 L93,109.058034 L94.3292006,109.058034 L94.3292006,115.488039 L96.989738,115.488039 Z" id="feedback_fb_wh"></path>
                </g>
            </g>
        </g>
    </g>
</svg>