<?xml version="1.0" encoding="UTF-8" standalone="no"?>
<svg width="16px" height="14px" viewBox="0 0 16 14" version="1.1" xmlns="http://www.w3.org/2000/svg" xmlns:xlink="http://www.w3.org/1999/xlink" xmlns:sketch="http://www.bohemiancoding.com/sketch/ns">
    <!-- Generator: Sketch 3.0.3 (7891) - http://www.bohemiancoding.com/sketch -->
    <title>feedback_twi_wh</title>
    <desc>Created with Sketch.</desc>
    <defs></defs>
    <g id="Page-1" stroke="none" stroke-width="1" fill="none" fill-rule="evenodd" sketch:type="MSPage">
        <g id="Index" sketch:type="MSArtboardGroup" transform="translate(-528.000000, -4312.000000)" fill="#FFFFFF">
            <g id="TESTIMONIALS" sketch:type="MSLayerGroup" transform="translate(-359.000000, 4006.000000)">
                <g id="feedback1-2" transform="translate(798.000000, 232.000000)" sketch:type="MSShapeGroup">
                    <path d="M96.5405774,78.0079849 L96.5720085,78.5262697 L96.0481561,78.4628063 C94.141333,78.2195297 92.4754821,77.3945048 91.0610804,76.0088861 L90.3695951,75.3213653 L90.1914853,75.8290729 C89.8143115,76.9608379 90.0552836,78.1560662 90.8410624,78.9599367 C91.2601443,79.4041808 91.1658509,79.4676443 90.4429345,79.2032132 C90.1914853,79.1185953 89.9714672,79.0551318 89.9505131,79.0868636 C89.8771738,79.1609043 90.128623,80.1234333 90.3276869,80.504214 C90.6000902,81.0330762 91.1553739,81.551361 91.7630427,81.8581011 L92.2764182,82.1013776 L91.6687493,82.1119549 C91.0820345,82.1119549 91.0610804,82.1225321 91.1239427,82.3446542 C91.3334837,83.032175 92.1611706,83.7620047 93.083151,84.079322 L93.7327281,84.301444 L93.1669674,84.6399158 C92.3288034,85.1264689 91.3439607,85.4014772 90.3591181,85.4226317 C89.8876508,85.433209 89.5,85.4755179 89.5,85.5072497 C89.5,85.6130221 90.7782001,86.2053477 91.5220706,86.438047 C93.7536822,87.1255677 96.4043757,86.829405 98.3950152,85.6553311 C99.8094169,84.8197289 101.223819,83.1591019 101.883873,81.551361 C102.240092,80.6946044 102.596312,79.1291725 102.596312,78.3781883 C102.596312,77.8916352 102.627743,77.8281717 103.214458,77.2464234 C103.560201,76.9079517 103.884989,76.5377482 103.947852,76.4319757 C104.052622,76.2310081 104.042145,76.2310081 103.507815,76.4108213 C102.617266,76.7281385 102.491542,76.6858296 102.931578,76.2098537 C103.256366,75.8713819 103.644017,75.2579019 103.644017,75.0780887 C103.644017,75.046357 103.486861,75.0992432 103.308751,75.1944384 C103.120165,75.3002108 102.701083,75.4588695 102.386771,75.5540646 L101.82101,75.7338778 L101.307635,75.3848288 C101.024755,75.1944384 100.626627,74.9828935 100.417086,74.9194301 C99.8827562,74.7713487 99.0655464,74.7925032 98.5836021,74.9617391 C97.2739709,75.437715 96.4462839,76.6646751 96.5405774,78.0079849 Z" id="feedback_twi_wh"></path>
                </g>
            </g>
        </g>
    </g>
</svg>