<?xml version="1.0" encoding="UTF-8" standalone="no"?>
<svg width="35px" height="35px" viewBox="0 0 35 35" version="1.1" xmlns="http://www.w3.org/2000/svg" xmlns:xlink="http://www.w3.org/1999/xlink" xmlns:sketch="http://www.bohemiancoding.com/sketch/ns">
    <!-- Generator: Sketch 3.0.3 (7891) - http://www.bohemiancoding.com/sketch -->
    <title>instagramfooter</title>
    <desc>Created with Sketch.</desc>
    <defs></defs>
    <g id="Page-1" stroke="none" stroke-width="1" fill="none" fill-rule="evenodd" sketch:type="MSPage">
        <g id="Index" sketch:type="MSArtboardGroup" transform="translate(-470.000000, -5419.000000)">
            <g id="Group" sketch:type="MSLayerGroup" transform="translate(332.000000, 5420.000000)">
                <g id="instagramfooter" transform="translate(138.310033, -0.077508)" sketch:type="MSShapeGroup">
                    <path d="M-0.110736359,16.5387541 C-0.110736359,7.40465199 7.30461599,0 16.4519177,0 C25.5992194,0 33.0145718,7.40465199 33.0145718,16.5387541 C33.0145718,25.6728563 25.5992194,33.0775082 16.4519177,33.0775082 C7.30461599,33.0775082 -0.110736359,25.6728563 -0.110736359,16.5387541 Z" id="Instagram" fill="#C67D5D"></path>
                    <path d="M23.4523421,24.9028386 C24.1401554,24.7570692 24.7021903,24.1840782 24.8366265,23.4931749 C24.8510562,23.4184891 24.8616379,23.3426026 24.8739031,23.2676767 L24.8739031,9.80983151 C24.8621189,9.73610634 24.8520181,9.66214102 24.8375885,9.588656 C24.6901656,8.83483415 24.0675262,8.24983574 23.3029952,8.14537174 C23.27125,8.14128924 23.2402262,8.13432497 23.208962,8.12880159 L9.6948734,8.12880159 C9.61334588,8.14345056 9.53133737,8.15449733 9.45101232,8.17274851 C8.70475892,8.34253253 8.15258432,8.94266021 8.0462859,9.6976828 C8.04195701,9.72914207 8.03546366,9.7603612 8.0299323,9.79182047 L8.0299323,23.2864082 C8.04532392,23.3719006 8.05758913,23.4581134 8.07682866,23.5431255 C8.24180766,24.2717319 8.86468754,24.8365579 9.60565006,24.9316562 C9.64148369,24.9359789 9.67755782,24.9429431 9.71339145,24.9487067 L23.1904439,24.9487067 C23.2779838,24.9338175 23.3657642,24.92157 23.4523421,24.9028386 Z M9.85215658,14.9941278 C9.85215658,17.4832528 9.85191609,19.9723778 9.85239708,22.4615028 C9.85239708,22.8195622 10.162875,23.1274308 10.5214518,23.1274308 C14.4742139,23.127671 18.4267355,23.127671 22.3794976,23.1274308 C22.7414413,23.1274308 23.0502358,22.8200425 23.0502358,22.4593415 C23.0504763,19.9730982 23.0502358,17.4870951 23.0502358,15.001092 L23.0502358,14.9494604 L21.4422919,14.9494604 C21.6693184,15.6739843 21.7390617,16.4109958 21.6500788,17.1621761 C21.560615,17.9135964 21.3181969,18.6129049 20.9233055,19.2586605 C20.5281735,19.9051366 20.015921,20.4406647 19.3887122,20.8669259 C17.7629716,21.9725633 15.6225736,22.0698228 13.8975089,21.1029905 C13.0254771,20.6147714 12.3407902,19.9339543 11.8634093,19.0566968 C11.1513061,17.7476548 11.0375523,16.373773 11.4552907,14.9482597 C10.9218746,14.94874 10.390623,14.94874 9.85215658,14.94874 L9.85215658,14.9941278 Z M13.0389448,16.4871225 C13.0120094,18.3941309 14.5408308,19.905857 16.3736368,19.9452412 C18.2807556,19.9860662 19.8232851,18.464494 19.8634477,16.6139202 C19.9045722,14.7054709 18.3630046,13.1291452 16.4520379,13.1303459 C14.5838793,13.1291452 13.0651586,14.6300647 13.0389448,16.4871225 Z M22.4028256,12.4425645 C22.7594784,12.4336791 23.0499954,12.1284521 23.0499954,11.7718336 C23.0502358,11.2408683 23.0502358,10.7096628 23.0499954,10.1786975 C23.0499954,9.79782415 22.7481752,9.49475847 22.3672324,9.49451832 C21.8369428,9.49427817 21.3066532,9.49403803 20.776123,9.49451832 C20.3961422,9.49499862 20.0933601,9.79878474 20.0931196,10.1796581 C20.0928791,10.7060606 20.0914361,11.2324631 20.0950435,11.7591058 C20.0955245,11.8376339 20.1104352,11.9192839 20.1354466,11.9937295 C20.2306823,12.2739812 20.4877705,12.4459266 20.8025774,12.4473674 C21.0584632,12.4478477 21.314349,12.4471273 21.5704753,12.4471273 C21.8475245,12.4440054 22.1255358,12.4492886 22.4028256,12.4425645 Z" id="Path" fill="#FFFFFF"></path>
                </g>
            </g>
        </g>
    </g>
</svg>