<?xml version="1.0" encoding="UTF-8" standalone="no"?>
<svg width="125px" height="28px" viewBox="0 0 125 28" version="1.1" xmlns="http://www.w3.org/2000/svg" xmlns:xlink="http://www.w3.org/1999/xlink" xmlns:sketch="http://www.bohemiancoding.com/sketch/ns">
    <!-- Generator: Sketch 3.0.3 (7892) - http://www.bohemiancoding.com/sketch -->
    <title>iphone-logo-company</title>
    <desc>Created with Sketch.</desc>
    <defs></defs>
    <g id="Page-1" stroke="none" stroke-width="1" fill="none" fill-rule="evenodd" sketch:type="MSPage">
        <g id="MOBILEAPP-3" sketch:type="MSLayerGroup" transform="translate(-542.000000, -395.000000)" fill="#FFB31A">
            <g id="Mobilebg" sketch:type="MSShapeGroup">
                <g id="iphone_wh" transform="translate(451.000000, 163.000000)">
                    <g id="picinsideiphone" transform="translate(79.000000, 232.000000)">
                        <g id="Imported-Layers-2" transform="translate(12.523282, 0.405009)">
                            <path d="M76.4788381,13.4430764 L119.704828,13.4430764 L119.704828,10.0826863 L76.4788381,10.0826863 L76.4788381,13.4430764 Z M76.4788381,20.1646147 L113.05456,20.1646147 L113.05456,16.8034666 L76.4788381,16.8034666 L76.4788381,20.1646147 Z M76.4788381,6.72229609 L123.031469,6.72229609 L123.031469,3.36114804 L76.4788381,3.36114804 L76.4788381,6.72229609 Z M3.32588776,13.4430764 L46.5518775,13.4430764 L46.5518775,10.0826863 L3.32588776,10.0826863 L3.32588776,13.4430764 Z M9.97540232,20.1646147 L46.5518775,20.1646147 L46.5518775,16.8034666 L9.97540232,16.8034666 L9.97540232,20.1646147 Z M0,6.72229609 L46.5526312,6.72229609 L46.5526312,3.36114804 L0,3.36114804 L0,6.72229609 Z M53.2028994,23.5250048 L56.5280335,23.5250048 L56.5280335,20.1646147 L53.2028994,20.1646147 L53.2028994,23.5250048 Z M49.8777653,20.1646147 L53.2028994,20.1646147 L53.2028994,3.36114804 L69.8285699,3.36114804 L69.8285699,20.1646147 L73.1529504,20.1646147 L73.1529504,0 L49.8777653,0 L49.8777653,20.1646147 L49.8777653,20.1646147 Z M59.8531676,26.8861529 L63.1783017,26.8861529 L63.1783017,23.5250048 L59.8531676,23.5250048 L59.8531676,26.8861529 Z M66.5019285,23.5250048 L69.8285699,23.5250048 L69.8285699,20.1646147 L66.5019285,20.1646147 L66.5019285,23.5250048 Z M66.5019285,6.72229609 L56.5280335,6.72229609 L56.5280335,10.0826863 L59.8531676,10.0826863 L59.8531676,16.8034666 L63.1783017,16.8034666 L63.1783017,10.0826863 L66.5019285,10.0826863 L66.5019285,6.72229609 L66.5019285,6.72229609 Z" id="iphone-logo-company"></path>
                        </g>
                    </g>
                </g>
            </g>
        </g>
    </g>
</svg>