<?xml version="1.0" encoding="UTF-8" standalone="no"?>
<svg width="24px" height="24px" viewBox="0 0 24 24" version="1.1" xmlns="http://www.w3.org/2000/svg" xmlns:xlink="http://www.w3.org/1999/xlink" xmlns:sketch="http://www.bohemiancoding.com/sketch/ns">
    <!-- Generator: Sketch 3.0.3 (7891) - http://www.bohemiancoding.com/sketch -->
    <title>keycabinet_wh</title>
    <desc>Created with Sketch.</desc>
    <defs></defs>
    <g id="Page-1" stroke="none" stroke-width="1" fill="none" fill-rule="evenodd" sketch:type="MSPage">
        <g id="Index" sketch:type="MSArtboardGroup" transform="translate(-891.000000, -50.000000)" fill="#FFFFFF">
            <g id="HEAD-2" sketch:type="MSLayerGroup" transform="translate(1.000000, -1.000000)">
                <g id="Imported-Layers-+-Личный-" transform="translate(890.000000, 51.000000)" sketch:type="MSShapeGroup">
                    <path d="M11.0869271,18.7444976 L8.54306128,18.7444976 L8.54317725,21.4502648 L5.89082871,21.4501415 L5.89082871,24 L0,24 L0,19.6546636 L8.45000151,10.6666667 C8.68192618,11.2546544 8.96962874,11.815136 9.30644135,12.3401559 L1.73943505,20.4210088 L1.73943505,22.1497568 L4.15139366,22.1497568 L4.15139366,19.5998366 L6.80368422,19.5999599 L6.80356826,16.8942544 L10.3663951,16.8942544 L12.0278455,15.0953846 C12.5535027,15.4375448 13.1175435,15.7254947 13.7142857,15.9497984 L11.0869271,18.7444976 L11.0869271,18.7444976 Z M19.2121801,7.47929063 C18.5426387,8.17349995 17.4572531,8.17361967 16.7878271,7.47935049 C16.1183434,6.7850813 16.1183434,5.65945293 16.7878271,4.96512389 C17.4572531,4.2708547 18.5426964,4.27091456 19.2122956,4.96512389 C19.8816061,5.65939307 19.8816639,6.78502144 19.2121801,7.47929063 L19.2121801,7.47929063 Z M16.7142857,0 C12.6904846,0 9.42857143,3.38273843 9.42857143,7.55558599 C9.42857143,11.7284336 12.6904846,15.1111111 16.7142857,15.1111111 C20.7380868,15.1111111 24,11.7283727 24,7.55552512 C24,3.38267756 20.7380868,0 16.7142857,0 L16.7142857,0 Z M16.7142857,13.3333333 C13.6421984,13.3333333 11.1428571,10.7414238 11.1428571,7.55555556 C11.1428571,4.36968727 13.6421984,1.77777778 16.7142857,1.77777778 C19.786373,1.77777778 22.2857143,4.36968727 22.2857143,7.55555556 C22.2857143,10.7414238 19.786373,13.3333333 16.7142857,13.3333333 L16.7142857,13.3333333 Z" id="keycabinet_wh"></path>
                </g>
            </g>
        </g>
    </g>
</svg>