<?xml version="1.0" encoding="UTF-8" standalone="no"?>
<svg width="180px" height="55px" viewBox="0 0 180 55" version="1.1" xmlns="http://www.w3.org/2000/svg" xmlns:xlink="http://www.w3.org/1999/xlink" xmlns:sketch="http://www.bohemiancoding.com/sketch/ns">
    <!-- Generator: Sketch 3.0.3 (7891) - http://www.bohemiancoding.com/sketch -->
    <title>label_win_transparent</title>
    <desc>Created with Sketch.</desc>
    <defs></defs>
    <g id="Page-1" stroke="none" stroke-width="1" fill="none" fill-rule="evenodd" sketch:type="MSPage">
        <g id="MOBILEAPP-2" sketch:type="MSLayerGroup" transform="translate(-881.000000, -662.000000)" fill="#FFFFFF">
            <g id="Group" transform="translate(879.000000, 228.000000)" sketch:type="MSShapeGroup">
                <g id="label_win_transparent" transform="translate(2.000000, 434.000000)">
                    <path d="M0,9.99678336 L0,45.0032166 C0,50.5246216 4.47116688,55 9.99076712,55 L170.009233,55 C175.5255,55 180,50.5198335 180,45.0032166 L180,9.99678336 C180,4.47537841 175.528833,0 170.009233,0 L9.99076712,0 C4.47450043,0 0,4.48016645 0,9.99678336 Z M2,9.99678336 L2,45.0032166 C2,49.4197181 5.57540357,53 9.99076712,53 L170.009233,53 C174.422412,53 178,49.413779 178,45.0032166 L178,9.99678336 C178,5.58028186 174.424596,2 170.009233,2 L9.99076712,2 C5.5775883,2 2,5.58622096 2,9.99678336 Z M51.6035746,17.5740867 L55.0118665,17.5740867 C56.1689731,17.5740867 57.0663855,17.9853383 57.7041307,18.8078536 C58.2731369,19.5500303 58.5576358,20.5006908 58.5576358,21.6598636 C58.5576358,22.5550664 58.3896096,23.3641799 58.0535522,24.0872283 C57.461633,25.3649964 56.4439292,26.0038708 55.0004101,26.0038708 L51.6035746,26.0038708 L51.6035746,17.5740867 Z M54.7827376,25.0283342 C55.1684398,25.0283342 55.4853983,24.9881655 55.7336224,24.9078267 C56.1766071,24.7586263 56.5393909,24.4717066 56.8219846,24.0470591 C57.0472958,23.706576 57.2095937,23.2704581 57.3088834,22.7386924 C57.3661659,22.4211632 57.3948067,22.1265923 57.3948067,21.854971 C57.3948067,20.8105677 57.1876381,19.9995415 56.7732947,19.4218679 C56.3589512,18.8441943 55.6916201,18.5553618 54.7712812,18.5553618 L52.7492189,18.5553618 L52.7492189,25.0283342 L54.7827376,25.0283342 Z M64.3660526,20.4720043 C64.9121458,20.9999445 65.1851883,21.7765404 65.1851883,22.8018153 C65.1851883,23.7926594 64.9446054,24.6113369 64.4634324,25.2578722 C63.9822593,25.9044076 63.2356886,26.2276704 62.2236977,26.2276704 C61.3797355,26.2276704 60.7095402,25.9417071 60.2130918,25.369772 C59.7166435,24.7978369 59.468423,24.0298486 59.468423,23.0657841 C59.468423,22.0328578 59.7300092,21.2103547 60.2531894,20.5982503 C60.7763696,19.9861458 61.4790244,19.6800982 62.361175,19.6800982 C63.1516736,19.6800982 63.8199594,19.9440642 64.3660526,20.4720043 Z M63.7273559,24.5606505 C63.9813083,24.0422745 64.1082826,23.465566 64.1082826,22.8305076 C64.1082826,22.2566597 64.016632,21.789937 63.833328,21.4303256 C63.5430966,20.864129 63.0428369,20.5810349 62.3325339,20.5810349 C61.7024263,20.5810349 61.2441732,20.8220474 60.9577607,21.3040797 C60.6713482,21.786112 60.528144,22.3676025 60.528144,23.0485687 C60.528144,23.7027554 60.6713482,24.2479027 60.9577607,24.6840272 C61.2441732,25.1201516 61.6986076,25.3382106 62.3210774,25.3382106 C63.0046487,25.3382106 63.4734035,25.0790265 63.7273559,24.5606505 Z M66.8864702,19.8579901 L68.0664839,24.7012425 L69.2636822,19.8579901 L70.420783,19.8579901 L71.6237096,24.6725503 L72.8781901,19.8579901 L73.90927,19.8579901 L72.1277931,26.0038708 L71.0566156,26.0038708 L69.8078633,21.2466952 L68.5992085,26.0038708 L67.528031,26.0038708 L65.7580105,19.8579901 L66.8864702,19.8579901 Z M74.8830677,19.8579901 L75.8625936,19.8579901 L75.8625936,20.7302346 C76.152825,20.3706233 76.4602365,20.1123956 76.7848373,19.9555438 C77.1094382,19.798692 77.4703126,19.7202673 77.8674713,19.7202673 C78.7381653,19.7202673 79.3262569,20.0244022 79.6317636,20.632681 C79.7997922,20.9655128 79.8838053,21.4417994 79.8838053,22.0615552 L79.8838053,26.0038708 L78.8355407,26.0038708 L78.8355407,22.1304166 C78.8355407,21.7555026 78.7801685,21.4532806 78.6694223,21.2237414 C78.4861183,20.8411761 78.1538848,20.6498963 77.6727117,20.6498963 C77.4283064,20.6498963 77.2278206,20.6747627 77.0712484,20.7244962 C76.7886548,20.8086605 76.5404343,20.9769867 76.3265796,21.2294798 C76.1547321,21.4322394 76.0430329,21.6416908 75.9914786,21.8578402 C75.9399244,22.0739896 75.9141476,22.3829064 75.9141476,22.7846 L75.9141476,26.0038708 L74.8830677,26.0038708 L74.8830677,19.8579901 Z M81.4361534,17.5740867 L82.4672333,17.5740867 L82.4672333,26.0038708 L81.4361534,26.0038708 L81.4361534,17.5740867 Z M88.4933226,20.4720043 C89.0394158,20.9999445 89.3124583,21.7765404 89.3124583,22.8018153 C89.3124583,23.7926594 89.0718754,24.6113369 88.5907024,25.2578722 C88.1095293,25.9044076 87.3629586,26.2276704 86.3509677,26.2276704 C85.5070054,26.2276704 84.8368102,25.9417071 84.3403618,25.369772 C83.8439135,24.7978369 83.595693,24.0298486 83.595693,23.0657841 C83.595693,22.0328578 83.8572792,21.2103547 84.3804594,20.5982503 C84.9036396,19.9861458 85.6062944,19.6800982 86.488445,19.6800982 C87.2789435,19.6800982 87.9472294,19.9440642 88.4933226,20.4720043 Z M87.8546259,24.5606505 C88.1085783,24.0422745 88.2355526,23.465566 88.2355526,22.8305076 C88.2355526,22.2566597 88.143902,21.789937 87.960598,21.4303256 C87.6703666,20.864129 87.1701069,20.5810349 86.4598039,20.5810349 C85.8296963,20.5810349 85.3714432,20.8220474 85.0850307,21.3040797 C84.7986181,21.786112 84.655414,22.3676025 84.655414,23.0485687 C84.655414,23.7027554 84.7986181,24.2479027 85.0850307,24.6840272 C85.3714432,25.1201516 85.8258776,25.3382106 86.4483474,25.3382106 C87.1319186,25.3382106 87.6006734,25.0790265 87.8546259,24.5606505 Z M93.826297,22.2796163 C94.0630647,22.2490111 94.2215439,22.1495456 94.3017394,21.9812169 C94.3475654,21.8894012 94.3704781,21.7574182 94.3704781,21.5852638 C94.3704781,21.2333037 94.2454132,20.9779452 93.9952796,20.8191806 C93.745146,20.660416 93.3871357,20.5810349 92.921238,20.5810349 C92.3827825,20.5810349 92.0009048,20.7264075 91.7755937,21.0171572 C91.6495721,21.1778346 91.5674685,21.4169343 91.5292801,21.7344635 L90.5669389,21.7344635 C90.586033,20.9769842 90.8313894,20.4500084 91.3030154,20.1535203 C91.7746413,19.8570322 92.321681,19.7087904 92.9441509,19.7087904 C93.6659104,19.7087904 94.2520926,19.8465118 94.702715,20.1219589 C95.1495185,20.3974059 95.3729169,20.8258726 95.3729169,21.4073718 L95.3729169,24.9479959 C95.3729169,25.0551142 95.3948749,25.1411901 95.4387915,25.2062262 C95.482708,25.2712623 95.5753134,25.3037798 95.7166102,25.3037798 C95.7624362,25.3037798 95.8139897,25.3009107 95.8712722,25.2951722 C95.9285547,25.2894337 95.9896551,25.2808261 96.0545753,25.2693491 L96.0545753,26.0325631 C95.8941843,26.0784709 95.7719834,26.1071629 95.6879691,26.1186398 C95.6039548,26.1301168 95.4893915,26.1358552 95.3442758,26.1358552 C94.9891243,26.1358552 94.7313569,26.0096105 94.5709659,25.7571175 C94.4869515,25.6232196 94.4277605,25.4338526 94.393391,25.1890108 C94.1833551,25.4644578 93.8816718,25.7035576 93.488332,25.9063172 C93.0949921,26.1090768 92.661561,26.2104551 92.1880256,26.2104551 C91.6190194,26.2104551 91.1540834,26.0373469 90.7932036,25.6911253 C90.4323238,25.3449037 90.2518867,24.911655 90.2518867,24.3913662 C90.2518867,23.8213439 90.4294598,23.3794876 90.7846113,23.0657841 C91.1397628,22.7520805 91.6056535,22.558888 92.1822974,22.4862005 L93.826297,22.2796163 Z M91.655301,25.0742418 C91.8729745,25.2463962 92.1307419,25.3324721 92.4286109,25.3324721 C92.7914001,25.3324721 93.1427275,25.248309 93.4826037,25.0799803 C94.0554288,24.8007076 94.341837,24.3435489 94.341837,23.7084905 L94.341837,22.8764152 C94.2158155,22.9567539 94.0535175,23.0237018 93.8549381,23.077261 C93.6563588,23.1308201 93.4616012,23.1690761 93.2706595,23.19203 L92.6462834,23.2723683 C92.2720377,23.3221018 91.9913576,23.4005265 91.8042348,23.5076448 C91.4872716,23.6874505 91.3287924,23.9743701 91.3287924,24.3684124 C91.3287924,24.6668133 91.4376275,24.9020874 91.655301,25.0742418 Z M100.448121,20.047359 C100.631425,20.1621286 100.839549,20.3629724 101.072498,20.6498963 L101.072498,17.5453945 L102.06348,17.5453945 L102.06348,26.0038708 L101.135508,26.0038708 L101.135508,25.1488417 C100.894921,25.5275813 100.610423,25.8011114 100.282003,25.9694401 C99.9535833,26.1377689 99.5774338,26.221932 99.1535433,26.221932 C98.469972,26.221932 97.8780617,25.9340559 97.3777945,25.3582951 C96.8775273,24.7825344 96.6273975,24.0164589 96.6273975,23.0600456 C96.6273975,22.1648428 96.8555694,21.3892033 97.31192,20.7331039 C97.7682706,20.0770044 98.4203266,19.7489596 99.2681077,19.7489596 C99.7378242,19.7489596 100.131158,19.848425 100.448121,20.047359 Z M98.1339198,24.6553349 C98.4126946,25.0991107 98.8594915,25.3209952 99.4743237,25.3209952 C99.9516779,25.3209952 100.344057,25.1153694 100.651473,24.7041117 C100.958889,24.2928541 101.112595,23.7027559 101.112595,22.9337997 C101.112595,22.1571922 100.954116,21.5823964 100.637153,21.2093953 C100.32019,20.8363941 99.9287649,20.6498963 99.4628672,20.6498963 C98.9435059,20.6498963 98.5224858,20.8488273 98.1997943,21.2466952 C97.8771029,21.6445631 97.7157596,22.2298792 97.7157596,23.0026611 C97.7157596,23.6606734 97.8551449,24.2115592 98.1339198,24.6553349 Z M107.327716,17.9815167 C107.568302,17.6295567 108.032284,17.4535793 108.719674,17.4535793 C108.784594,17.4535793 108.851422,17.4554921 108.920161,17.4593177 C108.9889,17.4631434 109.067185,17.4688818 109.155018,17.4765331 L109.155018,18.417639 C109.048091,18.4099877 108.970761,18.4052057 108.923025,18.4032929 C108.87529,18.40138 108.830419,18.4004236 108.788412,18.4004236 C108.475268,18.4004236 108.288148,18.4817175 108.227047,18.6443078 C108.165945,18.806898 108.135395,19.2210188 108.135395,19.8866824 L109.155018,19.8866824 L109.155018,20.7015424 L108.123939,20.7015424 L108.123939,26.0038708 L107.104315,26.0038708 L107.104315,20.7015424 L106.25081,20.7015424 L106.25081,19.8866824 L107.104315,19.8866824 L107.104315,18.9226227 C107.11959,18.4941495 107.194057,18.1804507 107.327716,17.9815167 Z M110.134544,19.8579901 L111.11407,19.8579901 L111.11407,20.9196035 C111.194266,20.7130182 111.390933,20.4614853 111.704077,20.1649972 C112.017221,19.8685091 112.378096,19.7202673 112.786711,19.7202673 C112.805805,19.7202673 112.838265,19.7221801 112.884091,19.7260058 C112.929917,19.7298314 113.008202,19.7374826 113.118948,19.7489596 L113.118948,20.8392652 C113.057847,20.8277882 113.00152,20.820137 112.949965,20.8163114 C112.898411,20.8124857 112.842084,20.8105729 112.780983,20.8105729 C112.261621,20.8105729 111.862559,20.9779427 111.583784,21.3126874 C111.30501,21.647432 111.165624,22.0328608 111.165624,22.4689852 L111.165624,26.0038708 L110.134544,26.0038708 L110.134544,19.8579901 Z M118.49202,20.4720043 C119.038113,20.9999445 119.311156,21.7765404 119.311156,22.8018153 C119.311156,23.7926594 119.070573,24.6113369 118.5894,25.2578722 C118.108227,25.9044076 117.361656,26.2276704 116.349665,26.2276704 C115.505703,26.2276704 114.835507,25.9417071 114.339059,25.369772 C113.842611,24.7978369 113.59439,24.0298486 113.59439,23.0657841 C113.59439,22.0328578 113.855976,21.2103547 114.379157,20.5982503 C114.902337,19.9861458 115.604992,19.6800982 116.487142,19.6800982 C117.277641,19.6800982 117.945927,19.9440642 118.49202,20.4720043 Z M117.853323,24.5606505 C118.107276,24.0422745 118.23425,23.465566 118.23425,22.8305076 C118.23425,22.2566597 118.142599,21.789937 117.959295,21.4303256 C117.669064,20.864129 117.168804,20.5810349 116.458501,20.5810349 C115.828394,20.5810349 115.37014,20.8220474 115.083728,21.3040797 C114.797315,21.786112 114.654111,22.3676025 114.654111,23.0485687 C114.654111,23.7027554 114.797315,24.2479027 115.083728,24.6840272 C115.37014,25.1201516 115.824575,25.3382106 116.447045,25.3382106 C117.130616,25.3382106 117.599371,25.0790265 117.853323,24.5606505 Z M120.536995,19.8579901 L121.556618,19.8579901 L121.556618,20.7302346 C121.801024,20.428008 122.022513,20.2080363 122.221092,20.0703128 C122.560968,19.836948 122.946665,19.7202673 123.378193,19.7202673 C123.867004,19.7202673 124.260338,19.8407736 124.558207,20.0817897 C124.726235,20.2195132 124.878986,20.4222698 125.016464,20.6900655 C125.245594,20.3610593 125.514818,20.1171776 125.824144,19.958413 C126.133469,19.7996484 126.480978,19.7202673 126.86668,19.7202673 C127.691548,19.7202673 128.252908,20.0186638 128.550777,20.6154656 C128.711168,20.9368205 128.791363,21.3691128 128.791363,21.9123555 L128.791363,26.0038708 L127.720185,26.0038708 L127.720185,21.7344635 C127.720185,21.3251186 127.618033,21.0439374 127.413725,20.8909113 C127.209418,20.7378851 126.960242,20.6613732 126.666192,20.6613732 C126.261396,20.6613732 125.912933,20.7971819 125.620792,21.0688032 C125.328651,21.3404246 125.182583,21.7937577 125.182583,22.428816 L125.182583,26.0038708 L124.134318,26.0038708 L124.134318,21.9926938 C124.134318,21.5756976 124.084674,21.2715628 123.985385,21.0802801 C123.828812,20.7933562 123.536676,20.6498963 123.108967,20.6498963 C122.719446,20.6498963 122.365254,20.8010073 122.046381,21.1032339 C121.727509,21.4054605 121.568075,21.9525207 121.568075,22.7444308 L121.568075,26.0038708 L120.536995,26.0038708 L120.536995,19.8579901 Z M52.1076581,32.1627258 L53.6943755,39.0201744 L55.5961451,32.1627258 L56.833441,32.1627258 L58.7352106,39.0201744 L60.3219281,32.1627258 L61.5706804,32.1627258 L59.3595868,40.5925099 L58.1623885,40.5925099 L56.2205213,33.603077 L54.2671977,40.5925099 L53.0699993,40.5925099 L50.8703622,32.1627258 L52.1076581,32.1627258 Z M62.4871959,34.4753215 L63.5354605,34.4753215 L63.5354605,40.5925099 L62.4871959,40.5925099 L62.4871959,34.4753215 Z M62.4871959,32.1627258 L63.5354605,32.1627258 L63.5354605,33.3333698 L62.4871959,33.3333698 L62.4871959,32.1627258 Z M65.0935368,34.4466292 L66.0730627,34.4466292 L66.0730627,35.3188737 C66.363294,34.9592623 66.6707055,34.7010346 66.9953064,34.5441829 C67.3199072,34.3873311 67.6807816,34.3089064 68.0779403,34.3089064 C68.9486344,34.3089064 69.5367259,34.6130412 69.8422326,35.2213201 C70.0102613,35.5541519 70.0942744,36.0304385 70.0942744,36.6501943 L70.0942744,40.5925099 L69.0460098,40.5925099 L69.0460098,36.7190557 C69.0460098,36.3441417 68.9906375,36.0419197 68.8798913,35.8123805 C68.6965873,35.4298152 68.3643538,35.2385354 67.8831808,35.2385354 C67.6387754,35.2385354 67.4382897,35.2634018 67.2817175,35.3131353 C66.9991238,35.3972996 66.7509033,35.5656258 66.5370486,35.8181189 C66.3652011,36.0208785 66.2535019,36.2303299 66.2019477,36.4464793 C66.1503934,36.6626287 66.1246167,36.9715455 66.1246167,37.3732391 L66.1246167,40.5925099 L65.0935368,40.5925099 L65.0935368,34.4466292 Z M75.0033604,34.6359981 C75.1866644,34.7507677 75.3947877,34.9516114 75.6277366,35.2385354 L75.6277366,32.1340336 L76.6187189,32.1340336 L76.6187189,40.5925099 L75.690747,40.5925099 L75.690747,39.7374808 C75.4501605,40.1162204 75.1656616,40.3897505 74.837242,40.5580792 C74.5088223,40.7264079 74.1326728,40.8105711 73.7087823,40.8105711 C73.0252111,40.8105711 72.4333007,40.522695 71.9330335,39.9469342 C71.4327663,39.3711735 71.1826365,38.6050979 71.1826365,37.6486847 C71.1826365,36.7534819 71.4108084,35.9778424 71.867159,35.3217429 C72.3235096,34.6656435 72.9755657,34.3375986 73.8233467,34.3375986 C74.2930632,34.3375986 74.6863972,34.4370641 75.0033604,34.6359981 Z M72.6891588,39.243974 C72.9679337,39.6877497 73.4147305,39.9096343 74.0295627,39.9096343 C74.5069169,39.9096343 74.8992962,39.7040085 75.2067123,39.2927508 C75.5141284,38.8814931 75.6678341,38.291395 75.6678341,37.5224388 C75.6678341,36.7458312 75.5093549,36.1710355 75.1923917,35.7980344 C74.8754285,35.4250332 74.4840039,35.2385354 74.0181062,35.2385354 C73.4987449,35.2385354 73.0777248,35.4374664 72.7550334,35.8353343 C72.4323419,36.2332022 72.2709986,36.8185183 72.2709986,37.5913002 C72.2709986,38.2493125 72.410384,38.8001983 72.6891588,39.243974 Z M82.6218953,35.0606434 C83.1679885,35.5885835 83.441031,36.3651794 83.441031,37.3904544 C83.441031,38.3812985 83.2004481,39.199976 82.7192751,39.8465113 C82.238102,40.4930467 81.4915313,40.8163095 80.4795404,40.8163095 C79.6355782,40.8163095 78.9653829,40.5303462 78.4689345,39.9584111 C77.9724862,39.386476 77.7242657,38.6184877 77.7242657,37.6544232 C77.7242657,36.6214969 77.9858519,35.7989938 78.5090321,35.1868894 C79.0322123,34.5747849 79.7348671,34.2687372 80.6170177,34.2687372 C81.4075162,34.2687372 82.0758021,34.5327033 82.6218953,35.0606434 Z M81.9831986,39.1492896 C82.237151,38.6309136 82.3641253,38.0542051 82.3641253,37.4191467 C82.3641253,36.8452987 82.2724747,36.3785761 82.0891707,36.0189647 C81.7989393,35.4527681 81.2986796,35.169674 80.5883766,35.169674 C79.958269,35.169674 79.5000159,35.4106865 79.2136034,35.8927188 C78.9271908,36.3747511 78.7839867,36.9562416 78.7839867,37.6372078 C78.7839867,38.2913945 78.9271908,38.8365418 79.2136034,39.2726663 C79.5000159,39.7087907 79.9544503,39.9268496 80.5769201,39.9268496 C81.2604914,39.9268496 81.7292461,39.6676655 81.9831986,39.1492896 Z M85.1423129,34.4466292 L86.3223266,39.2898816 L87.5195249,34.4466292 L88.6766257,34.4466292 L89.8795523,39.2611894 L91.1340328,34.4466292 L92.1651127,34.4466292 L90.3836358,40.5925099 L89.3124583,40.5925099 L88.063706,35.8353343 L86.8550512,40.5925099 L85.7838737,40.5925099 L84.0138532,34.4466292 L85.1423129,34.4466292 Z M93.7518302,38.6643905 C93.7823808,39.0086992 93.8683033,39.2726653 94.0096001,39.4562967 C94.2692808,39.7891285 94.7198964,39.9555419 95.3614605,39.9555419 C95.7433438,39.9555419 96.0793961,39.8723352 96.3696275,39.7059193 C96.6598588,39.5395034 96.8049723,39.2822321 96.8049723,38.9340977 C96.8049723,38.6701276 96.6884997,38.4692838 96.4555508,38.3315603 C96.3066163,38.247396 96.0125705,38.1498433 95.5734047,38.0388994 L94.754269,37.8323151 C94.2310888,37.7022429 93.8453924,37.5568703 93.5971682,37.3961929 C93.1541835,37.1169202 92.9326944,36.7305351 92.9326944,36.2370258 C92.9326944,35.6555266 93.1417724,35.1849783 93.5599347,34.825367 C93.978097,34.4657556 94.5404118,34.2859526 95.246896,34.2859526 C96.1710538,34.2859526 96.8374302,34.5575699 97.2460454,35.1008126 C97.5019073,35.4451214 97.6260175,35.8162041 97.6183798,36.214072 L96.6445821,36.214072 C96.625488,35.9807072 96.5433843,35.7683866 96.3982686,35.577104 C96.1615009,35.3054826 95.7509825,35.169674 95.1667009,35.169674 C94.7771799,35.169674 94.4821794,35.2442731 94.2816907,35.3934736 C94.0812019,35.542674 93.980959,35.7396922 93.980959,35.984534 C93.980959,36.2523297 94.1127068,36.4665631 94.3762063,36.6272405 C94.5289597,36.7228818 94.7542675,36.8070449 95.0521365,36.8797323 L95.7337949,37.0461474 C96.4746486,37.2259531 96.9710895,37.4000177 97.2231325,37.5683464 C97.6241101,37.8323165 97.8245958,38.2473936 97.8245958,38.8135902 C97.8245958,39.3606586 97.6174272,39.8331196 97.2030838,40.2309875 C96.7887403,40.6288554 96.1576875,40.8277864 95.3099065,40.8277864 C94.3972052,40.8277864 93.7508774,40.6202478 93.3709034,40.2051645 C92.9909295,39.7900812 92.7875796,39.276495 92.7608478,38.6643905 L93.7518302,38.6643905 Z M102.510281,32.1627258 L106.296636,32.1627258 C107.045127,32.1627258 107.648494,32.37409 108.106754,32.7968246 C108.565014,33.2195593 108.79414,33.813483 108.79414,34.5786136 C108.79414,35.2366259 108.589836,35.8095088 108.181221,36.2972796 C107.772606,36.7850503 107.144417,37.028932 106.296636,37.028932 L103.650197,37.028932 L103.650197,40.5925099 L102.510281,40.5925099 L102.510281,32.1627258 Z M106.955381,33.3218929 C106.703338,33.2032976 106.357739,33.1440009 105.918573,33.1440009 L103.650197,33.1440009 L103.650197,36.0648723 L105.918573,36.0648723 C106.430297,36.0648723 106.845589,35.9558428 107.164461,35.7377806 C107.483334,35.5197184 107.642768,35.1352461 107.642768,34.584352 C107.642768,33.9645963 107.413641,33.5437807 106.955381,33.3218929 Z M110.088719,32.1340336 L111.119798,32.1340336 L111.119798,35.2787046 C111.364204,34.9688267 111.583783,34.7507677 111.778544,34.6245212 C112.110783,34.406459 112.52512,34.2974295 113.021568,34.2974295 C113.911356,34.2974295 114.514723,34.6092155 114.831686,35.232797 C115.003534,35.5732801 115.089456,36.0457411 115.089456,36.6501943 L115.089456,40.5925099 L114.029735,40.5925099 L114.029735,36.7190557 C114.029735,36.2676286 113.972453,35.9367146 113.857888,35.7263037 C113.670766,35.3896463 113.319438,35.2213201 112.803896,35.2213201 C112.376186,35.2213201 111.988581,35.3686055 111.641067,35.6631808 C111.293553,35.957756 111.119798,36.5143802 111.119798,37.3330699 L111.119798,40.5925099 L110.088719,40.5925099 L110.088719,32.1340336 Z M121.092633,35.0606434 C121.638726,35.5885835 121.911768,36.3651794 121.911768,37.3904544 C121.911768,38.3812985 121.671185,39.199976 121.190012,39.8465113 C120.708839,40.4930467 119.962269,40.8163095 118.950278,40.8163095 C118.106315,40.8163095 117.43612,40.5303462 116.939672,39.9584111 C116.443223,39.386476 116.195003,38.6184877 116.195003,37.6544232 C116.195003,36.6214969 116.456589,35.7989938 116.979769,35.1868894 C117.50295,34.5747849 118.205604,34.2687372 119.087755,34.2687372 C119.878253,34.2687372 120.546539,34.5327033 121.092633,35.0606434 Z M120.453936,39.1492896 C120.707888,38.6309136 120.834863,38.0542051 120.834863,37.4191467 C120.834863,36.8452987 120.743212,36.3785761 120.559908,36.0189647 C120.269677,35.4527681 119.769417,35.169674 119.059114,35.169674 C118.429006,35.169674 117.970753,35.4106865 117.684341,35.8927188 C117.397928,36.3747511 117.254724,36.9562416 117.254724,37.6372078 C117.254724,38.2913945 117.397928,38.8365418 117.684341,39.2726663 C117.970753,39.7087907 118.425187,39.9268496 119.047657,39.9268496 C119.731229,39.9268496 120.199983,39.6676655 120.453936,39.1492896 Z M123.137608,34.4466292 L124.117134,34.4466292 L124.117134,35.3188737 C124.407365,34.9592623 124.714776,34.7010346 125.039377,34.5441829 C125.363978,34.3873311 125.724853,34.3089064 126.122011,34.3089064 C126.992705,34.3089064 127.580797,34.6130412 127.886304,35.2213201 C128.054332,35.5541519 128.138345,36.0304385 128.138345,36.6501943 L128.138345,40.5925099 L127.090081,40.5925099 L127.090081,36.7190557 C127.090081,36.3441417 127.034708,36.0419197 126.923962,35.8123805 C126.740658,35.4298152 126.408425,35.2385354 125.927252,35.2385354 C125.682846,35.2385354 125.482361,35.2634018 125.325788,35.3131353 C125.043195,35.3972996 124.794974,35.5656258 124.58112,35.8181189 C124.409272,36.0208785 124.297573,36.2303299 124.246019,36.4464793 C124.194464,36.6626287 124.168688,36.9715455 124.168688,37.3732391 L124.168688,40.5925099 L123.137608,40.5925099 L123.137608,34.4466292 Z M133.482776,34.6159135 C133.891391,34.8205859 134.202622,35.0855084 134.416476,35.4106889 C134.622693,35.7205668 134.760169,36.0820856 134.828908,36.4952561 C134.89001,36.7783544 134.92056,37.2297747 134.92056,37.8495305 L130.423906,37.8495305 C130.443,38.4731119 130.590023,38.9733085 130.864979,39.3501353 C131.139935,39.7269622 131.565728,39.9153727 132.142372,39.9153727 C132.680828,39.9153727 133.11044,39.7374825 133.431222,39.3816968 C133.614526,39.1751116 133.744365,38.9360118 133.820741,38.6643905 L134.834637,38.6643905 C134.807905,38.890104 134.719118,39.1416369 134.568274,39.4189968 C134.41743,39.6963566 134.248449,39.9230231 134.061327,40.0990032 C133.748182,40.4050554 133.360576,40.6116376 132.898498,40.7187558 C132.650273,40.7799663 132.369593,40.8105711 132.056449,40.8105711 C131.292682,40.8105711 130.6454,40.532259 130.114582,39.9756265 C129.583764,39.418994 129.318359,38.6395289 129.318359,37.6372078 C129.318359,36.6501894 129.585673,35.8487271 130.12031,35.232797 C130.654947,34.6168668 131.353783,34.3089064 132.216839,34.3089064 C132.652186,34.3089064 133.074161,34.4112411 133.482776,34.6159135 Z M133.860839,37.028932 C133.818832,36.5813306 133.721453,36.2236375 133.568699,35.9558417 C133.286106,35.4585069 132.814487,35.2098432 132.153829,35.2098432 C131.680293,35.2098432 131.283141,35.3810386 130.962359,35.7234345 C130.641577,36.0658304 130.471641,36.5009919 130.452547,37.028932 L133.860839,37.028932 Z M140.328001,37.8724843 C140.354733,38.3506909 140.467387,38.7389889 140.665966,39.0373898 C141.044031,39.5959351 141.710407,39.8752036 142.665116,39.8752036 C143.092825,39.8752036 143.48234,39.8139941 143.833673,39.6915732 C144.513425,39.4543827 144.853296,39.0297416 144.853296,38.4176371 C144.853296,37.9585588 144.710092,37.6314703 144.42368,37.436362 C144.133448,37.2450794 143.679014,37.078666 143.060363,36.9371168 L141.920447,36.6788865 C141.175774,36.5105578 140.648783,36.3250164 140.339458,36.1222568 C139.804821,35.7702968 139.537507,35.2442774 139.537507,34.5441829 C139.537507,33.7867036 139.799093,33.1650443 140.322273,32.6791864 C140.845453,32.1933285 141.586296,31.9504032 142.544823,31.9504032 C143.426974,31.9504032 144.176408,32.1636801 144.79315,32.5902404 C145.409892,33.0168007 145.718258,33.6987131 145.718258,34.6359981 L144.64708,34.6359981 C144.589798,34.184571 144.467597,33.8383546 144.280474,33.5973385 C143.93296,33.1573884 143.342959,32.9374167 142.510454,32.9374167 C141.838339,32.9374167 141.355264,33.0789637 141.061214,33.362062 C140.767163,33.6451603 140.62014,33.9741616 140.62014,34.3490756 C140.62014,34.7622461 140.791985,35.0644681 141.13568,35.2557508 C141.360992,35.3781717 141.870798,35.5311955 142.665116,35.7148268 L143.845129,35.984534 C144.414136,36.1146062 144.853295,36.2924964 145.16262,36.5182099 C145.697257,36.9122522 145.964571,37.4841787 145.964571,38.2340067 C145.964571,39.167466 145.625655,39.8350324 144.947812,40.236726 C144.269969,40.6384195 143.482346,40.8392633 142.584921,40.8392633 C141.53856,40.8392633 140.719433,40.5714716 140.127513,40.0358802 C139.535594,39.5041144 139.245367,38.7829897 139.256824,37.8724843 L140.328001,37.8724843 Z M147.476822,32.7308325 L148.519358,32.7308325 L148.519358,34.4466292 L149.498884,34.4466292 L149.498884,35.2901815 L148.519358,35.2901815 L148.519358,39.3013585 C148.519358,39.5155951 148.591915,39.6590549 148.737031,39.7317423 C148.817226,39.7738245 148.950883,39.7948653 149.138006,39.7948653 C149.187651,39.7948653 149.241114,39.7939089 149.298396,39.7919961 C149.355679,39.7900832 149.422507,39.7853012 149.498884,39.7776499 L149.498884,40.5925099 C149.3805,40.6269408 149.257345,40.6518072 149.129414,40.6671098 C149.001483,40.6824124 148.863052,40.6900636 148.714118,40.6900636 C148.232945,40.6900636 147.906439,40.5666881 147.734592,40.3199335 C147.562744,40.0731789 147.476822,39.7527853 147.476822,39.358743 L147.476822,35.2901815 L146.64623,35.2901815 L146.64623,34.4466292 L147.476822,34.4466292 L147.476822,32.7308325 Z M155.009433,35.0606434 C155.555527,35.5885835 155.828569,36.3651794 155.828569,37.3904544 C155.828569,38.3812985 155.587986,39.199976 155.106813,39.8465113 C154.62564,40.4930467 153.879069,40.8163095 152.867079,40.8163095 C152.023116,40.8163095 151.352921,40.5303462 150.856473,39.9584111 C150.360024,39.386476 150.111804,38.6184877 150.111804,37.6544232 C150.111804,36.6214969 150.37339,35.7989938 150.89657,35.1868894 C151.41975,34.5747849 152.122405,34.2687372 153.004556,34.2687372 C153.795054,34.2687372 154.46334,34.5327033 155.009433,35.0606434 Z M154.370737,39.1492896 C154.624689,38.6309136 154.751664,38.0542051 154.751664,37.4191467 C154.751664,36.8452987 154.660013,36.3785761 154.476709,36.0189647 C154.186478,35.4527681 153.686218,35.169674 152.975915,35.169674 C152.345807,35.169674 151.887554,35.4106865 151.601142,35.8927188 C151.314729,36.3747511 151.171525,36.9562416 151.171525,37.6372078 C151.171525,38.2913945 151.314729,38.8365418 151.601142,39.2726663 C151.887554,39.7087907 152.341988,39.9268496 152.964458,39.9268496 C153.64803,39.9268496 154.116784,39.6676655 154.370737,39.1492896 Z M157.08305,34.4466292 L158.062576,34.4466292 L158.062576,35.5082426 C158.142771,35.3016573 158.339438,35.0501244 158.652583,34.7536363 C158.965727,34.4571482 159.326601,34.3089064 159.735216,34.3089064 C159.754311,34.3089064 159.78677,34.3108192 159.832596,34.3146448 C159.878422,34.3184705 159.956707,34.3261217 160.067453,34.3375986 L160.067453,35.4279043 C160.006352,35.4164273 159.950025,35.4087761 159.898471,35.4049505 C159.846916,35.4011248 159.79059,35.399212 159.729488,35.399212 C159.210127,35.399212 158.811065,35.5665818 158.53229,35.9013265 C158.253515,36.2360711 158.11413,36.6214999 158.11413,37.0576243 L158.11413,40.5925099 L157.08305,40.5925099 L157.08305,34.4466292 Z M164.78178,34.6159135 C165.190395,34.8205859 165.501625,35.0855084 165.71548,35.4106889 C165.921697,35.7205668 166.059173,36.0820856 166.127912,36.4952561 C166.189013,36.7783544 166.219563,37.2297747 166.219563,37.8495305 L161.722909,37.8495305 C161.742004,38.4731119 161.889026,38.9733085 162.163982,39.3501353 C162.438938,39.7269622 162.864732,39.9153727 163.441376,39.9153727 C163.979831,39.9153727 164.409444,39.7374825 164.730226,39.3816968 C164.91353,39.1751116 165.043368,38.9360118 165.119745,38.6643905 L166.13364,38.6643905 C166.106908,38.890104 166.018122,39.1416369 165.867278,39.4189968 C165.716434,39.6963566 165.547453,39.9230231 165.36033,40.0990032 C165.047186,40.4050554 164.65958,40.6116376 164.197501,40.7187558 C163.949277,40.7799663 163.668597,40.8105711 163.355453,40.8105711 C162.591686,40.8105711 161.944403,40.532259 161.413585,39.9756265 C160.882768,39.418994 160.617363,38.6395289 160.617363,37.6372078 C160.617363,36.6501894 160.884677,35.8487271 161.419314,35.232797 C161.95395,34.6168668 162.652786,34.3089064 163.515843,34.3089064 C163.95119,34.3089064 164.373165,34.4112411 164.78178,34.6159135 Z M165.159842,37.028932 C165.117835,36.5813306 165.020456,36.2236375 164.867703,35.9558417 C164.585109,35.4585069 164.113491,35.2098432 163.452832,35.2098432 C162.979297,35.2098432 162.582144,35.3810386 162.261362,35.7234345 C161.94058,36.0658304 161.770645,36.5009919 161.75155,37.028932 L165.159842,37.028932 Z" id="Rectangle-29"></path>
                    <path d="M36.830303,16.535425 L12.5818788,21.39105 L12.5818788,39.06 L36.830303,43.91945 L41.6785455,42.151875 L41.6785455,18.30215 L36.830303,16.535425 L36.830303,16.535425 Z M23.2290909,35.40415 L17.7962424,34.644675 L17.7962424,30.08995 L23.2290909,30.08995 L23.2290909,35.40415 L23.2290909,35.40415 Z M23.2290909,29.684075 L17.7962424,29.684075 L17.7962424,25.3784 L23.2290909,24.618925 L23.2290909,29.684075 L23.2290909,29.684075 Z M30.6321212,36.44115 L23.6308485,35.44495 L23.6308485,30.08995 L30.6321212,30.08995 L30.6321212,36.44115 L30.6321212,36.44115 Z M30.6321212,29.684075 L23.6308485,29.684075 L23.6308485,24.576425 L30.6321212,23.58235 L30.6321212,29.684075 L30.6321212,29.684075 Z M26.5899394,12.903375 C25.1199394,13.420175 24.0444848,13.863025 24.0444848,16.679925 L24.0444848,18.03185 L24.9247879,17.85505 L24.9247879,16.68715 C24.904,14.777625 25.3990909,14.3777 26.6853939,13.82095 C26.6781818,13.46055 26.6472121,13.154125 26.5899394,12.903375 Z M29.1523636,12.299875 C29.2126061,12.573575 29.2567273,12.8698 29.2885455,13.188975 C31.5909091,12.857475 31.5484848,13.80905 31.5484848,15.795925 L31.5484848,16.5282 L32.420303,16.349275 L32.420303,15.795925 C32.420303,12.71 31.9379394,11.8838 29.1523636,12.299875 Z M20.0765455,18.8283 L20.0765455,14.769975 C20.047697,12.2544 21.3441818,11.483875 23.7356364,10.924575 C27.3404242,10.077975 27.5695152,12.403575 27.5695152,13.8847 L27.5695152,17.325075 L28.4523636,17.148275 L28.4523636,13.960775 C28.4434545,11.15875 27.5712121,9.061375 23.5621212,9.970875 C21.4014545,10.461325 19.193697,11.012975 19.193697,14.6854 L19.193697,19.0034 L20.0765455,18.8283 Z" id="Shape"></path>
                </g>
            </g>
        </g>
    </g>
</svg>