<?xml version="1.0" encoding="UTF-8" standalone="no"?>
<svg width="181px" height="56px" viewBox="0 0 181 56" version="1.1" xmlns="http://www.w3.org/2000/svg" xmlns:xlink="http://www.w3.org/1999/xlink" xmlns:sketch="http://www.bohemiancoding.com/sketch/ns">
    <!-- Generator: Sketch 3.0.3 (7891) - http://www.bohemiancoding.com/sketch -->
    <title>label_google_wh</title>
    <desc>Created with Sketch.</desc>
    <defs></defs>
    <g id="Page-1" stroke="none" stroke-width="1" fill="none" fill-rule="evenodd" sketch:type="MSPage">
        <g id="label_google_wh" sketch:type="MSLayerGroup" transform="translate(0.418605, 0.054054)">
            <path d="M-0.418604651,9.94272931 L-0.418604651,44.9491626 C-0.418604651,50.4705675 4.05256223,54.9459459 9.57216247,54.9459459 L169.590628,54.9459459 C175.106895,54.9459459 179.581395,50.4657795 179.581395,44.9491626 L179.581395,9.94272931 C179.581395,4.42132436 175.110228,-0.0540540541 169.590628,-0.0540540541 L9.57216247,-0.0540540541 C4.05589578,-0.0540540541 -0.418604651,4.4261124 -0.418604651,9.94272931 Z" id="Rectangle-28" fill="#FFFFFF" sketch:type="MSShapeGroup"></path>
            <path d="M117.95933,38.6452703 L116.848298,39.6942162 C116.592223,39.8355 116.336837,39.999527 116.08214,40.116 C115.310474,40.4667973 114.52573,40.5550135 113.828409,40.5550135 C113.086344,40.5550135 111.922995,40.5074595 110.73693,39.6480405 C109.088279,38.4846892 108.367553,36.4867297 108.367553,34.7451486 C108.367553,31.1393108 111.29933,29.3708514 113.690047,29.3708514 C114.526419,29.3708514 115.384819,29.5803649 116.082828,30.0221351 C117.242735,30.7898919 117.543553,31.788527 117.71014,32.324027 L112.248595,34.5328784 L110.460205,34.6720946 C111.039126,37.628027 113.036781,39.3475541 115.244391,39.3475541 C116.346474,39.3475541 117.165637,38.9877973 117.916651,38.6156351 C117.916651,38.6163243 118.067405,38.5377568 117.95933,38.6452703 L117.95933,38.6452703 Z M114.664781,32.7644189 C115.108781,32.6031486 115.339386,32.4632432 115.339386,32.1400135 C115.339386,31.2109865 114.289619,30.1386081 113.036781,30.1386081 C112.108167,30.1386081 110.366586,30.8622568 110.366586,33.3743514 C110.366586,33.7665 110.412707,34.1841486 110.4368,34.6017973 L114.664781,32.7644189 Z M106.541991,38.4647027 C106.541991,39.3689189 106.70307,39.5095135 107.466474,39.5798108 C107.864353,39.6266757 108.260856,39.6480405 108.653916,39.6942162 L107.794828,40.2062838 L103.701079,40.2062838 C104.238009,39.5088243 104.330251,39.4399054 104.330251,38.9747027 L104.330251,38.4557432 L104.321302,24.6285405 L102.513637,24.6285405 L104.253153,23.7891081 L107.575237,23.7891081 C106.8552,24.2060676 106.640428,24.4610676 106.547498,25.2743108 L106.541991,38.4647027 Z M100.193135,30.5121486 C100.726623,30.9511622 101.839721,31.8822568 101.839721,33.650027 C101.839721,35.3723108 100.869805,36.1841757 99.8916279,36.9526216 C99.5914977,37.2544865 99.2411163,37.5832297 99.2411163,38.090473 C99.2411163,38.6046081 99.592186,38.8837297 99.8448186,39.0918649 L100.683944,39.7403919 C101.704112,40.6025676 102.634102,41.3930676 102.634102,42.9988784 C102.634102,45.1870541 100.519423,47.3924595 96.5234233,47.3924595 C93.1572837,47.3924595 91.5299721,45.788027 91.5299721,44.0671216 C91.5299721,43.2290676 91.9457488,42.042973 93.3204279,41.2311081 C94.7605023,40.3496351 96.7120372,40.2317838 97.7562977,40.1628649 C97.4300093,39.7410811 97.0576,39.2993108 97.0576,38.5784189 C97.0576,38.1842027 97.176,37.9491892 97.2902698,37.6721351 C97.0362605,37.6962568 96.780186,37.7210676 96.5475163,37.7210676 C94.0838326,37.7210676 92.6905674,35.8809324 92.6905674,34.0669865 C92.6905674,32.9973649 93.1779349,31.8112703 94.1788279,30.9511622 C95.5032558,29.8594865 97.0823814,29.6713378 98.3372837,29.6713378 L103.124223,29.6713378 L101.635963,30.5128378 L100.193135,30.5128378 L100.193135,30.5121486 Z M98.5465488,40.8368919 C98.3565581,40.8120811 98.2422884,40.8120811 98.0123721,40.8120811 C97.8017302,40.8120811 96.5468279,40.8575676 95.5748465,41.1842432 C95.0606326,41.3723919 93.5744372,41.9285676 93.5744372,43.5812432 C93.5744372,45.2297838 95.1790326,46.4179459 97.6619907,46.4179459 C99.8916279,46.4179459 101.076316,45.3476351 101.076316,43.9065405 C101.075628,42.7204459 100.30947,42.0946622 98.5465488,40.8368919 L98.5465488,40.8368919 Z M99.2149581,36.4178108 C99.7518884,35.8816216 99.7986977,35.1400541 99.7986977,34.7182703 C99.7986977,33.0456081 98.8026233,30.440473 96.8717395,30.440473 C96.269414,30.440473 95.6168372,30.743027 95.246493,31.2109865 C94.8541209,31.6954865 94.7364093,32.324027 94.7364093,32.9284459 C94.7364093,34.4860135 95.6429953,37.0690946 97.6392744,37.0690946 C98.2209488,37.0690946 98.8473674,36.7858378 99.2149581,36.4178108 L99.2149581,36.4178108 Z M85.791014,40.5074595 C82.098586,40.5074595 80.1229581,37.628027 80.1229581,35.0222027 C80.1229581,31.9766757 82.6066047,29.3708514 86.1393302,29.3708514 C89.5543442,29.3708514 91.6931163,32.0476622 91.6931163,34.8581757 C91.6931163,37.602527 89.5791256,40.5074595 85.791014,40.5074595 L85.791014,40.5074595 Z M88.6959442,38.625973 C89.2576558,37.8816486 89.3939535,36.9526216 89.3939535,36.047027 C89.3939535,33.9987568 88.4192186,30.0924324 85.5383814,30.0924324 C84.7722233,30.0924324 84.0005581,30.3922297 83.4443535,30.8815541 C82.5370791,31.6954865 82.3753116,32.7175541 82.3753116,33.7210135 C82.3753116,36.0187703 83.5090605,39.8086216 86.3245023,39.8086216 C87.2338419,39.8086216 88.1603907,39.3689189 88.6959442,38.625973 L88.6959442,38.625973 Z M73.4285395,40.5074595 C69.7354233,40.5074595 67.7632372,37.628027 67.7632372,35.0222027 C67.7632372,31.9766757 70.2475721,29.3708514 73.7789209,29.3708514 C77.1918698,29.3708514 79.3278884,32.0476622 79.3278884,34.8581757 C79.3278884,37.602527 77.2173395,40.5074595 73.4285395,40.5074595 L73.4285395,40.5074595 Z M76.3341581,38.625973 C76.8917395,37.8816486 77.0307907,36.9526216 77.0307907,36.047027 C77.0307907,33.9987568 76.0533023,30.0924324 73.1752186,30.0924324 C72.406307,30.0924324 71.6429023,30.3922297 71.0853209,30.8815541 C70.1766698,31.6954865 70.0155907,32.7175541 70.0155907,33.7210135 C70.0155907,36.0187703 71.1541581,39.8086216 73.9647814,39.8086216 C74.8720558,39.8086216 75.7972279,39.3689189 76.3341581,38.625973 L76.3341581,38.625973 Z M66.2866791,39.7004189 L63.1724837,40.4137297 C61.9106977,40.6129054 60.7776372,40.7886486 59.5778047,40.7886486 C53.5703814,40.7886486 51.2822326,36.3612973 51.2822326,32.8974324 C51.2822326,28.6658108 54.5251535,24.7436351 60.0782512,24.7436351 C61.2533023,24.7436351 62.3842977,24.9166216 63.4141023,25.1971216 C65.0462326,25.6568108 65.8089488,26.2219459 66.2866791,26.5541351 L64.4776372,28.2743514 L63.7149209,28.4452703 L64.2587349,27.5768919 C63.5221767,26.8566892 62.1681488,25.5272432 59.5984558,25.5272432 C56.1627907,25.5272432 53.5703814,28.142027 53.5703814,31.9594459 C53.5703814,36.0594324 56.5303814,39.9161351 61.2760186,39.9161351 C62.6706605,39.9161351 63.3886326,39.6356351 64.0405209,39.3737432 L64.0405209,35.8588784 L60.7528558,36.036 L62.495814,35.0987027 L67.1099721,35.0987027 L66.5461953,35.642473 C66.3933767,35.7720405 66.373414,35.8161486 66.3307349,35.9898243 C66.3080186,36.1883108 66.2866791,36.8196081 66.2866791,37.041527 L66.2866791,39.7004189 L66.2866791,39.7004189 Z M124.655814,38.7445135 L124.655814,44.6687838 L123.480763,44.6687838 L123.480763,29.5948378 L124.655814,29.5948378 L124.655814,31.3109189 C125.420595,30.2020135 126.820056,29.3219189 128.444614,29.3219189 C131.357805,29.3219189 133.321042,31.5349054 133.321042,35.0380541 C133.321042,38.5177703 131.357805,40.7769324 128.444614,40.7769324 C126.910233,40.7776216 125.53693,39.9857432 124.655814,38.7445135 L124.655814,38.7445135 Z M132.058567,35.0387432 C132.058567,32.3984595 130.683888,30.3846486 128.246363,30.3846486 C126.732633,30.3846486 125.284986,31.5762568 124.655814,32.6141757 L124.655814,37.4391892 C125.284986,38.4798649 126.732633,39.7142027 128.246363,39.7142027 C130.683888,39.7142027 132.058567,37.6831622 132.058567,35.0387432 Z M134.925637,40.5060811 L134.925637,25.4328243 L136.1,25.4328243 L136.1,40.5060811 L134.925637,40.5060811 Z M149.285079,43.6935811 C149.535647,43.8052297 149.964502,43.8748378 150.237098,43.8748378 C150.955758,43.8748378 151.456205,43.5805541 151.905712,42.5405676 L152.762735,40.5970541 L148.133433,29.5948378 L149.444093,29.5948378 L153.414623,39.1290811 L157.346605,29.5948378 L158.675851,29.5948378 L153.030512,42.9051486 C152.444707,44.2766351 151.522977,44.9361892 150.25706,44.9361892 C149.877079,44.9361892 149.376633,44.8679595 149.082698,44.7783649 L149.285079,43.6935811 Z M145.852856,40.473 C145.774381,40.0946351 145.715181,39.7617568 145.671814,39.4826351 C145.63533,39.2048919 145.615367,38.9209459 145.615367,38.6321757 C145.211981,39.2241892 144.641321,39.7169595 143.912335,40.1056622 C143.18266,40.4957432 142.490158,40.688027 141.538828,40.688027 C140.394065,40.688027 139.506065,40.4061486 138.871386,39.8341216 C138.23946,39.2627838 137.921433,38.4888243 137.921433,37.5094865 C137.921433,36.531527 138.381953,35.7375811 139.300242,35.1304054 C140.21853,34.520473 141.405972,34.2179189 142.87427,34.2179189 L145.615367,34.2179189 L145.615367,32.8615946 C145.615367,32.0807432 145.348967,31.4673649 144.818921,31.0214595 C144.286121,30.5762432 143.538549,30.3501892 142.568633,30.3501892 C141.682698,30.3501892 140.964037,30.5562568 140.416781,30.9573649 C139.874344,31.3667432 139.60106,31.8739865 139.60106,32.4852973 L138.398474,32.4852973 L138.373693,32.4267162 C138.329637,31.6031351 138.706865,30.8794865 139.507442,30.2557703 C140.303888,29.6320541 141.348837,29.318473 142.634028,29.318473 C143.9144,29.318473 144.951088,29.6272297 145.733079,30.2433649 C146.513693,30.8532973 146.905377,31.7347703 146.905377,32.8870946 L146.905377,38.2703514 C146.905377,38.6562973 146.923274,39.0298378 146.972149,39.3944189 C147.021712,39.759 147.100186,40.1228919 147.206195,40.4743784 L145.852856,40.4743784 L145.852856,40.473 Z M141.682698,39.6163378 C142.680837,39.6163378 143.398121,39.3930405 144.131926,38.9512703 C144.860223,38.5115676 145.355163,37.9388514 145.615367,37.245527 L145.615367,35.1503919 L142.861879,35.1503919 C141.810047,35.1503919 140.939256,35.3833378 140.254326,35.8540541 C139.568019,36.3227027 139.219702,36.8899054 139.219702,37.5494595 C139.219702,38.1711081 139.439981,38.6693919 139.878474,39.0463784 C140.317656,39.4275 140.917916,39.6163378 141.682698,39.6163378 Z M51.7448186,9.73654054 C52.2507721,9.40572973 52.8902698,9.17416216 53.7059907,9.17416216 C54.9953116,9.17416216 55.8874419,9.8475 55.8874419,10.9943108 C55.8874419,11.9102432 55.2155907,12.6166622 54.355814,12.8151486 L54.355814,12.8372027 C55.391814,12.947473 56.1627907,13.6311486 56.174493,14.7014595 C56.174493,16.2452432 54.8301023,16.8634459 53.4746977,16.8634459 C52.8021581,16.8634459 52.1082791,16.7200946 51.5355535,16.3782568 L51.7888744,15.6284189 C52.1970791,15.8599865 52.8469023,16.080527 53.4636837,16.080527 C54.5547535,16.080527 55.1612093,15.4843784 55.1612093,14.6683784 C55.1612093,13.5539595 54.0921674,13.2341757 53.1442791,13.2341757 L52.7037209,13.2341757 L52.7037209,12.5057027 L53.1332651,12.5057027 C54.1141953,12.5057027 54.8851721,11.8992162 54.8851721,11.1383514 C54.8851721,10.3774865 54.3454884,9.95777027 53.5517953,9.95777027 C52.9783814,9.95777027 52.4056558,10.1893378 51.9981395,10.4429595 L51.7448186,9.73654054 Z M58.9259163,14.4023514 L58.1549395,16.7414595 L57.1636837,16.7414595 L59.6982698,9.30648649 L60.8437209,9.30648649 L63.378307,16.7414595 L62.3540093,16.7414595 L61.5610047,14.4023514 L58.9259163,14.4023514 L58.9259163,14.4023514 Z M61.3717023,13.6525135 L60.6337674,11.5125811 C60.4685581,11.0273919 60.3584186,10.5856216 60.2475907,10.1555676 L60.2255628,10.1555676 C60.1154233,10.5856216 60.0059721,11.0487568 59.8510884,11.5008649 L59.1234791,13.6525135 L61.3717023,13.6525135 L61.3717023,13.6525135 Z M68.6856558,9.30648649 L68.6856558,10.1114595 L65.6994977,10.1114595 L65.6994977,16.7414595 L64.7295814,16.7414595 L64.7295814,9.30648649 L68.6856558,9.30648649 L68.6856558,9.30648649 Z M69.7856744,9.3947027 C70.2482605,9.31751351 70.8547163,9.25135135 71.625693,9.25135135 C72.5735814,9.25135135 73.2674605,9.47189189 73.7080186,9.86886486 C74.1045209,10.2217297 74.3578419,10.7620541 74.3578419,11.4243649 C74.3578419,12.0977027 74.1595907,12.6263108 73.7844279,13.0129459 C73.2667721,13.5532703 72.4510512,13.8296351 71.5148651,13.8296351 C71.2285023,13.8296351 70.9634791,13.8179189 70.7438884,13.763473 L70.7438884,16.7414595 L69.784986,16.7414595 L69.784986,9.3947027 L69.7856744,9.3947027 Z M70.7445767,12.9798649 C70.9538419,13.035 71.2181767,13.0570541 71.5375814,13.0570541 C72.6947349,13.0570541 73.3996279,12.4829595 73.3996279,11.4795 C73.3996279,10.4870676 72.6947349,10.0122162 71.6477209,10.0122162 C71.2291907,10.0122162 70.909786,10.0452973 70.7445767,10.0887162 L70.7445767,12.9798649 L70.7445767,12.9798649 Z M76.0629395,9.30648649 L77.540186,12.4946757 C77.7267349,12.9357568 77.9036465,13.3658108 78.0695442,13.7965541 L78.102586,13.7965541 C78.2340651,13.4209459 78.3779349,12.9908919 78.5541581,12.4609054 L79.7216372,9.30648649 L80.7356093,9.30648649 L79.1716279,13.1452703 C78.7751256,14.1377027 78.3118512,15.2741757 77.782493,15.9578514 C77.308893,16.565027 76.7685209,16.8737838 76.1076837,16.8737838 C75.8543628,16.8737838 75.6891535,16.8517297 75.568,16.8069324 L75.6561116,16.0240135 C75.7442233,16.0453784 75.8543628,16.0570946 76.0195721,16.0570946 C76.7795349,16.0570946 77.2317953,15.3182838 77.473414,14.7882973 C77.5505116,14.6228919 77.5284837,14.5126216 77.4403721,14.3361892 L74.9725581,9.3057973 L76.0629395,9.3057973 L76.0629395,9.30648649 Z M81.6366884,9.73654054 C82.1426419,9.40572973 82.7821395,9.17416216 83.5978605,9.17416216 C84.8871814,9.17416216 85.7793116,9.8475 85.7793116,10.9943108 C85.7793116,11.9102432 85.1074605,12.6166622 84.2476837,12.8151486 L84.2476837,12.8372027 C85.2836837,12.947473 86.0546605,13.6311486 86.0663628,14.7014595 C86.0663628,16.2452432 84.7219721,16.8634459 83.3665674,16.8634459 C82.6940279,16.8634459 82.0001488,16.7200946 81.4274233,16.3782568 L81.6807442,15.6284189 C82.0889488,15.8599865 82.7387721,16.080527 83.3555535,16.080527 C84.4466233,16.080527 85.0530791,15.4843784 85.0530791,14.6683784 C85.0530791,13.5539595 83.9840372,13.2341757 83.0361488,13.2341757 L82.5955907,13.2341757 L82.5955907,12.5057027 L83.0251349,12.5057027 C84.0060651,12.5057027 84.7770419,11.8992162 84.7770419,11.1383514 C84.7770419,10.3774865 84.2373581,9.95777027 83.4436651,9.95777027 C82.8702512,9.95777027 82.2975256,10.1893378 81.8900093,10.4429595 L81.6366884,9.73654054 L81.6366884,9.73654054 Z M88.5204093,9.30648649 L88.5204093,12.4395405 C88.5204093,13.6084054 88.4983814,14.5905 88.4322977,15.5836216 L88.4653395,15.5946486 C88.8288,14.8227568 89.291386,14.0177838 89.8310698,13.1349324 L92.2328,9.30717568 L93.191014,9.30717568 L93.191014,16.7421486 L92.2878698,16.7421486 L92.2878698,13.5760135 C92.2878698,12.3733784 92.2995721,11.4912162 92.3759814,10.5532297 L92.3429395,10.5415135 C91.9794791,11.3575135 91.4721488,12.219 90.965507,13.035 L88.6408744,16.7414595 L87.6165767,16.7414595 L87.6165767,9.30648649 L88.5204093,9.30648649 L88.5204093,9.30648649 Z M96.5495814,10.1224865 L94.2910326,10.1224865 L94.2910326,9.30648649 L99.7890605,9.30648649 L99.7890605,10.1224865 L97.5188093,10.1224865 L97.5188093,16.7414595 L96.5495814,16.7414595 L96.5495814,10.1224865 L96.5495814,10.1224865 Z M104.723312,13.2555405 L101.847293,13.2555405 L101.847293,15.9357973 L105.064744,15.9357973 L105.064744,16.7414595 L100.877377,16.7414595 L100.877377,9.30648649 L104.899535,9.30648649 L104.899535,10.1114595 L101.847293,10.1114595 L101.847293,12.4609054 L104.723312,12.4609054 L104.723312,13.2555405 L104.723312,13.2555405 Z M110.657767,9.30648649 L110.657767,12.4174865 L114.249693,12.4174865 L114.249693,9.30648649 L115.218921,9.30648649 L115.218921,16.7414595 L114.249693,16.7414595 L114.249693,13.2555405 L110.657767,13.2555405 L110.657767,16.7414595 L109.687851,16.7414595 L109.687851,9.30648649 L110.657767,9.30648649 L110.657767,9.30648649 Z M118.356521,14.4023514 L117.585544,16.7414595 L116.594288,16.7414595 L119.128874,9.30648649 L120.274326,9.30648649 L122.808912,16.7414595 L121.784614,16.7414595 L120.991609,14.4023514 L118.356521,14.4023514 L118.356521,14.4023514 Z M120.802307,13.6525135 L120.064372,11.5125811 C119.899163,11.0273919 119.789023,10.5856216 119.678195,10.1555676 L119.656167,10.1555676 C119.546028,10.5856216 119.436577,11.0487568 119.281693,11.5008649 L118.554084,13.6525135 L120.802307,13.6525135 L120.802307,13.6525135 Z" id="Shape" fill="#FE8D3A" sketch:type="MSShapeGroup"></path>
            <path d="M23.9070512,22.3797162 C23.4602977,22.5196216 23.1711814,22.9724189 23.1711814,23.657473 L23.1739349,45.2180676 C23.1739349,45.8948514 23.4541023,46.3414459 23.8884651,46.4903108 L35.939107,34.4253649 L23.9070512,22.3797162 Z M39.7265302,38.2165946 L44.7399442,35.4563919 C45.7566698,34.8947027 45.7566698,33.9801486 44.7399442,33.420527 L39.7079442,30.6499865 L35.9384186,34.4239865 L39.7265302,38.2165946 Z M39.7065674,30.6499865 L25.0187721,22.5644189 C24.602307,22.3362973 24.2181953,22.2832297 23.9070512,22.3797162 L35.9384186,34.4239865 L39.7065674,30.6499865 Z M23.8877767,46.491 C24.2002977,46.5971351 24.5926698,46.5475135 25.0187721,46.3131892 L39.7244651,38.2165946 L35.9384186,34.4260541 L23.8877767,46.491 Z" id="Shape" fill="#FE8D3A" sketch:type="MSShapeGroup"></path>
        </g>
    </g>
</svg>