<?xml version="1.0" encoding="UTF-8" standalone="no"?>
<svg width="180px" height="55px" viewBox="0 0 180 55" version="1.1" xmlns="http://www.w3.org/2000/svg" xmlns:xlink="http://www.w3.org/1999/xlink" xmlns:sketch="http://www.bohemiancoding.com/sketch/ns">
    <!-- Generator: Sketch 3.0.3 (7891) - http://www.bohemiancoding.com/sketch -->
    <title>label_appstore_transparent</title>
    <desc>Created with Sketch.</desc>
    <defs></defs>
    <g id="Page-1" stroke="none" stroke-width="1" fill="none" fill-rule="evenodd" sketch:type="MSPage">
        <g id="MOBILEAPP-2" sketch:type="MSLayerGroup" transform="translate(-881.000000, -480.000000)" fill="#FFFFFF">
            <g id="Group" transform="translate(879.000000, 228.000000)" sketch:type="MSShapeGroup">
                <g id="label_appstore_transparent" transform="translate(2.000000, 252.000000)">
                    <path d="M0,9.99678336 L0,45.0032166 C0,50.5246216 4.47116688,55 9.99076712,55 L170.009233,55 C175.5255,55 180,50.5198335 180,45.0032166 L180,9.99678336 C180,4.47537841 175.528833,0 170.009233,0 L9.99076712,0 C4.47450043,0 0,4.48016645 0,9.99678336 Z M2,9.99678336 L2,45.0032166 C2,49.4197181 5.57540357,53 9.99076712,53 L170.009233,53 C174.422412,53 178,49.413779 178,45.0032166 L178,9.99678336 C178,5.58028186 174.424596,2 170.009233,2 L9.99076712,2 C5.5775883,2 2,5.58622096 2,9.99678336 Z M40.5451538,26.8460667 C40.5071442,22.5768 44.0437404,20.5011 44.2054231,20.4059 C42.2028269,17.487 39.0990865,17.0903333 38.0070192,17.0586 C35.4002404,16.7849 32.8706154,18.6163667 31.5448173,18.6163667 C30.1889519,18.6163667 28.1438077,17.0852333 25.9415192,17.1288667 C23.1049808,17.1730667 20.4494135,18.813 18.9954038,21.3618667 C15.9915096,26.5548 18.232375,34.1861 21.1091923,38.3839667 C22.5478846,40.4415333 24.2305192,42.7371 26.4322404,42.6560667 C28.586875,42.5676667 29.39075,41.2841667 31.9895865,41.2841667 C34.5645962,41.2841667 35.3196827,42.6560667 37.5656538,42.6022333 C39.8757308,42.5676667 41.3320096,40.5367333 42.7213462,38.4633 C44.384125,36.1110667 45.0518462,33.7854667 45.0779423,33.6647667 C45.02575,33.6494667 40.5922404,31.9579667 40.5451538,26.8460667 Z M36.3045288,14.2966667 C37.4618365,12.8499667 38.2560673,10.8808 38.0348173,8.88443333 C36.3584231,8.95696667 34.2616538,10.0427 33.0538558,11.4582333 C31.98675,12.7043333 31.0331058,14.7477333 31.2776154,16.671 C33.1622115,16.8098333 35.0955962,15.7201333 36.3045288,14.2966667 Z" id="Rectangle-27"></path>
                    <path d="M71.7402692,42.3597 L68.7312692,42.3597 L67.0821058,37.1843333 L61.3522981,37.1843333 L59.7819904,42.3597 L56.8507115,42.3597 L62.5294615,24.7414667 L66.0365577,24.7414667 L71.7402692,42.3597 L71.7402692,42.3597 Z M66.5851442,35.014 L65.0936923,30.4138 C64.9376827,29.9429 64.6392788,28.8356333 64.2047212,27.0937 L64.1513942,27.0937 C63.9766635,27.8439667 63.6964135,28.9501 63.3146154,30.4138 L61.8486923,35.014 L66.5851442,35.014 L66.5851442,35.014 Z M86.3172404,35.8526667 C86.3172404,38.0122333 85.7306442,39.7201667 84.5540481,40.9736333 C83.5016923,42.0888333 82.1946154,42.647 80.6333846,42.647 C78.9490481,42.647 77.7367115,42.0474667 77.0014808,40.8444333 L77.0014808,47.5118333 L74.1762885,47.5118333 L74.1762885,33.8342 C74.1762885,32.4730667 74.1416827,31.0836 74.0707692,29.6561667 L76.5561442,29.6561667 L76.7149904,31.6706667 L76.76775,31.6706667 C77.7106154,30.1531333 79.1402308,29.3949333 81.0582981,29.3949333 C82.5599615,29.3949333 83.8125769,29.9859667 84.813875,31.1691667 C85.8151731,32.3580333 86.3172404,33.9175 86.3172404,35.8526667 M83.4387212,35.9546667 C83.4387212,34.7193333 83.1607404,33.6982 82.6008077,32.8946667 C81.98925,32.0599667 81.1689231,31.6417667 80.1398269,31.6417667 C79.4443077,31.6417667 78.810625,31.8752333 78.2444519,32.3353667 C77.6771442,32.7977667 77.3072596,33.4029667 77.1325288,34.1538 C77.0457308,34.5023 77.0014808,34.7862 77.0014808,35.0117333 L77.0014808,37.1310667 C77.0014808,38.0530333 77.2857019,38.8333333 77.851875,39.4719667 C78.4186154,40.1083333 79.1544135,40.4239667 80.0626731,40.4239667 C81.1269423,40.4239667 81.9546442,40.0142667 82.5474808,39.1954333 C83.1420192,38.3788667 83.4387212,37.2959667 83.4387212,35.9546667 M100.944702,35.8526667 C100.944702,38.0122333 100.356404,39.7201667 99.1826442,40.9736333 C98.1297212,42.0888333 96.8209423,42.647 95.2597115,42.647 C93.5765096,42.647 92.3647404,42.0474667 91.6289423,40.8444333 L91.6289423,47.5118333 L88.8026154,47.5118333 L88.8026154,33.8342 C88.8026154,32.4730667 88.7674423,31.0836 88.6993654,29.6561667 L91.1847404,29.6561667 L91.3413173,31.6706667 L91.3952115,31.6706667 C92.3352404,30.1531333 93.7648558,29.3949333 95.6868942,29.3949333 C97.1862885,29.3949333 98.4389038,29.9859667 99.4413365,31.1691667 C100.4415,32.3580333 100.944702,33.9175 100.944702,35.8526667 M98.0644808,35.9546667 C98.0644808,34.7193333 97.7853654,33.6982 97.2265673,32.8946667 C96.6172788,32.0599667 95.7969519,31.6417667 94.7689904,31.6417667 C94.0706346,31.6417667 93.4375192,31.8752333 92.8707788,32.3353667 C92.3029038,32.7977667 91.9347212,33.4029667 91.7588558,34.1538 C91.672625,34.5023 91.6266731,34.7862 91.6266731,35.0117333 L91.6266731,37.1310667 C91.6266731,38.0530333 91.9114615,38.8333333 92.4770673,39.4719667 C93.0460769,40.1038 93.7807404,40.4239667 94.6884327,40.4239667 C95.7549712,40.4239667 96.5838077,40.0142667 97.1738077,39.1954333 C97.7672115,38.3788667 98.0644808,37.2959667 98.0644808,35.9546667 M117.299615,37.4178 C117.299615,38.9194667 116.77599,40.1361 115.732712,41.0790333 C114.584481,42.1047 112.981269,42.6198 110.92875,42.6198 C109.029404,42.6198 107.509019,42.2554333 106.360221,41.5227333 L107.01376,39.1705 C108.252192,39.9037667 109.614865,40.2698333 111.096106,40.2698333 C112.162077,40.2698333 112.990346,40.029 113.580913,39.5496 C114.174317,39.0719 114.471587,38.4304333 114.471587,37.6297333 C114.471587,36.9157333 114.225942,36.3156333 113.739192,35.8277333 C113.250173,35.3387 112.440625,34.8848 111.30601,34.4660333 C108.217019,33.3174 106.672808,31.6327 106.672808,29.4204333 C106.672808,27.9748667 107.216856,26.7916667 108.307788,25.8685667 C109.397019,24.9432 110.840817,24.4819333 112.639183,24.4819333 C114.244096,24.4819333 115.580673,24.7607333 116.642673,25.3183333 L115.934106,27.6178667 C114.93451,27.0772667 113.806135,26.8064 112.54501,26.8064 C111.547115,26.8064 110.764798,27.0534667 110.204865,27.5425 C109.736269,27.9748667 109.496865,28.5064 109.496865,29.1365333 C109.496865,29.8324 109.769173,30.4098333 110.308683,30.8603333 C110.780115,31.2785333 111.632779,31.7335667 112.872913,32.2214667 C114.391029,32.8323333 115.506923,33.5429333 116.220596,34.3623333 C116.941077,35.1811667 117.299615,36.2006 117.299615,37.4178 M126.667,31.7732333 L123.551346,31.7732333 L123.551346,37.9425333 C123.551346,39.5122 124.101067,40.2942 125.199375,40.2942 C125.704846,40.2942 126.122952,40.2511333 126.454827,40.1638667 L126.533683,42.3058667 C125.977154,42.5144 125.243058,42.6181 124.3365,42.6181 C123.221173,42.6181 122.348087,42.2764 121.718375,41.5964 C121.090365,40.9175333 120.776077,39.7757 120.776077,38.1720333 L120.776077,31.7692667 L118.922683,31.7692667 L118.922683,29.6505 L120.776077,29.6505 L120.776077,27.3232 L123.551346,26.4868 L123.551346,29.6505 L126.667,29.6505 L126.667,31.7732333 M140.689712,35.9025333 C140.689712,37.8564 140.133183,39.4578 139.015587,40.7118333 C137.848067,42.0021333 136.295346,42.647 134.358558,42.647 C132.489846,42.647 131.004635,42.0287667 129.896115,40.7934333 C128.788163,39.5547 128.234471,37.9963667 128.234471,36.1139 C128.234471,34.1464333 128.806317,32.5337 129.948308,31.2785333 C131.090865,30.0256333 132.629971,29.3989 134.56676,29.3989 C136.434337,29.3989 137.930894,30.0171333 139.067212,31.2536 C140.150769,32.4549333 140.689712,34.0030667 140.689712,35.9025333 M137.761837,35.9671333 C137.761837,34.8037667 137.509385,33.8053 137.004481,32.9723 C136.412779,31.9625 135.564654,31.4570333 134.465212,31.4570333 C133.333433,31.4570333 132.464317,31.9625 131.874885,32.9723 C131.367144,33.8053 131.116962,34.8219 131.116962,36.0209667 C131.116962,37.1843333 131.367144,38.1873333 131.874885,39.0180667 C132.485875,40.029 133.338538,40.5333333 134.442519,40.5333333 C135.522106,40.5333333 136.369096,40.0165333 136.98349,38.9948333 C137.49974,38.1403 137.761837,37.1344667 137.761837,35.9671333 M149.879529,32.1387333 C149.599279,32.0866 149.30201,32.0599667 148.988856,32.0599667 C147.994933,32.0599667 147.227365,32.4334 146.686154,33.1842333 C146.214154,33.8483667 145.980423,34.6830667 145.980423,35.6945667 L145.980423,42.3597 L143.154663,42.3597 L143.154663,33.6551333 C143.154663,32.1931333 143.128,30.8586333 143.071837,29.6573 L145.532817,29.6573 L145.636635,32.0888667 L145.71549,32.0888667 C146.014462,31.2519 146.48476,30.5804 147.127519,30.0755 C147.756663,29.6199 148.437433,29.3938 149.170394,29.3938 C149.431923,29.3938 149.667356,29.4136333 149.878394,29.4459333 L149.879529,32.1387333 M162.516875,35.4067 C162.516875,35.9133 162.484538,36.3388667 162.41476,36.6851 L153.938048,36.6851 C153.968683,37.9425333 154.380548,38.9013333 155.167971,39.5637667 C155.881077,40.1559333 156.805221,40.4528667 157.939837,40.4528667 C159.194721,40.4528667 160.340115,40.2534 161.368077,39.8505 L161.812279,41.8100333 C160.609019,42.3342 159.187913,42.5931667 157.54726,42.5931667 C155.575298,42.5931667 154.027683,42.0146 152.901577,40.8591667 C151.778308,39.7003333 151.215538,38.1442667 151.215538,36.1949333 C151.215538,34.2790333 151.73576,32.6855667 152.785846,31.4105667 C153.884154,30.0522667 155.365962,29.3739667 157.232971,29.3739667 C159.065942,29.3739667 160.454144,30.0522667 161.396442,31.4105667 C162.142452,32.4872333 162.516875,33.8217333 162.516875,35.4067 M159.822731,34.674 C159.843154,33.8376 159.657077,33.1156667 159.274144,32.5048 C158.78399,31.7194 158.03174,31.3272667 157.021933,31.3272667 C156.098356,31.3272667 155.34724,31.7080667 154.773125,32.4770333 C154.303394,33.0873333 154.023712,33.8217333 153.938048,34.674 L159.822731,34.674 M65.2298462,18.4367333 L63.7537115,18.4367333 L62.9435962,15.8952333 L60.1269135,15.8952333 L59.3559423,18.4367333 L57.9166827,18.4367333 L60.7072692,9.78203333 L62.4296154,9.78203333 L65.2298462,18.4367333 L65.2298462,18.4367333 Z M62.6985192,14.8282 L61.966125,12.5672 C61.8867019,12.3371333 61.7437404,11.7931333 61.5281635,10.9369 L61.5020673,10.9369 C61.4175385,11.3035333 61.2796827,11.8486667 61.0924712,12.5672 L60.3725577,14.8282 L62.6985192,14.8282 L62.6985192,14.8282 Z M72.1986538,12.1954667 L69.8329808,18.4361667 L68.4822212,18.4361667 L66.1942692,12.1954667 L67.6851538,12.1954667 L68.7522596,15.4957333 C68.9315288,16.0437 69.083,16.5712667 69.2027019,17.0750333 L69.2395769,17.0750333 C69.3428269,16.6217 69.4908942,16.0952667 69.6905865,15.4957333 L70.742375,12.1954667 L72.1986538,12.1954667 M78.4991731,18.4361667 L77.2510962,18.4361667 L77.1472788,17.7170667 L77.1092692,17.7170667 C76.6820865,18.2905333 76.0727981,18.5772667 75.285375,18.5772667 C74.6936731,18.5772667 74.2171346,18.3874333 73.8563269,18.0128667 C73.5306923,17.6711667 73.3690096,17.2467333 73.3690096,16.7418333 C73.3690096,15.9796667 73.6872692,15.3977 74.326625,14.9953667 C74.9642788,14.5924667 75.8634615,14.3958333 77.0190673,14.4054667 L77.0190673,14.2870333 C77.0190673,13.4676333 76.5867788,13.0556667 75.7216346,13.0556667 C75.1049712,13.0556667 74.5620577,13.2098 74.0883558,13.5169333 L73.8069712,12.6068667 C74.3878942,12.2481667 75.1049712,12.0679667 75.9536635,12.0679667 C77.5920481,12.0679667 78.4089712,12.9287333 78.4089712,14.6502667 L78.4089712,16.9486667 C78.4089712,17.5714333 78.4384712,18.0678333 78.4991731,18.4361667 M77.0593462,16.2919 L77.0593462,15.3285667 C75.5247788,15.3025 74.7583462,15.7218333 74.7583462,16.5871333 C74.7583462,16.9135333 74.8468462,17.1560667 75.02725,17.3198333 C75.2065192,17.4819 75.432875,17.5623667 75.7046154,17.5623667 C76.0109615,17.5623667 76.29575,17.4660333 76.5550096,17.2733667 C76.8148365,17.0807 76.9753846,16.8359 77.0338173,16.5361333 L77.0593462,16.2919 M82.3699135,10.3322667 C82.3699135,10.5827333 82.2870865,10.7810667 82.1225673,10.9374667 C81.9608846,11.0921667 81.7515481,11.1675333 81.4934231,11.1675333 C81.2613942,11.1675333 81.0685096,11.0882 80.9102308,10.9318 C80.7519519,10.7742667 80.6708269,10.5742333 80.6708269,10.3345333 C80.6708269,10.0937 80.7542212,9.89706667 80.9159038,9.74406667 C81.0787212,9.58993333 81.2801154,9.51286667 81.5212212,9.51286667 C81.7600577,9.51286667 81.9608846,9.58993333 82.1242692,9.74406667 C82.2870865,9.89706667 82.3699135,10.0937 82.3699135,10.3322667 L82.3699135,10.3322667 Z M80.8257019,12.1954667 L82.2133365,12.1954667 L82.2133365,18.4361667 L80.8257019,18.4361667 L80.8257019,12.1954667 Z M84.6822596,9.3321 L86.0693269,9.3321 L86.0693269,18.4356 L84.6822596,18.4356 L84.6822596,9.3321 Z M93.2298846,18.4361667 L91.9818077,18.4361667 L91.8808269,17.7170667 L91.8456538,17.7170667 C91.4145,18.2905333 90.8080481,18.5772667 90.0183558,18.5772667 C89.4277885,18.5772667 88.9518173,18.3874333 88.5910096,18.0128667 C88.265375,17.6711667 88.1019904,17.2467333 88.1019904,16.7418333 C88.1019904,15.9796667 88.4213846,15.3977 89.0601731,14.9953667 C89.6995288,14.5924667 90.5953077,14.3958333 91.75375,14.4054667 L91.75375,14.2870333 C91.75375,13.4676333 91.3214615,13.0556667 90.45575,13.0556667 C89.8373846,13.0556667 89.2939038,13.2098 88.8230385,13.5169333 L88.5393846,12.6068667 C89.1220096,12.2481667 89.8373846,12.0679667 90.6860769,12.0679667 C92.3238942,12.0679667 93.1413846,12.9287333 93.1413846,14.6502667 L93.1413846,16.9486667 C93.1391154,17.5714333 93.1708846,18.0678333 93.2298846,18.4361667 M91.790625,16.2919 L91.790625,15.3285667 C90.2549231,15.3025 89.489625,15.7218333 89.489625,16.5871333 C89.489625,16.9135333 89.578125,17.1560667 89.7579615,17.3198333 C89.9372308,17.4819 90.1635865,17.5623667 90.4358942,17.5623667 C90.7416731,17.5623667 91.0247596,17.4660333 91.2857212,17.2733667 C91.5438462,17.0807 91.7055288,16.8359 91.7645288,16.5361333 L91.790625,16.2919 M101.521654,15.2265667 C101.521654,16.2794333 101.230625,17.1181 100.649702,17.7431333 C100.134019,18.2984667 99.5065769,18.5778333 98.7582981,18.5778333 C97.8664904,18.5778333 97.21125,18.2106333 96.790875,17.4745333 L96.7653462,17.4745333 L96.6898942,18.4384333 L95.5053558,18.4384333 C95.537125,17.9341 95.5547115,17.3719667 95.5547115,16.756 L95.5547115,9.33323333 L96.9440481,9.33323333 L96.9440481,13.1072333 C97.3564808,12.4142 98.0242019,12.0668333 98.9483462,12.0668333 C99.7068365,12.0668333 100.325202,12.3558333 100.802875,12.9349667 C101.283952,13.5107 101.521654,14.2774 101.521654,15.2265667 M100.11076,15.2775667 C100.11076,14.6689667 99.9723365,14.1742667 99.696625,13.7883667 C99.3959519,13.3690333 98.988625,13.1576667 98.4740769,13.1576667 C98.1314231,13.1576667 97.8239423,13.2698667 97.5499327,13.492 C97.2753558,13.7147 97.0921154,14.0088 96.9990769,14.3788333 C96.9627692,14.5233333 96.9480192,14.6689667 96.9480192,14.8146 L96.9480192,15.9043 C96.9480192,16.3349667 97.0875769,16.7021667 97.3752019,17.0093 C97.6633942,17.3164333 98.0202308,17.4711333 98.4513846,17.4711333 C98.973875,17.4711333 99.3800673,17.2756333 99.6727981,16.8812333 C99.9632596,16.4896667 100.11076,15.9541667 100.11076,15.2775667 M103.578712,9.3321 L104.968615,9.3321 L104.968615,18.4356 L103.578712,18.4356 L103.578712,9.3321 Z M112.579615,15.0208667 C112.579615,15.2702 112.559192,15.4787333 112.52799,15.6493 L108.36225,15.6493 C108.378702,16.2669667 108.579529,16.7367333 108.963596,17.0614333 C109.318163,17.3544 109.76974,17.4994667 110.328538,17.4994667 C110.945202,17.4994667 111.506837,17.4014333 112.011173,17.2031 L112.22675,18.1687 C111.63675,18.4242667 110.939529,18.5529 110.133385,18.5529 C109.16499,18.5529 108.404798,18.2678667 107.849971,17.6995 C107.297981,17.13 107.022269,16.3667 107.022269,15.4067667 C107.022269,14.4666667 107.277558,13.6824 107.79551,13.0568 C108.334452,12.3909667 109.06174,12.0560667 109.979077,12.0560667 C110.87826,12.0560667 111.558462,12.3909667 112.023654,13.0568 C112.393538,13.5860667 112.579615,14.2422667 112.579615,15.0208667 M111.254952,14.6616 C111.261192,14.2502 111.173827,13.8949 110.985481,13.5962667 C110.742673,13.2115 110.376192,13.0177 109.878663,13.0177 C109.423683,13.0177 109.056635,13.2052667 108.770712,13.5826667 C108.540385,13.8841333 108.4065,14.2422667 108.36225,14.6616 L111.254952,14.6616 M124.059654,15.2639667 C124.059654,16.2244667 123.785077,17.011 123.235923,17.6269667 C122.660106,18.2616333 121.897644,18.5778333 120.946837,18.5778333 C120.030067,18.5778333 119.299375,18.2746667 118.755327,17.6655 C118.212413,17.0586 117.940106,16.2919 117.940106,15.3671 C117.940106,14.4003667 118.219788,13.6076 118.783692,12.9916333 C119.34476,12.3779333 120.099279,12.0685333 121.051221,12.0685333 C121.96799,12.0685333 122.706058,12.3722667 123.264288,12.9791667 C123.794154,13.5690667 124.059654,14.3318 124.059654,15.2639667 M122.618125,15.2974 C122.618125,14.7250667 122.494452,14.2354667 122.245404,13.8246333 C121.953808,13.3299333 121.540808,13.084 121.001865,13.084 C120.443635,13.084 120.018721,13.3299333 119.72826,13.8246333 C119.478077,14.2354667 119.354404,14.7352667 119.354404,15.3234667 C119.354404,15.8969333 119.481481,16.3859667 119.72826,16.7956667 C120.030067,17.2903667 120.448173,17.5391333 120.989385,17.5391333 C121.516413,17.5391333 121.935087,17.2869667 122.231221,16.7849 C122.491048,16.3638667 122.618125,15.8691667 122.618125,15.2974 M131.541875,18.4367333 L130.15424,18.4367333 L130.15424,14.8525667 C130.15424,13.7475667 129.734433,13.1967667 128.893683,13.1967667 C128.480683,13.1967667 128.15051,13.3492 127.891817,13.6523667 C127.632558,13.9561 127.506048,14.3142333 127.506048,14.7245 L127.506048,18.4350333 L126.116144,18.4350333 L126.116144,13.9793333 C126.116144,13.4296667 126.099125,12.8352333 126.065654,12.1920667 L127.2865,12.1920667 L127.350606,13.1559667 L127.38975,13.1559667 C127.551433,12.8579 127.792538,12.6091333 128.109096,12.4125 C128.485788,12.1813 128.905596,12.0651333 129.367385,12.0651333 C129.950577,12.0651333 130.437327,12.2544 130.822529,12.6318 C131.303038,13.0930667 131.541875,13.7827 131.541875,14.6984333 L131.541875,18.4367333 M140.629577,13.2347333 L139.101817,13.2347333 L139.101817,16.2669667 C139.101817,17.0370667 139.369019,17.4212667 139.910231,17.4212667 C140.159279,17.4212667 140.365212,17.4008667 140.524625,17.3566667 L140.564904,18.4106667 C140.291462,18.5138 139.930654,18.5653667 139.485317,18.5653667 C138.937865,18.5653667 138.511817,18.3970667 138.202635,18.065 C137.892885,17.7301 137.736875,17.1691 137.736875,16.3808667 L137.736875,13.2347333 L136.824077,13.2347333 L136.824077,12.1960333 L137.736875,12.1960333 L137.736875,11.0525 L139.098413,10.6422333 L139.098413,12.1943333 L140.629577,12.1943333 L140.629577,13.2347333 M147.969971,18.4367333 L146.581202,18.4367333 L146.581202,14.8786333 C146.581202,13.7566333 146.159692,13.1967667 145.321779,13.1967667 C144.680154,13.1967667 144.237654,13.5214667 143.997115,14.1725667 C143.954567,14.3102667 143.932442,14.4763 143.932442,14.6723667 L143.932442,18.4350333 L142.544808,18.4350333 L142.544808,9.33323333 L143.932442,9.33323333 L143.932442,13.0823 L143.957971,13.0823 C144.394231,12.4057 145.02451,12.0685333 145.834058,12.0685333 C146.412144,12.0685333 146.884712,12.2561 147.26424,12.6335 C147.733404,13.1038333 147.969971,13.8031 147.969971,14.7262 L147.969971,18.4367333 M155.120317,15.0208667 C155.120317,15.2702 155.103298,15.4787333 155.068125,15.6493 L150.904087,15.6493 C150.919404,16.2669667 151.121933,16.7367333 151.506567,17.0614333 C151.857731,17.3544 152.311577,17.4994667 152.867538,17.4994667 C153.485904,17.4994667 154.048673,17.4014333 154.549038,17.2031 L154.768587,18.1687 C154.178019,18.4242667 153.477394,18.5529 152.67125,18.5529 C151.705125,18.5529 150.943231,18.2678667 150.388971,17.6995 C149.836413,17.13 149.560135,16.3667 149.560135,15.4067667 C149.560135,14.4666667 149.816558,13.6824 150.331673,13.0568 C150.871183,12.3909667 151.600173,12.0560667 152.514673,12.0560667 C153.41726,12.0560667 154.099163,12.3909667 154.560952,13.0568 C154.933673,13.5860667 155.120317,14.2422667 155.120317,15.0208667 M153.795087,14.6616 C153.803596,14.2502 153.71226,13.8949 153.526183,13.5962667 C153.28451,13.2115 152.916894,13.0177 152.419933,13.0177 C151.964952,13.0177 151.596769,13.2052667 151.313683,13.5826667 C151.081654,13.8841333 150.946635,14.2422667 150.904087,14.6616 L153.795087,14.6616" id="Fill-4"></path>
                </g>
            </g>
        </g>
    </g>
</svg>