<?xml version="1.0" encoding="UTF-8" standalone="no"?>
<svg width="180px" height="55px" viewBox="0 0 180 55" version="1.1" xmlns="http://www.w3.org/2000/svg" xmlns:xlink="http://www.w3.org/1999/xlink" xmlns:sketch="http://www.bohemiancoding.com/sketch/ns">
    <!-- Generator: Sketch 3.0.3 (7891) - http://www.bohemiancoding.com/sketch -->
    <title>label_google_transparent</title>
    <desc>Created with Sketch.</desc>
    <defs></defs>
    <g id="Page-1" stroke="none" stroke-width="1" fill="none" fill-rule="evenodd" sketch:type="MSPage">
        <g id="MOBILEAPP-2" sketch:type="MSLayerGroup" transform="translate(-881.000000, -568.000000)" fill="#FFFFFF">
            <g id="Group" transform="translate(879.000000, 228.000000)" sketch:type="MSShapeGroup">
                <g id="label_google_transparent" transform="translate(2.000000, 340.000000)">
                    <path d="M0,9.99678336 L0,45.0032166 C0,50.5246216 4.47116688,55 9.99076712,55 L170.009233,55 C175.5255,55 180,50.5198335 180,45.0032166 L180,9.99678336 C180,4.47537841 175.528833,0 170.009233,0 L9.99076712,0 C4.47450043,0 0,4.48016645 0,9.99678336 Z M2,9.99678336 L2,45.0032166 C2,49.4197181 5.57540357,53 9.99076712,53 L170.009233,53 C174.422412,53 178,49.413779 178,45.0032166 L178,9.99678336 C178,5.58028186 174.424596,2 170.009233,2 L9.99076712,2 C5.5775883,2 2,5.58622096 2,9.99678336 Z" id="Rectangle-28"></path>
                    <path d="M27.3195581,43.5283007 L24.3070698,46.5443649 C23.872707,46.3955 23.5925395,45.9489054 23.5925395,45.2721216 L23.589786,23.711527 C23.589786,23.026473 23.8789023,22.5736757 24.3256558,22.4337703 L36.3577116,34.4794189 L30.3320465,40.5122365 L36.3570233,34.4801081 L40.1430698,38.2706486 L40.1451349,38.2706486 L36.3570233,34.4780405 L40.1265488,30.7040405 L40.1251721,30.7040405 L38.2410977,32.5910405 L40.1251721,30.7040405 L25.4373767,22.618473 C25.0209116,22.3903514 24.6368,22.3372838 24.3256558,22.4337703 L36.3570233,34.4801081 L33.3445349,37.4961723 L36.3570233,34.4801081 L40.1430698,38.2706486 L25.4373767,46.3672432 C25.0112744,46.6015676 24.6189023,46.6511892 24.3063814,46.5450541 L27.3195581,43.5283007 Z M40.1451349,38.2706486 L45.1585488,35.5104459 C46.1752744,34.9487568 46.1752744,34.0342027 45.1585488,33.4745811 L40.1265488,30.7040405 L36.3570233,34.4780405 L40.1451349,38.2706486 Z" id="Shape"></path>
                    <path d="M125.074419,38.7985676 L125.074419,44.7228378 L123.899367,44.7228378 L123.899367,29.6488919 L125.074419,29.6488919 L125.074419,31.364973 C125.8392,30.2560676 127.23866,29.375973 128.863219,29.375973 C131.776409,29.375973 133.739647,31.5889595 133.739647,35.0921081 C133.739647,38.5718243 131.776409,40.8309865 128.863219,40.8309865 C127.328837,40.8316757 125.955535,40.0397973 125.074419,38.7985676 L125.074419,38.7985676 Z M132.477172,35.0927973 C132.477172,32.4525135 131.102493,30.4387027 128.664967,30.4387027 C127.151237,30.4387027 125.703591,31.6303108 125.074419,32.6682297 L125.074419,37.4932432 C125.703591,38.5339189 127.151237,39.7682568 128.664967,39.7682568 C131.102493,39.7682568 132.477172,37.7372162 132.477172,35.0927973 Z M135.344242,40.5601351 L135.344242,25.4868784 L136.518605,25.4868784 L136.518605,40.5601351 L135.344242,40.5601351 Z M149.703684,43.7476351 C149.954251,43.8592838 150.383107,43.9288919 150.655702,43.9288919 C151.374363,43.9288919 151.874809,43.6346081 152.324316,42.5946216 L153.18134,40.6511081 L148.552037,29.6488919 L149.862698,29.6488919 L153.833228,39.1831351 L157.765209,29.6488919 L159.094456,29.6488919 L153.449116,42.9592027 C152.863312,44.3306892 151.941581,44.9902432 150.675665,44.9902432 C150.295684,44.9902432 149.795237,44.9220135 149.501302,44.8324189 L149.703684,43.7476351 Z M146.27146,40.5270541 C146.192986,40.1486892 146.133786,39.8158108 146.090419,39.5366892 C146.053935,39.2589459 146.033972,38.975 146.033972,38.6862297 C145.630586,39.2782432 145.059926,39.7710135 144.33094,40.1597162 C143.601265,40.5497973 142.908763,40.7420811 141.957433,40.7420811 C140.81267,40.7420811 139.92467,40.4602027 139.289991,39.8881757 C138.658065,39.3168378 138.340037,38.5428784 138.340037,37.5635405 C138.340037,36.5855811 138.800558,35.7916351 139.718847,35.1844595 C140.637135,34.574527 141.824577,34.271973 143.292874,34.271973 L146.033972,34.271973 L146.033972,32.9156486 C146.033972,32.1347973 145.767572,31.5214189 145.237526,31.0755135 C144.704726,30.6302973 143.957153,30.4042432 142.987237,30.4042432 C142.101302,30.4042432 141.382642,30.6103108 140.835386,31.0114189 C140.292949,31.4207973 140.019665,31.9280405 140.019665,32.5393514 L138.817079,32.5393514 L138.792298,32.4807703 C138.748242,31.6571892 139.12547,30.9335405 139.926047,30.3098243 C140.722493,29.6861081 141.767442,29.372527 143.052633,29.372527 C144.333005,29.372527 145.369693,29.6812838 146.151684,30.2974189 C146.932298,30.9073514 147.323981,31.7888243 147.323981,32.9411486 L147.323981,38.3244054 C147.323981,38.7103514 147.341879,39.0838919 147.390753,39.448473 C147.440316,39.8130541 147.518791,40.1769459 147.6248,40.5284324 L146.27146,40.5284324 L146.27146,40.5270541 Z M142.101302,39.6703919 C143.099442,39.6703919 143.816726,39.4470946 144.55053,39.0053243 C145.278828,38.5656216 145.773767,37.9929054 146.033972,37.2995811 L146.033972,35.2044459 L143.280484,35.2044459 C142.228651,35.2044459 141.35786,35.4373919 140.67293,35.9081081 C139.986623,36.3767568 139.638307,36.9439595 139.638307,37.6035135 C139.638307,38.2251622 139.858586,38.7234459 140.297079,39.1004324 C140.73626,39.4815541 141.336521,39.6703919 142.101302,39.6703919 L142.101302,39.6703919 Z M118.377935,38.6993243 L117.266902,39.7482703 C117.010828,39.8895541 116.755442,40.0535811 116.500744,40.1700541 C115.729079,40.5208514 114.944335,40.6090676 114.247014,40.6090676 C113.504949,40.6090676 112.3416,40.5615135 111.155535,39.7020946 C109.506884,38.5387432 108.786158,36.5407838 108.786158,34.7992027 C108.786158,31.1933649 111.717935,29.4249054 114.108651,29.4249054 C114.945023,29.4249054 115.803423,29.6344189 116.501433,30.0761892 C117.66134,30.8439459 117.962158,31.8425811 118.128744,32.3780811 L112.6672,34.5869324 L110.878809,34.7261486 C111.45773,37.6820811 113.455386,39.4016081 115.662995,39.4016081 C116.765079,39.4016081 117.584242,39.0418514 118.335256,38.6696892 C118.335256,38.6703784 118.486009,38.5918108 118.377935,38.6993243 L118.377935,38.6993243 Z M115.083386,32.818473 C115.527386,32.6572027 115.757991,32.5172973 115.757991,32.1940676 C115.757991,31.2650405 114.708223,30.1926622 113.455386,30.1926622 C112.526772,30.1926622 110.785191,30.9163108 110.785191,33.4284054 C110.785191,33.8205541 110.831312,34.2382027 110.855405,34.6558514 L115.083386,32.818473 Z M106.960595,38.5187568 C106.960595,39.422973 107.121674,39.5635676 107.885079,39.6338649 C108.282958,39.6807297 108.67946,39.7020946 109.072521,39.7482703 L108.213433,40.2603378 L104.119684,40.2603378 C104.656614,39.5628784 104.748856,39.4939595 104.748856,39.0287568 L104.748856,38.5097973 L104.739907,24.6825946 L102.932242,24.6825946 L104.671758,23.8431622 L107.993842,23.8431622 C107.273805,24.2601216 107.059033,24.5151216 106.966102,25.3283649 L106.960595,38.5187568 Z M100.61174,30.5662027 C101.145228,31.0052162 102.258326,31.9363108 102.258326,33.7040811 C102.258326,35.4263649 101.288409,36.2382297 100.310233,37.0066757 C100.010102,37.3085405 99.6597209,37.6372838 99.6597209,38.144527 C99.6597209,38.6586622 100.010791,38.9377838 100.263423,39.1459189 L101.102549,39.7944459 C102.122716,40.6566216 103.052707,41.4471216 103.052707,43.0529324 C103.052707,45.2411081 100.938028,47.4465135 96.9420279,47.4465135 C93.5758884,47.4465135 91.9485767,45.8420811 91.9485767,44.1211757 C91.9485767,43.2831216 92.3643535,42.097027 93.7390326,41.2851622 C95.179107,40.4036892 97.1306419,40.2858378 98.1749023,40.2169189 C97.848614,39.7951351 97.4762047,39.3533649 97.4762047,38.632473 C97.4762047,38.2382568 97.5946047,38.0032432 97.7088744,37.7261892 C97.4548651,37.7503108 97.1987907,37.7751216 96.9661209,37.7751216 C94.5024372,37.7751216 93.1091721,35.9349865 93.1091721,34.1210405 C93.1091721,33.0514189 93.5965395,31.8653243 94.5974326,31.0052162 C95.9218605,29.9135405 97.500986,29.7253919 98.7558884,29.7253919 L103.542828,29.7253919 L102.054567,30.5668919 L100.61174,30.5668919 L100.61174,30.5662027 Z M98.9651535,40.8909459 C98.7751628,40.8661351 98.660893,40.8661351 98.4309767,40.8661351 C98.2203349,40.8661351 96.9654326,40.9116216 95.9934512,41.2382973 C95.4792372,41.4264459 93.9930419,41.9826216 93.9930419,43.6352973 C93.9930419,45.2838378 95.5976372,46.472 98.0805953,46.472 C100.310233,46.472 101.494921,45.4016892 101.494921,43.9605946 C101.494233,42.7745 100.728074,42.1487162 98.9651535,40.8909459 L98.9651535,40.8909459 Z M99.6335628,36.4718649 C100.170493,35.9356757 100.217302,35.1941081 100.217302,34.7723243 C100.217302,33.0996622 99.2212279,30.494527 97.2903442,30.494527 C96.6880186,30.494527 96.0354419,30.7970811 95.6650977,31.2650405 C95.2727256,31.7495405 95.155014,32.3780811 95.155014,32.9825 C95.155014,34.5400676 96.0616,37.1231486 98.0578791,37.1231486 C98.6395535,37.1231486 99.2659721,36.8398919 99.6335628,36.4718649 L99.6335628,36.4718649 Z M86.2096186,40.5615135 C82.5171907,40.5615135 80.5415628,37.6820811 80.5415628,35.0762568 C80.5415628,32.0307297 83.0252093,29.4249054 86.5579349,29.4249054 C89.9729488,29.4249054 92.1117209,32.1017162 92.1117209,34.9122297 C92.1117209,37.6565811 89.9977302,40.5615135 86.2096186,40.5615135 L86.2096186,40.5615135 Z M89.1145488,38.680027 C89.6762605,37.9357027 89.8125581,37.0066757 89.8125581,36.1010811 C89.8125581,34.0528108 88.8378233,30.1464865 85.956986,30.1464865 C85.1908279,30.1464865 84.4191628,30.4462838 83.8629581,30.9356081 C82.9556837,31.7495405 82.7939163,32.7716081 82.7939163,33.7750676 C82.7939163,36.0728243 83.9276651,39.8626757 86.743107,39.8626757 C87.6524465,39.8626757 88.5789953,39.422973 89.1145488,38.680027 L89.1145488,38.680027 Z M73.8471442,40.5615135 C70.1540279,40.5615135 68.1818419,37.6820811 68.1818419,35.0762568 C68.1818419,32.0307297 70.6661767,29.4249054 74.1975256,29.4249054 C77.6104744,29.4249054 79.746493,32.1017162 79.746493,34.9122297 C79.746493,37.6565811 77.6359442,40.5615135 73.8471442,40.5615135 L73.8471442,40.5615135 Z M76.7527628,38.680027 C77.3103442,37.9357027 77.4493953,37.0066757 77.4493953,36.1010811 C77.4493953,34.0528108 76.471907,30.1464865 73.5938233,30.1464865 C72.8249116,30.1464865 72.061507,30.4462838 71.5039256,30.9356081 C70.5952744,31.7495405 70.4341953,32.7716081 70.4341953,33.7750676 C70.4341953,36.0728243 71.5727628,39.8626757 74.383386,39.8626757 C75.2906605,39.8626757 76.2158326,39.422973 76.7527628,38.680027 Z M66.7052837,39.754473 L63.5910884,40.4677838 C62.3293023,40.6669595 61.1962419,40.8427027 59.9964093,40.8427027 C53.988986,40.8427027 51.7008372,36.4153514 51.7008372,32.9514865 C51.7008372,28.7198649 54.9437581,24.7976892 60.4968558,24.7976892 C61.671907,24.7976892 62.8029023,24.9706757 63.832707,25.2511757 C65.4648372,25.7108649 66.2275535,26.276 66.7052837,26.6081892 L64.8962419,28.3284054 L64.1335256,28.4993243 L64.6773395,27.6309459 C63.9407814,26.9107432 62.5867535,25.5812973 60.0170605,25.5812973 C56.5813953,25.5812973 53.988986,28.1960811 53.988986,32.0135 C53.988986,36.1134865 56.948986,39.9701892 61.6946233,39.9701892 C63.0892651,39.9701892 63.8072372,39.6896892 64.4591256,39.4277973 L64.4591256,35.9129324 L61.1714605,36.0900541 L62.9144186,35.1527568 L67.5285767,35.1527568 L66.9648,35.696527 C66.8119814,35.8260946 66.7920186,35.8702027 66.7493395,36.0438784 C66.7266233,36.2423649 66.7052837,36.8736622 66.7052837,37.0955811 L66.7052837,39.754473 L66.7052837,39.754473 Z M52.1634233,9.79059459 C52.6693767,9.45978378 53.3088744,9.22821622 54.1245953,9.22821622 C55.4139163,9.22821622 56.3060465,9.90155405 56.3060465,11.0483649 C56.3060465,11.9642973 55.6341953,12.6707162 54.7744186,12.8692027 L54.7744186,12.8912568 C55.8104186,13.001527 56.5813953,13.6852027 56.5930977,14.7555135 C56.5930977,16.2992973 55.248707,16.9175 53.8933023,16.9175 C53.2207628,16.9175 52.5268837,16.7741486 51.9541581,16.4323108 L52.2074791,15.682473 C52.6156837,15.9140405 53.265507,16.1345811 53.8822884,16.1345811 C54.9733581,16.1345811 55.579814,15.5384324 55.579814,14.7224324 C55.579814,13.6080135 54.5107721,13.2882297 53.5628837,13.2882297 L53.1223256,13.2882297 L53.1223256,12.5597568 L53.5518698,12.5597568 C54.5328,12.5597568 55.3037767,11.9532703 55.3037767,11.1924054 C55.3037767,10.4315405 54.764093,10.0118243 53.9704,10.0118243 C53.396986,10.0118243 52.8242605,10.2433919 52.4167442,10.4970135 L52.1634233,9.79059459 Z M59.3445209,14.4564054 L58.5735442,16.7955135 L57.5822884,16.7955135 L60.1168744,9.36054054 L61.2623256,9.36054054 L63.7969116,16.7955135 L62.772614,16.7955135 L61.9796093,14.4564054 L59.3445209,14.4564054 L59.3445209,14.4564054 Z M61.790307,13.7065676 L61.0523721,11.5666351 C60.8871628,11.0814459 60.7770233,10.6396757 60.6661953,10.2096216 L60.6441674,10.2096216 C60.5340279,10.6396757 60.4245767,11.1028108 60.269693,11.5549189 L59.5420837,13.7065676 L61.790307,13.7065676 L61.790307,13.7065676 Z M69.1042605,9.36054054 L69.1042605,10.1655135 L66.1181023,10.1655135 L66.1181023,16.7955135 L65.148186,16.7955135 L65.148186,9.36054054 L69.1042605,9.36054054 L69.1042605,9.36054054 Z M70.2042791,9.44875676 C70.6668651,9.37156757 71.2733209,9.30540541 72.0442977,9.30540541 C72.992186,9.30540541 73.6860651,9.52594595 74.1266233,9.92291892 C74.5231256,10.2757838 74.7764465,10.8161081 74.7764465,11.4784189 C74.7764465,12.1517568 74.5781953,12.6803649 74.2030326,13.067 C73.6853767,13.6073243 72.8696558,13.8836892 71.9334698,13.8836892 C71.647107,13.8836892 71.3820837,13.871973 71.162493,13.817527 L71.162493,16.7955135 L70.2035907,16.7955135 L70.2035907,9.44875676 L70.2042791,9.44875676 Z M71.1631814,13.0339189 C71.3724465,13.0890541 71.6367814,13.1111081 71.956186,13.1111081 C73.1133395,13.1111081 73.8182326,12.5370135 73.8182326,11.5335541 C73.8182326,10.5411216 73.1133395,10.0662703 72.0663256,10.0662703 C71.6477953,10.0662703 71.3283907,10.0993514 71.1631814,10.1427703 L71.1631814,13.0339189 L71.1631814,13.0339189 Z M76.4815442,9.36054054 L77.9587907,12.5487297 C78.1453395,12.9898108 78.3222512,13.4198649 78.4881488,13.8506081 L78.5211907,13.8506081 C78.6526698,13.475 78.7965395,13.0449459 78.9727628,12.5149595 L80.1402419,9.36054054 L81.154214,9.36054054 L79.5902326,13.1993243 C79.1937302,14.1917568 78.7304558,15.3282297 78.2010977,16.0119054 C77.7274977,16.6190811 77.1871256,16.9278378 76.5262884,16.9278378 C76.2729674,16.9278378 76.1077581,16.9057838 75.9866047,16.8609865 L76.0747163,16.0780676 C76.1628279,16.0994324 76.2729674,16.1111486 76.4381767,16.1111486 C77.1981395,16.1111486 77.6504,15.3723378 77.8920186,14.8423514 C77.9691163,14.6769459 77.9470884,14.5666757 77.8589767,14.3902432 L75.3911628,9.35985135 L76.4815442,9.35985135 L76.4815442,9.36054054 Z M82.055293,9.79059459 C82.5612465,9.45978378 83.2007442,9.22821622 84.0164651,9.22821622 C85.305786,9.22821622 86.1979163,9.90155405 86.1979163,11.0483649 C86.1979163,11.9642973 85.5260651,12.6707162 84.6662884,12.8692027 L84.6662884,12.8912568 C85.7022884,13.001527 86.4732651,13.6852027 86.4849674,14.7555135 C86.4849674,16.2992973 85.1405767,16.9175 83.7851721,16.9175 C83.1126326,16.9175 82.4187535,16.7741486 81.8460279,16.4323108 L82.0993488,15.682473 C82.5075535,15.9140405 83.1573767,16.1345811 83.7741581,16.1345811 C84.8652279,16.1345811 85.4716837,15.5384324 85.4716837,14.7224324 C85.4716837,13.6080135 84.4026419,13.2882297 83.4547535,13.2882297 L83.0141953,13.2882297 L83.0141953,12.5597568 L83.4437395,12.5597568 C84.4246698,12.5597568 85.1956465,11.9532703 85.1956465,11.1924054 C85.1956465,10.4315405 84.6559628,10.0118243 83.8622698,10.0118243 C83.2888558,10.0118243 82.7161302,10.2433919 82.308614,10.4970135 L82.055293,9.79059459 L82.055293,9.79059459 Z M88.939014,9.36054054 L88.939014,12.4935946 C88.939014,13.6624595 88.916986,14.6445541 88.8509023,15.6376757 L88.8839442,15.6487027 C89.2474047,14.8768108 89.7099907,14.0718378 90.2496744,13.1889865 L92.6514047,9.36122973 L93.6096186,9.36122973 L93.6096186,16.7962027 L92.7064744,16.7962027 L92.7064744,13.6300676 C92.7064744,12.4274324 92.7181767,11.5452703 92.794586,10.6072838 L92.7615442,10.5955676 C92.3980837,11.4115676 91.8907535,12.2730541 91.3841116,13.0890541 L89.0594791,16.7955135 L88.0351814,16.7955135 L88.0351814,9.36054054 L88.939014,9.36054054 L88.939014,9.36054054 Z M96.968186,10.1765405 L94.7096372,10.1765405 L94.7096372,9.36054054 L100.207665,9.36054054 L100.207665,10.1765405 L97.937414,10.1765405 L97.937414,16.7955135 L96.968186,16.7955135 L96.968186,10.1765405 L96.968186,10.1765405 Z M105.141916,13.3095946 L102.265898,13.3095946 L102.265898,15.9898514 L105.483349,15.9898514 L105.483349,16.7955135 L101.295981,16.7955135 L101.295981,9.36054054 L105.31814,9.36054054 L105.31814,10.1655135 L102.265898,10.1655135 L102.265898,12.5149595 L105.141916,12.5149595 L105.141916,13.3095946 L105.141916,13.3095946 Z M111.076372,9.36054054 L111.076372,12.4715405 L114.668298,12.4715405 L114.668298,9.36054054 L115.637526,9.36054054 L115.637526,16.7955135 L114.668298,16.7955135 L114.668298,13.3095946 L111.076372,13.3095946 L111.076372,16.7955135 L110.106456,16.7955135 L110.106456,9.36054054 L111.076372,9.36054054 L111.076372,9.36054054 Z M118.775126,14.4564054 L118.004149,16.7955135 L117.012893,16.7955135 L119.547479,9.36054054 L120.69293,9.36054054 L123.227516,16.7955135 L122.203219,16.7955135 L121.410214,14.4564054 L118.775126,14.4564054 L118.775126,14.4564054 Z M121.220912,13.7065676 L120.482977,11.5666351 C120.317767,11.0814459 120.207628,10.6396757 120.0968,10.2096216 L120.074772,10.2096216 C119.964633,10.6396757 119.855181,11.1028108 119.700298,11.5549189 L118.972688,13.7065676 L121.220912,13.7065676 L121.220912,13.7065676 Z" id="Shape"></path>
                </g>
            </g>
        </g>
    </g>
</svg>