<?xml version="1.0" encoding="UTF-8" standalone="no"?>
<svg width="18px" height="29px" viewBox="0 0 18 29" version="1.1" xmlns="http://www.w3.org/2000/svg" xmlns:xlink="http://www.w3.org/1999/xlink" xmlns:sketch="http://www.bohemiancoding.com/sketch/ns">
    <!-- Generator: Sketch 3.0.3 (7891) - http://www.bohemiancoding.com/sketch -->
    <title>leftarrow</title>
    <desc>Created with Sketch.</desc>
    <defs></defs>
    <g id="Page-1" stroke="none" stroke-width="1" fill="none" fill-rule="evenodd" sketch:type="MSPage">
        <g id="Index" sketch:type="MSArtboardGroup" transform="translate(-30.000000, -1449.000000)" fill="#E8E8E8">
            <g id="ADVANTAGES" sketch:type="MSLayerGroup" transform="translate(29.000000, 1070.000000)">
                <path d="M17.4944405,381.321396 C17.4944405,381.070279 17.3828332,380.847065 17.2154223,380.679654 L15.8203314,379.284563 C15.6529204,379.117152 15.4018041,379.005545 15.1785895,379.005545 C14.955375,379.005545 14.7042586,379.117152 14.5368477,379.284563 L1.53460004,392.28681 C1.36718913,392.454221 1.25558185,392.705338 1.25558185,392.928552 C1.25558185,393.151767 1.36718913,393.402883 1.53460004,393.570294 L14.5368477,406.572542 C14.7042586,406.739953 14.955375,406.85156 15.1785895,406.85156 C15.4018041,406.85156 15.6529204,406.739953 15.8203314,406.572542 L17.2154223,405.177451 C17.3828332,405.01004 17.4944405,404.758924 17.4944405,404.535709 C17.4944405,404.312494 17.3828332,404.061378 17.2154223,403.893967 L6.25000745,392.928552 L17.2154223,381.963137 C17.3828332,381.795726 17.4944405,381.54461 17.4944405,381.321396 L17.4944405,381.321396 Z" id="leftarrow" sketch:type="MSShapeGroup"></path>
            </g>
        </g>
    </g>
</svg>