<?xml version="1.0" encoding="UTF-8" standalone="no"?>
<svg width="63px" height="63px" viewBox="0 0 63 63" version="1.1" xmlns="http://www.w3.org/2000/svg" xmlns:xlink="http://www.w3.org/1999/xlink" xmlns:sketch="http://www.bohemiancoding.com/sketch/ns">
    <!-- Generator: Sketch 3.0.3 (7891) - http://www.bohemiancoding.com/sketch -->
    <title>one_wh</title>
    <desc>Created with Sketch.</desc>
    <defs></defs>
    <g id="Page-1" stroke="none" stroke-width="1" fill="none" fill-rule="evenodd" sketch:type="MSPage">
        <g id="Index" sketch:type="MSArtboardGroup" transform="translate(-104.000000, -853.000000)" fill="#FFFFFF">
            <g id="HEAD-2" sketch:type="MSLayerGroup" transform="translate(1.000000, -1.000000)">
                <g id="Group" transform="translate(103.000000, 702.000000)" sketch:type="MSShapeGroup">
                    <g id="feature_4" transform="translate(0.000000, 145.000000)">
                        <path d="M62.984027,38.4270964 C63.0521179,37.7366418 62.9082997,37.1772782 62.6314815,36.73946 C61.9403906,34.4797327 60.4003906,32.8296418 58.5148452,31.1661873 C57.5144815,30.2835509 56.1291179,29.3538236 55.6982997,28.0340054 C55.1529361,26.3610054 55.7199361,24.0465509 55.7676634,22.3169145 C55.851027,19.3011873 54.8315725,16.39746 52.0379361,14.9592782 C48.8223906,13.3047327 45.2231179,14.8326418 41.8694815,14.2039145 C39.422027,13.7450964 37.5199361,9.58773272 35.4192997,8.23100545 C32.6224815,6.42564181 29.5297543,6.62800545 26.934027,8.69364181 C24.9307543,10.2870964 23.0859361,14.0613691 20.3769361,14.3012782 C16.8578452,14.6156418 13.6365725,13.5580054 10.3147543,15.2666418 C7.49757245,16.7156418 7.12975427,20.3785509 7.20548154,23.1467327 C7.25066336,24.7611873 7.55357245,26.4290964 7.25257245,28.0333691 C6.97893609,29.4912782 4.870027,30.7837327 3.83848154,31.6930964 C1.67548154,33.6009145 -0.271154821,36.0248236 0.0311179064,39.0730054 C0.368390634,42.4610054 3.274027,44.6271873 5.61839063,46.7360964 C8.230027,49.0861873 7.14248154,52.1585509 7.19657245,55.3403691 C7.25384518,58.7671873 9.01720882,61.3622782 12.2836634,62.4033691 C15.1924815,63.3299145 18.9285725,61.4959145 21.607027,62.8558236 C24.4248452,64.2850964 25.7077543,67.8493691 28.7139361,69.2837327 C33.4312997,71.5351873 36.9427543,67.4433691 39.7853906,64.2831873 C42.9449361,60.7717327 48.5366634,63.6945509 52.6354815,61.5862782 C57.4037543,59.1337327 54.9467543,52.82546 55.6976634,48.8195509 C56.0381179,47.0040054 59.0029361,45.3036418 60.2482997,44.0862782 C61.4841179,42.87846 62.291027,41.52746 62.7052997,39.9632782 C62.928027,39.5490054 63.0451179,39.0443691 62.984027,38.4270964 L62.984027,38.4270964 Z M51.1743906,44.7563691 C49.1647543,47.7078236 49.761027,51.1747327 49.8539361,54.5372782 C49.908027,56.4807327 49.4549361,56.7740964 47.5859361,56.8052782 C45.9148452,56.8332782 44.2501179,56.6035509 42.5752088,56.6372782 C39.0408452,56.7079145 36.7639361,58.7665509 34.5544815,61.2833691 C33.8468452,62.0915509 32.6574815,63.9032782 31.4757543,64.0210054 C30.4467543,64.1228236 28.9716634,61.9362782 28.3963906,61.2833691 C26.0628452,58.6380054 23.9806634,56.9580054 20.3756634,56.6372782 C18.7255725,56.4902782 17.0169361,56.7588236 15.3649361,56.8052782 C13.4214815,56.8587327 13.1287543,56.4056418 13.0975725,54.5366418 C13.0396634,51.11746 13.8402088,47.7860964 11.7771179,44.7563691 C10.519027,42.9109145 6.10329972,40.6530964 5.88184518,38.4270964 C5.780027,37.3987327 7.96657245,35.9230054 8.61948154,35.3483691 C9.94693609,34.1768236 11.1528452,33.0135509 12.1538452,31.5448236 C13.9216634,28.9497327 13.1783906,25.2276418 13.0982088,22.3169145 C13.0447543,20.37346 13.4972088,20.0800964 15.3662088,20.0489145 C17.3032997,20.0158236 19.206027,20.3212782 21.1462997,20.1481873 C24.3319361,19.8650054 26.3861179,17.8623691 28.3976634,15.5708236 C29.1059361,14.7626418 30.2952997,12.9509145 31.4763906,12.8331873 C32.6479361,12.7167327 34.4208452,15.4168236 35.0807543,16.1690054 C37.2068452,18.5910054 39.3386634,19.9286418 42.5764815,20.2162782 C44.2265725,20.3632782 45.9352088,20.0947327 47.5865725,20.0489145 C49.9703906,19.9827327 49.8902088,21.0340054 49.8316634,23.1473691 C49.7444815,26.2833691 49.3072997,29.35446 51.1743906,32.0971873 C52.4324815,33.9432782 56.8482088,36.20046 57.0702997,38.42646 C56.8482088,40.6530964 52.4324815,42.9102782 51.1743906,44.7563691 L51.1743906,44.7563691 Z M31.3858132,29.9091433 C27.1531473,29.9090558 23.4151732,29.9090751 19.8418315,29.9092228 C17.8562433,29.9092228 16.5453845,31.4325081 16.5454545,33.2723476 C16.5455245,35.1122424 17.8565747,36.635371 19.8423522,36.6351369 C26.9885046,36.6357277 34.464067,36.635805 42.9300606,36.6354551 C44.9156816,36.6356891 46.2266968,35.1125405 46.2265568,33.2726397 C46.2264168,31.4329116 44.9154461,29.909775 42.9298399,29.9095409 C37.1563501,29.9093023 34.5922525,29.9092095 31.3858132,29.9091433 Z M31.6836096,40.5518242 C27.4509437,40.5517367 23.7129696,40.551756 20.1396278,40.5519037 C18.1540397,40.5519037 16.8431809,42.075189 16.8432509,43.9150285 C16.8433209,45.7549233 18.154371,47.278052 20.1401486,47.2778179 C27.286301,47.2784087 34.7618633,47.2784859 43.2278569,47.278136 C45.2134779,47.2783701 46.5244931,45.7552215 46.5243531,43.9153207 C46.5242131,42.0755925 45.2132424,40.5524559 43.2276362,40.5522219 C37.4541465,40.5519832 34.8900489,40.5518905 31.6836096,40.5518242 Z" id="one_wh"></path>
                    </g>
                </g>
            </g>
        </g>
    </g>
</svg>