<?xml version="1.0" encoding="UTF-8" standalone="no"?>
<svg width="157px" height="264px" viewBox="0 0 157 264" version="1.1" xmlns="http://www.w3.org/2000/svg" xmlns:xlink="http://www.w3.org/1999/xlink" xmlns:sketch="http://www.bohemiancoding.com/sketch/ns">
    <!-- Generator: Sketch 3.0.3 (7891) - http://www.bohemiancoding.com/sketch -->
    <title>picinsideiphone</title>
    <desc>Created with Sketch.</desc>
    <defs></defs>
    <g id="Page-1" stroke="none" stroke-width="1" fill="none" fill-rule="evenodd" sketch:type="MSPage">
        <g id="Index" sketch:type="MSArtboardGroup" transform="translate(-526.000000, -2201.000000)">
            <g id="MOBILEAPP" sketch:type="MSLayerGroup" transform="translate(0.000000, 1806.000000)">
                <g id="Mobilebg">
                    <g id="iphone_wh" transform="translate(451.000000, 163.000000)">
                        <g id="picinsideiphone" transform="translate(79.000000, 232.000000)">
                            <g id="Imported-Layers-2" transform="translate(12.523282, 0.405009)" fill="#FFB31A" sketch:type="MSShapeGroup">
                                <path d="M76.4788381,13.4430764 L119.704828,13.4430764 L119.704828,10.0826863 L76.4788381,10.0826863 L76.4788381,13.4430764 Z M76.4788381,20.1646147 L113.05456,20.1646147 L113.05456,16.8034666 L76.4788381,16.8034666 L76.4788381,20.1646147 Z M76.4788381,6.72229609 L123.031469,6.72229609 L123.031469,3.36114804 L76.4788381,3.36114804 L76.4788381,6.72229609 Z M3.32588776,13.4430764 L46.5518775,13.4430764 L46.5518775,10.0826863 L3.32588776,10.0826863 L3.32588776,13.4430764 Z M9.97540232,20.1646147 L46.5518775,20.1646147 L46.5518775,16.8034666 L9.97540232,16.8034666 L9.97540232,20.1646147 Z M0,6.72229609 L46.5526312,6.72229609 L46.5526312,3.36114804 L0,3.36114804 L0,6.72229609 Z M53.2028994,23.5250048 L56.5280335,23.5250048 L56.5280335,20.1646147 L53.2028994,20.1646147 L53.2028994,23.5250048 Z M49.8777653,20.1646147 L53.2028994,20.1646147 L53.2028994,3.36114804 L69.8285699,3.36114804 L69.8285699,20.1646147 L73.1529504,20.1646147 L73.1529504,0 L49.8777653,0 L49.8777653,20.1646147 L49.8777653,20.1646147 Z M59.8531676,26.8861529 L63.1783017,26.8861529 L63.1783017,23.5250048 L59.8531676,23.5250048 L59.8531676,26.8861529 Z M66.5019285,23.5250048 L69.8285699,23.5250048 L69.8285699,20.1646147 L66.5019285,20.1646147 L66.5019285,23.5250048 Z M66.5019285,6.72229609 L56.5280335,6.72229609 L56.5280335,10.0826863 L59.8531676,10.0826863 L59.8531676,16.8034666 L63.1783017,16.8034666 L63.1783017,10.0826863 L66.5019285,10.0826863 L66.5019285,6.72229609 L66.5019285,6.72229609 Z" id="Imported-Layers"></path>
                            </g>
                            <g id="0:0:0:0-2" transform="translate(-0.194295, 197.753488)">
                                <rect id="BG" stroke="#FBC153" stroke-width="3" sketch:type="MSShapeGroup" x="0" y="0" width="149.908742" height="63.2200358" rx="10"></rect>
                                <text id="20:25:20:25" sketch:type="MSTextLayer" font-family="Proxima Nova" font-size="13.1764706" font-weight="526" sketch:alignment="middle" letter-spacing="1.99999988" fill="#000000">
                                    <tspan x="33.3932737" y="36.6762075">ЗАКАЗАТЬ</tspan>
                                </text>
                            </g>
                        </g>
                    </g>
                </g>
            </g>
        </g>
    </g>
</svg>