<?xml version="1.0" encoding="UTF-8" standalone="no"?>
<svg width="30px" height="24px" viewBox="0 0 30 24" version="1.1" xmlns="http://www.w3.org/2000/svg" xmlns:xlink="http://www.w3.org/1999/xlink" xmlns:sketch="http://www.bohemiancoding.com/sketch/ns">
    <!-- Generator: Sketch 3.0.3 (7891) - http://www.bohemiancoding.com/sketch -->
    <title>reloadicon</title>
    <desc>Created with Sketch.</desc>
    <defs></defs>
    <g id="Page-1" stroke="none" stroke-width="1" fill="none" fill-rule="evenodd" sketch:type="MSPage">
        <g id="Group-8" sketch:type="MSLayerGroup" transform="translate(-282.000000, -30.000000)" fill="#000000" opacity="0.5">
            <path d="M305.535655,33.5786006 L302.823131,36.3466254 C301.350437,34.8439133 299.316189,33.9146006 297.069175,33.9146006 C292.575073,33.9146006 288.931893,37.6339319 288.931893,42.2199381 C288.931893,42.2211269 288.931893,42.2187492 288.931893,42.2199381 L292.092961,42.2199381 L287.043786,47.3702786 L282,42.2199381 L285.09568,42.2199381 C285.09568,42.2193437 285.09568,42.2203839 285.09568,42.2199381 C285.09568,35.472 290.456432,30 297.069175,30 C300.37551,30 303.368956,31.3675542 305.535655,33.5786006 L305.535655,33.5786006 Z M312,41.7932879 L306.956214,36.6428731 L301.907039,41.7932879 L305.068107,41.7932879 C305.068107,41.7944768 305.068107,41.7920248 305.068107,41.7932879 C305.068107,46.3792941 301.424927,50.0986254 296.930825,50.0986254 C294.683811,50.0986254 292.64949,49.1692384 291.176869,47.6666006 L288.464345,50.4346254 C290.631189,52.6456718 293.624563,54.013226 296.930825,54.013226 C303.543495,54.013226 308.90432,48.541226 308.90432,41.7933622 C308.90432,41.7928421 308.90432,41.7939567 308.90432,41.7933622 L312,41.7933622 L312,41.7932879 Z" id="reloadicon" sketch:type="MSShapeGroup"></path>
        </g>
    </g>
</svg>