<?xml version="1.0" encoding="UTF-8" standalone="no"?>
<svg width="18px" height="29px" viewBox="0 0 18 29" version="1.1" xmlns="http://www.w3.org/2000/svg" xmlns:xlink="http://www.w3.org/1999/xlink" xmlns:sketch="http://www.bohemiancoding.com/sketch/ns">
    <!-- Generator: Sketch 3.0.3 (7891) - http://www.bohemiancoding.com/sketch -->
    <title>rightarrow</title>
    <desc>Created with Sketch.</desc>
    <defs></defs>
    <g id="Page-1" stroke="none" stroke-width="1" fill="none" fill-rule="evenodd" sketch:type="MSPage">
        <g id="Index" sketch:type="MSArtboardGroup" transform="translate(-1153.000000, -1449.000000)" fill="#E8E8E8">
            <g id="ADVANTAGES" sketch:type="MSLayerGroup" transform="translate(29.000000, 1070.000000)">
                <path d="M1140.60158,392.928552 C1140.60158,392.705338 1140.48998,392.454221 1140.32256,392.28681 L1127.32032,379.284563 C1127.15291,379.117152 1126.90179,379.005545 1126.67857,379.005545 C1126.45536,379.005545 1126.20424,379.117152 1126.03683,379.284563 L1124.64174,380.679654 C1124.47433,380.847065 1124.36272,381.098181 1124.36272,381.321396 C1124.36272,381.54461 1124.47433,381.795726 1124.64174,381.963137 L1135.60716,392.928552 L1124.64174,403.893967 C1124.47433,404.061378 1124.36272,404.312494 1124.36272,404.535709 C1124.36272,404.786825 1124.47433,405.01004 1124.64174,405.177451 L1126.03683,406.572542 C1126.20424,406.739953 1126.45536,406.85156 1126.67857,406.85156 C1126.90179,406.85156 1127.15291,406.739953 1127.32032,406.572542 L1140.32256,393.570294 C1140.48998,393.402883 1140.60158,393.151767 1140.60158,392.928552 L1140.60158,392.928552 Z" id="rightarrow" sketch:type="MSShapeGroup"></path>
            </g>
        </g>
    </g>
</svg>