<?xml version="1.0" encoding="UTF-8" standalone="no"?>
<svg width="70px" height="71px" viewBox="0 0 70 71" version="1.1" xmlns="http://www.w3.org/2000/svg" xmlns:xlink="http://www.w3.org/1999/xlink" xmlns:sketch="http://www.bohemiancoding.com/sketch/ns">
    <!-- Generator: Sketch 3.0.3 (7891) - http://www.bohemiancoding.com/sketch -->
    <title>subscribethanks_wh</title>
    <desc>Created with Sketch.</desc>
    <defs></defs>
    <g id="Page-1" stroke="none" stroke-width="1" fill="none" fill-rule="evenodd" sketch:type="MSPage">
        <g id="Rectangle-61-+-Group-7-+-ô" sketch:type="MSLayerGroup" transform="translate(-87.000000, -57.000000)" fill="#FFFFFF">
            <path d="M122,57.01 C102.68,57.01 87,72.69 87,92.01 C87,111.33 102.68,127.01 122,127.01 C141.32,127.01 157,111.33 157,92.01 C157,72.69 141.32,57.01 122,57.01 Z M154,92.01 C154,109.61 139.6,124.01 122,124.01 C104.32,124.01 90,109.61 90,92.01 C90,74.41 104.4,60.01 122,60.01 C139.6,60.01 154,74.41 154,92.01 Z M141.95,78.15 C141.67,77.59 140.48,75.63 139.5,75.7 C136.49,77.45 132.57,81.09 129.98,83.4 C124.8,88.02 119.83,92.85 114.93,97.75 L105.13,89.21 L101.42,92.85 C106.81,98.24 112.62,104.05 117.38,110.07 C123.47,100.06 133.41,85.71 141.95,78.15 Z" id="subscribethanks_wh" sketch:type="MSShapeGroup"></path>
        </g>
    </g>
</svg>