<?xml version="1.0" encoding="UTF-8" standalone="no"?>
<svg width="67px" height="37px" viewBox="0 0 67 37" version="1.1" xmlns="http://www.w3.org/2000/svg" xmlns:xlink="http://www.w3.org/1999/xlink" xmlns:sketch="http://www.bohemiancoding.com/sketch/ns">
    <!-- Generator: Sketch 3.0.3 (7891) - http://www.bohemiancoding.com/sketch -->
    <title>tie_wh</title>
    <desc>Created with Sketch.</desc>
    <defs></defs>
    <g id="Page-1" stroke="none" stroke-width="1" fill="none" fill-rule="evenodd" sketch:type="MSPage">
        <g id="Index" sketch:type="MSArtboardGroup" transform="translate(-488.000000, -717.000000)" fill="#FFFFFF">
            <g id="HEAD-2" sketch:type="MSLayerGroup" transform="translate(1.000000, -1.000000)">
                <g id="Group" transform="translate(103.000000, 702.000000)" sketch:type="MSShapeGroup">
                    <g id="feature_2" transform="translate(384.000000, 7.000000)">
                        <path d="M25.9246377,30.8092747 C25.39672,31.6107814 23.5851119,33.9116238 19.0553623,36.129 C14.5025362,38.3578889 8.78442029,39.58 6.19289855,40.0541111 C5.44304348,38.1170556 4.14963768,33.7905556 4.14963768,27.0018889 C4.14963768,20.2736667 5.45246377,15.9037222 6.20137681,13.9477778 C8.79289855,14.4218889 14.4978261,15.6402222 19.0563043,17.8719444 C19.7665942,18.2195 20.4523913,18.5916111 21.0957971,18.9769444 C21.9907246,19.5115 23.1465942,19.2196667 23.6797826,18.3233889 C24.212971,17.4271111 23.920942,16.2673333 23.0278986,15.7327778 C22.295,15.2945556 21.515,14.8723889 20.7105072,14.4785556 C14.1115942,11.2476111 5.6907971,10.0236111 5.33565217,9.97261111 C4.56318841,9.86777778 3.80485507,10.2398889 3.42521739,10.9236667 C3.30181159,11.1465556 0.383405797,16.5147778 0.383405797,27.0018889 C0.383405797,37.4871111 3.30086957,42.8553333 3.42521739,43.0782222 C3.76057971,43.6817222 4.39456522,44.0472222 5.07,44.0472222 C5.15855072,44.0472222 5.24615942,44.0406111 5.33471014,44.0292778 C5.68985507,43.9792222 14.1115942,42.7542778 20.7095652,39.5233333 C23.3358037,38.2379538 25.2193195,36.901559 26.5531164,35.7208212 C26.5902467,35.7540577 26.6288381,35.7859477 26.6688406,35.8163889 C26.8845652,35.9816667 28.9033333,37.4304444 32.9710145,37.4304444 C37.0386957,37.4304444 39.0574638,35.9816667 39.2750725,35.8163889 C39.3148129,35.7861471 39.3531608,35.7544753 39.3900669,35.721474 C40.7237409,36.9018745 42.6066589,38.2376826 45.2315217,39.5223889 C51.8294928,42.7523889 60.2531159,43.9773333 60.6082609,44.0283333 C60.6968116,44.0406111 60.7853623,44.0472222 60.873913,44.0472222 C61.5502899,44.0472222 62.1833333,43.6817222 62.5186957,43.0763333 C62.6430435,42.8534444 65.5595652,37.4852222 65.5595652,27 C65.5595652,16.5138333 62.6430435,11.1446667 62.5186957,10.9217778 C62.139058,10.238 61.3816667,9.86777778 60.6082609,9.97072222 C60.2531159,10.0217222 51.8304348,11.2457222 45.2315217,14.4766667 C42.4315045,15.8474879 40.4757542,17.2761399 39.1303626,18.5122145 C39.0339484,18.4520429 38.9312035,18.4000565 38.8228986,18.3573889 C38.7136232,18.3148889 36.0957246,17.2996111 32.9719565,17.2996111 C29.8491304,17.2996111 27.2312319,18.3139444 27.1210145,18.3573889 C26.3994203,18.6407222 25.9246377,19.3386667 25.9246377,20.1159444 L25.9246377,25.1120556 L18.9903623,25.1120556 C17.9503623,25.1120556 17.1063043,25.9582778 17.1063043,27.0009444 C17.1063043,28.0436111 17.9503623,28.8898333 18.9903623,28.8898333 L25.9246377,28.8898333 L25.9246377,30.8092747 Z M40.0192754,30.8169693 C40.5346116,31.5970168 42.344298,33.9045021 46.8866667,36.1280556 C51.4347826,38.3541111 57.1481884,39.5771667 59.7425362,40.0522222 C60.4914493,38.0962778 61.7923913,33.7272778 61.7923913,27.0009444 C61.7923913,20.2765 60.4923913,15.9084444 59.7415942,13.9477778 C57.1463043,14.4228333 51.4338406,15.6449444 46.8866667,17.871 C42.3484719,20.0929746 40.5354727,22.4022273 40.0192754,23.1829722 L40.0192754,25.1120556 L47.416087,25.1120556 C48.456087,25.1120556 49.3001449,25.9582778 49.3001449,27.0009444 C49.3001449,28.0436111 48.456087,28.8898333 47.416087,28.8898333 L40.0192754,28.8898333 L40.0192754,30.8169693 Z" id="tie_wh"></path>
                    </g>
                </g>
            </g>
        </g>
    </g>
</svg>