<?xml version="1.0" encoding="UTF-8" standalone="no"?>
<svg width="34px" height="35px" viewBox="0 0 34 35" version="1.1" xmlns="http://www.w3.org/2000/svg" xmlns:xlink="http://www.w3.org/1999/xlink" xmlns:sketch="http://www.bohemiancoding.com/sketch/ns">
    <!-- Generator: Sketch 3.0.3 (7891) - http://www.bohemiancoding.com/sketch -->
    <title>twifooter</title>
    <desc>Created with Sketch.</desc>
    <defs></defs>
    <g id="Page-1" stroke="none" stroke-width="1" fill="none" fill-rule="evenodd" sketch:type="MSPage">
        <g id="Index" sketch:type="MSArtboardGroup" transform="translate(-421.000000, -5419.000000)">
            <g id="Group" sketch:type="MSLayerGroup" transform="translate(332.000000, 5420.000000)">
                <g id="twifooter" transform="translate(89.000000, -0.077508)" sketch:type="MSShapeGroup">
                    <path d="M0,16.5387541 C0,7.40465199 7.41535235,0 16.5626541,0 C25.7099558,0 33.1253081,7.40465199 33.1253081,16.5387541 C33.1253081,25.6728563 25.7099558,33.0775082 16.5626541,33.0775082 C7.41535235,33.0775082 0,25.6728563 0,16.5387541 Z" id="Twitter" fill="#4099FF"></path>
                    <path d="M16.1527217,13.1692463 L16.1874272,13.7415245 L15.6090014,13.6714496 C13.5035314,13.4028292 11.6641372,12.4918557 10.1023875,10.9618875 L9.33886536,10.2027429 L9.14220058,10.763342 C8.72573398,12.0130107 8.99180986,13.3327543 9.85944861,14.2203695 C10.3221893,14.7108937 10.2180726,14.7809686 9.41984498,14.4889899 C9.14220058,14.3955567 8.89926173,14.3254818 8.87612469,14.3605193 C8.79514508,14.4422733 9.07278948,15.5050757 9.29259129,15.925525 C9.59337273,16.5094823 10.2065041,17.0817605 10.8774781,17.4204558 L11.4443354,17.6890762 L10.7733614,17.7007553 C10.1255245,17.7007553 10.1023875,17.7124345 10.1717986,17.9576966 C10.4031689,18.7168411 11.3170817,19.5227023 12.3351112,19.8730767 L13.0523592,20.1183388 L12.4276593,20.4920715 C11.502178,21.0293122 10.4147374,21.33297 9.32729684,21.3563283 C8.80671359,21.3680075 8.37867848,21.4147241 8.37867848,21.4497615 C8.37867848,21.566553 9.79003751,22.2205852 10.6114022,22.4775265 C13.0754962,23.236671 16.0023309,22.9096549 18.2003491,21.6132696 C19.7620989,20.690617 21.3238486,18.8569909 22.0526651,17.0817605 C22.4459947,16.1357496 22.8393243,14.4072359 22.8393243,13.5780164 C22.8393243,13.0407757 22.8740298,12.9707008 23.5218668,12.3283477 C23.9036278,11.954615 24.2622518,11.5458448 24.3316629,11.4290534 C24.4473481,11.2071496 24.4357796,11.2071496 23.8457852,11.4056951 C22.8624613,11.7560695 22.7236391,11.7093529 23.2095168,11.1837913 C23.5681408,10.8100586 23.9961759,10.132668 23.9961759,9.93412254 C23.9961759,9.8990851 23.8226482,9.95748083 23.6259834,10.0625932 C23.4177501,10.1793846 22.9550094,10.3545718 22.6079539,10.4596842 L21.983254,10.6582297 L21.4163967,10.2728178 C21.1040468,10.0625932 20.6644432,9.82901022 20.4330728,9.75893533 C19.8430785,9.59542728 18.9407342,9.61878557 18.4085824,9.80565192 C16.9625178,10.3312135 16.048605,11.6859946 16.1527217,13.1692463 Z" id="Path" fill="#FFFFFF"></path>
                </g>
            </g>
        </g>
    </g>
</svg>