<?xml version="1.0" encoding="UTF-8" standalone="no"?>
<svg width="34px" height="35px" viewBox="0 0 34 35" version="1.1" xmlns="http://www.w3.org/2000/svg" xmlns:xlink="http://www.w3.org/1999/xlink" xmlns:sketch="http://www.bohemiancoding.com/sketch/ns">
    <!-- Generator: Sketch 3.0.3 (7891) - http://www.bohemiancoding.com/sketch -->
    <title>vkfooter</title>
    <desc>Created with Sketch.</desc>
    <defs></defs>
    <g id="Page-1" stroke="none" stroke-width="1" fill="none" fill-rule="evenodd" sketch:type="MSPage">
        <g id="Index" sketch:type="MSArtboardGroup" transform="translate(-376.000000, -5419.000000)">
            <g id="Group" sketch:type="MSLayerGroup" transform="translate(332.000000, 5420.000000)">
                <g id="vkfooter" transform="translate(44.000000, -0.077508)" sketch:type="MSShapeGroup">
                    <path d="M0,16.5387541 C0,7.40465199 7.41535235,0 16.5626541,0 C25.7099558,0 33.1253081,7.40465199 33.1253081,16.5387541 C33.1253081,25.6728563 25.7099558,33.0775082 16.5626541,33.0775082 C7.41535235,33.0775082 0,25.6728563 0,16.5387541 Z" id="Windows" fill="#5F81A7"></path>
                    <path d="M24.1131797,18.9157584 C25.7827075,20.4655125 26.1297442,21.2204306 26.1860204,21.3143551 C26.8777489,22.4637561 25.4216018,22.5541584 25.4216018,22.5541584 L22.6347566,22.5917282 C22.6347566,22.5917282 22.0344769,22.711482 21.2466099,22.169068 C20.2043274,21.4552419 19.2218385,19.5931888 18.4562474,19.8350444 C17.6801046,20.0815962 17.703553,21.7581484 17.703553,21.7581484 C17.703553,21.7581484 17.7082427,21.9964818 17.5323795,22.189027 C17.3412748,22.3909646 16.9649276,22.315825 16.9649276,22.315825 L15.7198163,22.315825 C15.7198163,22.315825 12.9681437,22.5987726 10.5447491,20.0733778 C7.90211171,17.3178679 5.56899351,11.9089912 5.56899351,11.9089912 C5.56899351,11.9089912 5.43533749,11.5802554 5.58071772,11.4064951 C5.74602911,11.2116018 6.19272159,11.2139499 6.19272159,11.2139499 L9.1730163,11.2022093 C9.1730163,11.2022093 9.45322496,11.2526938 9.65488141,11.4006248 C9.82136522,11.5227267 9.9139865,11.7528417 9.9139865,11.7528417 C9.9139865,11.7528417 10.3958516,12.9738601 11.0336488,14.0774729 C12.2787601,16.231866 12.8591086,16.7038366 13.2811802,16.4725475 C13.8978738,16.1355934 13.7126312,13.4270458 13.7126312,13.4270458 C13.7126312,13.4270458 13.7243554,12.4431867 13.4019396,12.0052638 C13.1533863,11.6659615 12.6844178,11.5661668 12.4768993,11.5391635 C12.3080706,11.5168564 12.5835896,11.1270698 12.9411781,10.9521354 C13.478147,10.6891468 14.4254633,10.6750581 15.5451256,10.6856246 C16.4162345,10.693843 16.6683051,10.7490237 17.0083072,10.8312076 C18.0365206,11.0789335 17.6871391,12.0393114 17.6871391,14.3404615 C17.6871391,15.0777688 17.5546555,16.1144604 18.0857623,16.4584588 C18.3143844,16.6063899 18.8736294,16.4807659 20.2688106,14.1056503 C20.9312286,12.9797304 21.4259903,11.6565691 21.4259903,11.6565691 C21.4259903,11.6565691 21.5361979,11.4205838 21.7026817,11.319615 C21.8750277,11.216298 22.1083395,11.2479975 22.1083395,11.2479975 L25.246911,11.2280386 C25.246911,11.2280386 26.1895377,11.1153292 26.3419524,11.5415116 C26.5037466,11.988827 25.9890537,13.0325629 24.7075973,14.7431628 C22.599584,17.5526792 22.3674446,17.2920387 24.1131797,18.9157584 L24.1131797,18.9157584 Z" id="Path-2" fill="#FFFFFF"></path>
                </g>
            </g>
        </g>
    </g>
</svg>