<?xml version="1.0" encoding="UTF-8" standalone="no"?>
<svg width="67px" height="49px" viewBox="0 0 67 49" version="1.1" xmlns="http://www.w3.org/2000/svg" xmlns:xlink="http://www.w3.org/1999/xlink" xmlns:sketch="http://www.bohemiancoding.com/sketch/ns">
    <!-- Generator: Sketch 3.0.3 (7891) - http://www.bohemiancoding.com/sketch -->
    <title>wh_car</title>
    <desc>Created with Sketch.</desc>
    <defs></defs>
    <g id="Page-1" stroke="none" stroke-width="1" fill="none" fill-rule="evenodd" sketch:type="MSPage">
        <g id="Index" sketch:type="MSArtboardGroup" transform="translate(-104.000000, -713.000000)" fill="#FFFFFF">
            <g id="HEAD-2" sketch:type="MSLayerGroup" transform="translate(1.000000, -1.000000)">
                <g id="Group" transform="translate(103.000000, 702.000000)" sketch:type="MSShapeGroup">
                    <g id="feature_1-+-Oval-2" transform="translate(0.000000, 8.000000)">
                        <g id="feature_1">
                            <path d="M60.7871075,21.5529044 C63.97302,24.8766093 66.358,30.5027653 66.358,34.944 L66.358,38.688 C66.358,42.8254293 64.412081,45.020905 61.957,46.185907 L61.957,46.185907 L61.957,49.662 C61.957,50.904 60.95,51.912 59.707,51.912 L53.514,51.912 C52.272,51.912 51.264,50.904 51.264,49.662 L51.264,47.503 L15.1,47.503 L15.1,49.662 C15.1,50.904 14.092,51.912 12.85,51.912 L6.658,51.912 C5.416,51.912 4.408,50.904 4.408,49.662 L4.408,46.1892252 L4.408,46.1892252 C1.94961891,45.0250756 0,42.8293608 0,38.688 L0,34.944 C0,30.5676797 1.97293662,24.9048262 5.36322206,21.466427 C4.43601535,21.2379768 3.71214299,21.0414087 3.208,20.898 C0.846,20 1.609,17.756 1.608,17.755 C2.069,16.744 3.364,16.264 4.438,16.571 C5.23270886,16.7970926 6.60016382,17.1615329 8.4723129,17.5728239 C10.4759212,13.0795481 13.4096295,8.90588784 17.214,5.141 L17.41,4.944 C17.822,4.423 18.462,4.09 19.177,4.09 L47.185,4.09 C47.9,4.09 48.539,4.424 48.953,4.944 L49.151,5.143 C52.9632397,8.91743377 55.9012116,13.1000138 57.9071472,17.6003491 C60.5339734,17.017109 61.9751565,16.5604511 62.015,16.548 C63.204,16.17 64.467,16.817 64.848,17.998 C65.229,19.183 64.579,20.45 63.398,20.831 C63.271085,20.8717186 62.3740338,21.1562856 60.7871075,21.5529044 Z M12.2446315,22.8847853 C12.1736604,22.8915433 12.1017314,22.895 12.029,22.895 C8.223,22.895 4.5,29.793 4.5,34.944 L4.5,38.688 C4.5,41.612 5.714,43.003 12.604,43.003 L53.754,43.003 C60.645,43.003 61.858,41.611 61.858,38.688 L61.858,34.944 C61.858,31.766 59.889,26.653 56.958,24.11 C56.1104122,23.3746603 55.2797336,22.9582619 54.5136037,22.8652572 C49.3343318,23.7670749 42.0810764,24.627 33.252,24.627 C24.7469912,24.627 17.5476474,23.7907415 12.2446315,22.8847853 Z M52.5038038,18.629418 C52.7122149,18.5261475 52.9402951,18.4537568 53.183,18.419 C53.2265745,18.412664 53.2701552,18.406736 53.3137404,18.4012154 C51.6039276,14.8958763 49.2314123,11.6064017 46.233,8.588 L20.129,8.588 C17.1163789,11.6199173 14.7333809,14.930446 13.0236636,18.4572178 C18.1062431,19.3248287 25.0318355,20.128 33.251,20.128 C41.0710826,20.128 47.6319963,19.4174375 52.5038038,18.629418 Z M57.457,47.3503187 C57.2331633,47.3745095 57.0117917,47.3948675 56.7938424,47.412 L57.457,47.412 L57.457,47.3503187 L57.457,47.3503187 Z M8.908,47.351074 C9.12945212,47.3749336 9.34848051,47.3950461 9.56415756,47.412 L8.908,47.412 L8.908,47.351074 L8.908,47.351074 Z M40.969,38.479 L25.799,38.479 C24.557,38.479 23.549,37.471 23.549,36.229 C23.549,34.987 24.557,33.979 25.799,33.979 L40.969,33.979 C42.211,33.979 43.219,34.987 43.219,36.229 C43.219,37.471 42.211,38.479 40.969,38.479 Z M16.905,38.588 L10.328,38.588 C9.087,38.588 8.078,37.58 8.078,36.338 C8.078,35.096 9.087,34.088 10.328,34.088 L16.905,34.088 C18.147,34.088 19.155,35.096 19.155,36.338 C19.155,37.58 18.147,38.588 16.905,38.588 Z M56.033,38.588 L49.459,38.588 C48.217,38.588 47.209,37.58 47.209,36.338 C47.209,35.096 48.217,34.088 49.459,34.088 L56.032,34.088 C57.274,34.088 58.282,35.096 58.282,36.338 C58.282,37.58 57.276,38.588 56.033,38.588 Z" id="wh_car"></path>
                        </g>
                    </g>
                </g>
            </g>
        </g>
    </g>
</svg>