<?xml version="1.0" encoding="UTF-8" standalone="no"?>
<svg width="57px" height="58px" viewBox="0 0 57 58" version="1.1" xmlns="http://www.w3.org/2000/svg" xmlns:xlink="http://www.w3.org/1999/xlink" xmlns:sketch="http://www.bohemiancoding.com/sketch/ns">
    <!-- Generator: Sketch 3.0.3 (7891) - http://www.bohemiancoding.com/sketch -->
    <title>wifi_wh</title>
    <desc>Created with Sketch.</desc>
    <defs></defs>
    <g id="Page-1" stroke="none" stroke-width="1" fill="none" fill-rule="evenodd" sketch:type="MSPage">
        <g id="Index" sketch:type="MSArtboardGroup" transform="translate(-881.000000, -852.000000)" fill="#FFFFFF">
            <g id="HEAD-2" sketch:type="MSLayerGroup" transform="translate(1.000000, -1.000000)">
                <g id="Group" transform="translate(103.000000, 702.000000)" sketch:type="MSShapeGroup">
                    <g id="feature_6" transform="translate(778.000000, 151.000000)">
                        <g id="Shape-+-Path">
                            <path d="M54.9151059,49.8440957 L54.915108,38.1465885 C54.915108,34.1677989 51.5692779,31.1965373 47.7192259,31.1965373 L6.94120814,31.1965373 C3.09115621,31.1965373 -0.254673913,34.1677989 -0.254673913,38.1465885 L-0.254673913,49.8486289 C-0.254673913,53.8274185 3.09115621,56.7986801 6.94120814,56.7986801 L47.7202019,56.7986801 C51.571549,56.7986801 54.9187155,53.8253192 54.9151059,49.8440957 Z M6.5664596,51.9420632 C5.3320539,51.9420632 4.33021739,51.0523832 4.33021739,49.9561703 L4.33021739,38.0390471 C4.33021739,36.9428342 5.3320539,36.0531542 6.5664596,36.0531542 L48.0939744,36.0531542 C49.3283801,36.0531542 50.3302167,36.9428342 50.3302167,38.0390471 L50.3302167,49.9561703 C50.3312105,51.0523832 49.329374,51.9420632 48.0949683,51.9420632 L6.5664596,51.9420632 Z M16.6829348,21.8409783 C15.9930435,21.8409783 15.3031522,21.5779348 14.7770652,21.0494565 C13.7296739,19.9984783 13.7296739,18.2958696 14.7842391,17.2448913 C21.8182609,10.2323913 33.2582609,10.2288043 40.2851087,17.2484783 C41.336087,18.2994565 41.336087,20.0020652 40.2851087,21.0530435 C39.2341304,22.1040217 37.5315217,22.1040217 36.4805435,21.0530435 C31.5556522,16.1281522 23.5268478,16.1245652 18.5804348,21.0566304 C18.0567391,21.5779348 17.3692391,21.8409783 16.6829348,21.8409783 Z M9.71586957,12.7504348 C9.02597826,12.7504348 8.33967391,12.4873913 7.81358696,11.9625 C6.7626087,10.9115217 6.7626087,9.20891304 7.81358696,8.15793478 C13.0744565,2.89706522 20.0666304,0 27.5071739,0 C34.9441304,0 41.9315217,2.89347826 47.186413,8.14717391 C48.2373913,9.19815217 48.2373913,10.9007609 47.186413,11.9517391 C46.1354348,13.0027174 44.4328261,13.0027174 43.3818478,11.9517391 C34.6248913,3.19478261 20.3751087,3.20554348 11.6181522,11.9625 C11.0920652,12.4873913 10.4057609,12.7504348 9.71586957,12.7504348 Z M9.99326087,46.6280435 C9.19483092,46.6280435 8.43625604,46.371374 7.87961353,45.9222023 C7.32297101,45.4398775 7.00413043,44.8302874 7.00413043,44.2217667 C7.00413043,43.577954 7.32297101,42.9373497 7.87961353,42.5191923 C8.95437198,41.620849 10.9896377,41.620849 12.1029227,42.5191923 C12.6635507,42.9373497 12.9823913,43.577954 12.9823913,44.2217667 C12.9823913,44.8292179 12.6635507,45.4398775 12.1029227,45.8890492 C11.5462802,46.371374 10.7877053,46.6280435 9.99326087,46.6280435 Z" id="wifi_wh"></path>
                        </g>
                    </g>
                </g>
            </g>
        </g>
    </g>
</svg>