<?xml version="1.0" encoding="UTF-8" standalone="no"?>
<svg width="141px" height="103px" viewBox="0 0 141 103" version="1.1" xmlns="http://www.w3.org/2000/svg" xmlns:xlink="http://www.w3.org/1999/xlink" xmlns:sketch="http://www.bohemiancoding.com/sketch/ns">
    <!-- Generator: Sketch 3.0.3 (7892) - http://www.bohemiancoding.com/sketch -->
    <title>investors/passat</title>
    <desc>Created with Sketch.</desc>
    <defs></defs>
    <g id="Page-1" stroke="none" stroke-width="1" fill="none" fill-rule="evenodd" sketch:type="MSPage">
        <g id="Group" sketch:type="MSLayerGroup" transform="translate(-101.000000, -66.000000)">
            <rect id="Rectangle-33" fill="#F6F6F6" sketch:type="MSShapeGroup" x="0" y="0" width="342" height="457" rx="8"></rect>
            <path d="M229.942349,103.567078 C236.700345,110.629951 241.759394,122.585532 241.759394,132.023156 L241.759394,139.979156 C241.759394,148.771193 237.631687,153.436579 232.423939,155.912208 L232.423939,155.912208 L232.423939,163.298906 C232.423939,165.938156 230.287879,168.080156 227.651212,168.080156 L214.514545,168.080156 C211.88,168.080156 209.741818,165.938156 209.741818,163.298906 L209.741818,158.711031 L133.030303,158.711031 L133.030303,163.298906 C133.030303,165.938156 130.892121,168.080156 128.257576,168.080156 L115.12303,168.080156 C112.488485,168.080156 110.350303,165.938156 110.350303,163.298906 L110.350303,155.91926 L110.350303,155.91926 C105.135555,153.445442 101,148.779548 101,139.979156 L101,132.023156 C101,122.723475 105.185017,110.689912 112.376532,103.383314 C110.40973,102.897857 108.874243,102.48015 107.804848,102.175406 C102.794545,100.267156 104.41303,95.4986561 104.410909,95.4965311 C105.388788,93.3481561 108.135758,92.3281561 110.413939,92.9805311 C112.099685,93.460978 115.000347,94.2354136 118.971573,95.109407 C123.221651,85.5611958 129.444669,76.6921678 137.514545,68.6917811 L137.930303,68.2731561 C138.804242,67.1660311 140.161818,66.4584061 141.678485,66.4584061 L201.089394,66.4584061 C202.606061,66.4584061 203.961515,67.1681561 204.839697,68.2731561 L205.259697,68.6960311 C213.346266,76.7167029 219.578328,85.6046854 223.833343,95.167898 C229.405398,93.9285128 232.462453,92.9581147 232.54697,92.9316561 C235.069091,92.1284061 237.748182,93.5032811 238.556364,96.0129061 C239.364545,98.5310311 237.985758,101.223406 235.480606,102.033031 C235.211392,102.119558 233.308557,102.724263 229.942349,103.567078 Z M126.973461,106.397325 C126.822916,106.411686 126.670339,106.419031 126.516061,106.419031 C118.442727,106.419031 110.545455,121.077281 110.545455,132.023156 L110.545455,139.979156 C110.545455,146.192656 113.120606,149.148531 127.735758,149.148531 L215.023636,149.148531 C229.640909,149.148531 232.213939,146.190531 232.213939,139.979156 L232.213939,132.023156 C232.213939,125.269906 228.037273,114.404781 221.82,109.000906 C220.022087,107.438309 218.260041,106.553463 216.634917,106.355828 C205.648583,108.27219 190.262889,110.099531 171.534545,110.099531 C153.493618,110.099531 138.222282,108.322482 126.973461,106.397325 Z M212.371705,97.3546694 C212.813789,97.1352196 213.297596,96.9813892 213.812424,96.9075311 C213.904855,96.894067 213.997299,96.8814701 214.089752,96.8697389 C210.462877,89.4208932 205.430268,82.4307598 199.07,76.0166561 L143.697879,76.0166561 C137.30747,82.4594804 132.252626,89.4943539 128.625953,96.9887441 C139.407182,98.832417 154.097833,100.539156 171.532424,100.539156 C188.120478,100.539156 202.037568,99.0292108 212.371705,97.3546694 Z M222.878485,158.386583 C222.40368,158.437989 221.934104,158.48125 221.471787,158.517656 L222.878485,158.517656 L222.878485,158.386583 L222.878485,158.386583 Z M119.895758,158.388188 C120.365504,158.43889 120.83011,158.481629 121.287607,158.517656 L119.895758,158.517656 L119.895758,158.388188 L119.895758,158.388188 Z M187.903939,139.535031 L155.725152,139.535031 C153.090606,139.535031 150.952424,137.393031 150.952424,134.753781 C150.952424,132.114531 153.090606,129.972531 155.725152,129.972531 L187.903939,129.972531 C190.538485,129.972531 192.676667,132.114531 192.676667,134.753781 C192.676667,137.393031 190.538485,139.535031 187.903939,139.535031 Z M136.859091,139.766656 L122.907879,139.766656 C120.275455,139.766656 118.135152,137.624656 118.135152,134.985406 C118.135152,132.346156 120.275455,130.204156 122.907879,130.204156 L136.859091,130.204156 C139.493636,130.204156 141.631818,132.346156 141.631818,134.985406 C141.631818,137.624656 139.493636,139.766656 136.859091,139.766656 Z M219.857879,139.766656 L205.91303,139.766656 C203.278485,139.766656 201.140303,137.624656 201.140303,134.985406 C201.140303,132.346156 203.278485,130.204156 205.91303,130.204156 L219.855758,130.204156 C222.490303,130.204156 224.628485,132.346156 224.628485,134.985406 C224.628485,137.624656 222.494545,139.766656 219.857879,139.766656 Z" id="investors/passat" fill="#000000" sketch:type="MSShapeGroup"></path>
        </g>
    </g>
</svg>