<?xml version="1.0" encoding="UTF-8" standalone="no"?>
<svg width="39px" height="46px" viewBox="0 0 39 46" version="1.1" xmlns="http://www.w3.org/2000/svg" xmlns:xlink="http://www.w3.org/1999/xlink" xmlns:sketch="http://www.bohemiancoding.com/sketch/ns">
    <!-- Generator: Sketch 3.0.3 (7892) - http://www.bohemiancoding.com/sketch -->
    <title>for-pass/i1</title>
    <desc>Created with Sketch.</desc>
    <defs></defs>
    <g id="Page-1" stroke="none" stroke-width="1" fill="none" fill-rule="evenodd" sketch:type="MSPage">
        <g id="Index" sketch:type="MSArtboardGroup" transform="translate(-430.000000, -1665.000000)" fill="#000000">
            <g id="ADVANTAGES" sketch:type="MSLayerGroup" transform="translate(29.000000, 1070.000000)">
                <g id="features" transform="translate(401.000000, 571.000566)" sketch:type="MSShapeGroup">
                    <g id="icon_20942" transform="translate(0.000000, 24.000000)">
                        <g id="for-pass/i1">
                            <path d="M0.3315,45.0920455 L29.1401842,45.0920455 C29.1545526,45.0920455 29.1627632,45.0869318 29.1781579,45.0869318 L29.1781579,45.0869318 C29.5681579,45.0869318 29.9571316,44.9396591 30.2598947,44.6451136 L38.3790789,36.6402273 C38.7023684,36.3569318 38.9240526,35.9560227 38.9240526,35.4947727 L38.9240526,0 L0.334578947,0 L0.334578947,45.0920455 L0.3315,45.0920455 L0.3315,45.0920455 Z M30.6704211,39.9334091 L30.6704211,37.0196591 L33.6251842,37.0196591 L30.6704211,39.9334091 L30.6704211,39.9334091 Z M3.39915789,3.05693182 L35.8543421,3.05693182 L35.8543421,33.9657955 L27.6058421,33.9657955 L27.6058421,42.0361364 L3.39915789,42.0361364 L3.39915789,3.05693182 L3.39915789,3.05693182 Z" id="Shape"></path>
                            <path d="M29.0498684,30.3177273 C29.8945263,30.3177273 30.5842105,29.6335227 30.5842105,28.78875 C30.5842105,28.78875 30.5842105,28.78875 30.5842105,28.7856818 C30.5842105,28.7856818 30.5842105,28.7856818 30.5842105,28.7826136 C30.5842105,24.795 28.4422895,21.3044318 25.4074737,19.9636364 C25.4475,19.7018182 25.4854737,19.4359091 25.4854737,19.1607955 L25.4854737,14.4143182 C25.4854737,11.3778409 23.0079474,8.90897727 19.9597895,8.90897727 C16.9136842,8.90897727 14.43,11.3788636 14.43,14.4143182 L14.43,19.1607955 C14.43,19.4379545 14.4741316,19.7038636 14.5100526,19.9697727 C13.4047105,20.4565909 12.3804474,21.2113636 11.5409211,22.23 C10.1112632,23.9890909 9.32715789,26.3198864 9.32715789,28.7856818 L9.32715789,28.7856818 L9.32715789,28.78875 C9.32715789,29.6376136 10.0137632,30.3177273 10.8625263,30.3177273 L29.0498684,30.3177273 L29.0498684,30.3177273 Z M17.4986842,14.41125 C17.4986842,13.0653409 18.5999211,11.9628409 19.9597895,11.9628409 C21.3124737,11.9628409 22.4188421,13.06125 22.4188421,14.41125 L22.4188421,19.1546591 C22.4188421,20.5067045 21.3155526,21.6051136 19.9597895,21.6051136 C18.603,21.6051136 17.4986842,20.5067045 17.4986842,19.1546591 L17.4986842,14.41125 L17.4986842,14.41125 Z M15.8329737,22.7843182 C16.8438947,23.9277273 18.3135789,24.6661364 19.9597895,24.6661364 C21.6378158,24.6661364 23.1239211,23.9011364 24.1368947,22.7198864 C25.74,23.3938636 26.9541316,25.1314773 27.3574737,27.2607955 L12.5508158,27.2607955 C12.7725,26.0836364 13.2353684,25.0067045 13.923,24.1547727 C14.469,23.4889773 15.1381579,23.0696591 15.8329737,22.7843182 L15.8329737,22.7843182 Z" id="Shape"></path>
                        </g>
                    </g>
                </g>
            </g>
        </g>
    </g>
</svg>