<?xml version="1.0" encoding="UTF-8" standalone="no"?>
<svg width="50px" height="36px" viewBox="0 0 50 36" version="1.1" xmlns="http://www.w3.org/2000/svg" xmlns:xlink="http://www.w3.org/1999/xlink" xmlns:sketch="http://www.bohemiancoding.com/sketch/ns">
    <!-- Generator: Sketch 3.0.3 (7892) - http://www.bohemiancoding.com/sketch -->
    <title>for-pass/i2</title>
    <desc>Created with Sketch.</desc>
    <defs></defs>
    <g id="Page-1" stroke="none" stroke-width="1" fill="none" fill-rule="evenodd" sketch:type="MSPage">
        <g id="Index" sketch:type="MSArtboardGroup" transform="translate(-528.000000, -1673.000000)">
            <g id="ADVANTAGES" sketch:type="MSLayerGroup" transform="translate(29.000000, 1070.000000)">
                <g id="allfeatures" transform="translate(87.000000, 299.000000)"></g>
                <g id="features" transform="translate(401.000000, 571.000566)" fill="#000000" sketch:type="MSShapeGroup">
                    <g id="icon_3949" transform="translate(98.000000, 33.000000)">
                        <path d="M43.6532043,8.6689375 C42.7480215,8.6689375 41.8697097,8.8963125 41.0846559,9.30271875 L41.0846559,6.827625 L41.0846559,6.73996875 L41.0825484,6.74421875 C41.0377634,2.93728125 37.9539247,-0.14609375 34.1682796,-0.14609375 L15.345957,-0.14609375 C11.5597849,-0.14609375 8.47594624,2.9378125 8.43116129,6.74421875 L8.42958065,6.73996875 L8.42958065,6.827625 L8.42958065,9.30271875 C7.644,8.8963125 6.76621505,8.6689375 5.86103226,8.6689375 C2.7382043,8.6689375 0.197580645,11.2300937 0.197580645,14.3788125 C0.197580645,15.8408125 0.749225806,17.2326875 1.73027957,18.2845625 L1.73027957,29.7441562 C1.73027957,32.0880312 3.92737634,33.99575 6.62711828,33.99575 C9.09713978,33.99575 11.1398602,32.39775 11.4712688,30.3317187 L11.5234301,30.3317187 L37.9902796,30.3317187 L38.0424409,30.3317187 C38.3733226,32.3982812 40.4165699,33.99575 42.8860645,33.99575 C45.5868602,33.99575 47.7829032,32.0880312 47.7829032,29.7441562 L47.7829032,18.2840312 C48.763957,17.2321562 49.316129,15.8408125 49.316129,14.3782812 C49.3166559,11.2300937 46.7760323,8.6689375 43.6532043,8.6689375 L43.6532043,8.6689375 Z M8.03125806,29.743625 C8.03125806,30.00075 7.49858065,30.4730312 6.62764516,30.4730312 C5.7561828,30.4730312 5.22297849,30.00075 5.22297849,29.743625 L5.22297849,16.6424687 L4.54013978,16.1144062 C4.00008602,15.6957812 3.69027957,15.0630625 3.69027957,14.3782812 C3.69027957,13.1718125 4.66448387,12.1905937 5.86103226,12.1905937 C6.98908602,12.1905937 7.93905376,13.0777812 8.02388172,14.2104062 L8.02651613,14.2380312 C8.02809677,14.2598125 8.0302043,14.2794687 8.03073118,14.2922187 L8.03073118,29.743625 L8.03125806,29.743625 Z M11.9206989,6.82815625 C11.9206989,4.92415625 13.4576129,3.37503125 15.345957,3.37503125 L34.1682796,3.37503125 C36.0566237,3.37503125 37.5935376,4.92415625 37.5935376,6.82815625 L37.5935376,16.9845937 C36.7331398,16.56225 35.7815914,16.3364687 34.7973763,16.3364687 L14.7168602,16.3364687 C13.733172,16.3364687 12.7816237,16.56225 11.9206989,16.9845937 L11.9206989,6.82815625 L11.9206989,6.82815625 Z M11.7515699,26.8095312 L11.7536774,22.9282187 C11.7536774,22.9282187 11.8010968,22.2615 11.8927742,21.9677187 C11.9243871,21.8673125 11.9681183,21.7552187 12.0266022,21.6250625 C12.0766559,21.5145625 12.1330323,21.40725 12.1936237,21.307375 L12.1957312,21.3036562 C12.7436882,20.397875 13.6862796,19.8570625 14.7163333,19.8570625 L34.7968495,19.8570625 C35.8269032,19.8570625 36.7694946,20.397875 37.3169247,21.3036562 L37.3195591,21.307375 C37.3796237,21.40725 37.4365269,21.5145625 37.4865806,21.6250625 C37.5445376,21.7546875 37.5882688,21.8667812 37.6204086,21.9677187 C37.712086,22.2615 37.7600323,22.9282187 37.7600323,22.9282187 L37.7616129,26.8095312 L11.7515699,26.8095312 L11.7515699,26.8095312 Z M44.9740968,16.1144062 L44.2912581,16.6424687 L44.2912581,29.743625 C44.2912581,30.00075 43.757,30.4730312 42.8860645,30.4730312 C42.0156559,30.4730312 41.4824516,30.00075 41.4824516,29.743625 L41.4824516,14.2922187 C41.4829785,14.2794687 41.4856129,14.2598125 41.4871935,14.2380312 L41.489828,14.2104062 C41.5746559,13.0777812 42.5246237,12.1905937 43.6526774,12.1905937 C44.8492258,12.1905937 45.8234301,13.1723437 45.8234301,14.3782812 C45.823957,15.0630625 45.5141505,15.6957812 44.9740968,16.1144062 L44.9740968,16.1144062 Z" id="for-pass/i2"></path>
                    </g>
                </g>
            </g>
            <g id="Path-469" sketch:type="MSLayerGroup" transform="translate(-1.000000, 1612.000000)"></g>
        </g>
    </g>
</svg>