<?xml version="1.0" encoding="UTF-8" standalone="no"?>
<svg width="62px" height="58px" viewBox="0 0 62 58" version="1.1" xmlns="http://www.w3.org/2000/svg" xmlns:xlink="http://www.w3.org/1999/xlink" xmlns:sketch="http://www.bohemiancoding.com/sketch/ns">
    <!-- Generator: Sketch 3.0.3 (7892) - http://www.bohemiancoding.com/sketch -->
    <title>for-pass/i3</title>
    <desc>Created with Sketch.</desc>
    <defs></defs>
    <g id="Page-1" stroke="none" stroke-width="1" fill="none" fill-rule="evenodd" sketch:type="MSPage">
        <g id="Index" sketch:type="MSArtboardGroup" transform="translate(-636.000000, -1657.000000)" fill="#000000">
            <g id="ADVANTAGES" sketch:type="MSLayerGroup" transform="translate(29.000000, 1070.000000)">
                <g id="features" transform="translate(401.000000, 571.000566)" sketch:type="MSShapeGroup">
                    <g id="icon_3467-3" transform="translate(206.000000, 16.000000)">
                        <path d="M9.30992,17.0993804 L9.30992,17.7920543 L6.11816,17.7920543 L6.11816,17.0993804 C6.11816,14.3299239 6.92354,12.2054348 8.51074,10.7841522 C9.91938,9.52209783 11.8203,8.9081087 14.3189,8.9081087 L15.69592,8.9081087 C18.8263,8.9081087 20.7049,7.74332609 20.7049,3.9045 L20.7049,3.21244565 L23.8948,3.21244565 L23.8948,3.90388043 C23.8948,6.67209783 23.09066,8.79782609 21.50346,10.2191087 C20.09296,11.4824022 18.19452,12.0951522 15.69592,12.0951522 L14.3189,12.0951522 C11.18852,12.0957717 9.30992,13.2605543 9.30992,17.0993804 L9.30992,17.0993804 Z M62,20.9790978 L40.88032,20.9790978 L59.0674,2.80725 C59.72646,2.14865217 59.8765,1.50740217 59.0674,0.698869565 L58.9217,0.552652174 C58.11074,-0.257119565 57.47028,-0.107184783 56.8106,0.552652174 L36.36796,20.9790978 L6.16714,20.9790978 C4.13602,20.9790978 2.54758,21.603 1.44584,22.8309783 C0.47368,23.915837 0,25.3272065 0,27.1443913 L0,27.5520652 C0,29.3711087 0.47244,30.7812391 1.44584,31.8648587 C2.54758,33.0934565 4.13602,33.7161196 6.16714,33.7173587 L23.622,33.7173587 L3.19548,54.1289348 C2.53642,54.7875326 2.38514,55.4294022 3.19548,56.2373152 L3.3418,56.3835326 C4.1509,57.1933043 4.7926,57.04275 5.45166,56.3835326 L28.13374,33.7179783 L62,33.7179783 L62,20.9790978 L62,20.9790978 Z M11.191,30.5290761 L6.16714,30.5290761 C3.88244,30.5290761 3.18928,29.4126196 3.19052,27.5526848 L3.19052,27.1450109 C3.19052,25.2850761 3.88306,24.1692391 6.16714,24.1692391 L11.191,24.1692391 L11.191,30.5290761 L11.191,30.5290761 Z M14.38214,30.5290761 L14.38214,24.1686196 L33.17868,24.1686196 L26.81252,30.5290761 L14.38214,30.5290761 L14.38214,30.5290761 Z M58.46228,30.5290761 L31.32488,30.5290761 L37.69104,24.1686196 L58.4629,24.1686196 L58.4629,30.5290761 L58.46228,30.5290761 Z" id="for-pass/i3"></path>
                    </g>
                </g>
            </g>
        </g>
    </g>
</svg>