<?xml version="1.0" encoding="UTF-8" standalone="no"?>
<svg width="44px" height="63px" viewBox="0 0 44 63" version="1.1" xmlns="http://www.w3.org/2000/svg" xmlns:xlink="http://www.w3.org/1999/xlink" xmlns:sketch="http://www.bohemiancoding.com/sketch/ns">
    <!-- Generator: Sketch 3.0.3 (7892) - http://www.bohemiancoding.com/sketch -->
    <title>for-pass/i4</title>
    <desc>Created with Sketch.</desc>
    <defs></defs>
    <g id="Page-1" stroke="none" stroke-width="1" fill="none" fill-rule="evenodd" sketch:type="MSPage">
        <g id="Index" sketch:type="MSArtboardGroup" transform="translate(-761.000000, -1666.000000)" fill="#000000">
            <g id="ADVANTAGES" sketch:type="MSLayerGroup" transform="translate(29.000000, 1070.000000)">
                <g id="features" transform="translate(401.000000, 571.000566)" sketch:type="MSShapeGroup">
                    <g id="for-pass/i4" transform="translate(271.000000, 0.000000)">
                        <path d="M72.8821739,42.6279825 C72.3302609,42.6279825 71.7783478,42.4157018 71.3574783,41.9892105 C70.5195652,41.1410526 70.5195652,39.7670175 71.3632174,38.9188596 C76.9904348,33.2596491 86.1424348,33.2567544 91.763913,38.9217544 C92.6046957,39.7699123 92.6046957,41.1439474 91.763913,41.9921053 C90.9231304,42.8402632 89.5610435,42.8402632 88.7202609,41.9921053 C84.7803478,38.0176316 78.3573043,38.0147368 74.4001739,41.995 C73.9812174,42.4157018 73.4312174,42.6279825 72.8821739,42.6279825 Z M67.3085217,35.2917544 C66.7566087,35.2917544 66.2075652,35.0794737 65.7866957,34.6558772 C64.945913,33.8077193 64.945913,32.4336842 65.7866957,31.5855263 C69.9953913,27.3399123 75.5891304,25.0019298 81.5415652,25.0019298 C87.4911304,25.0019298 93.0810435,27.3370175 97.2849565,31.5768421 C98.1257391,32.425 98.1257391,33.7990351 97.2849565,34.647193 C96.4441739,35.4953509 95.082087,35.4953509 94.2413043,34.647193 C87.2357391,27.5801754 75.835913,27.5888596 68.8303478,34.6558772 C68.4094783,35.0794737 67.8604348,35.2917544 67.3085217,35.2917544 Z" id="Shape-4"></path>
                        <path d="M68.3913043,62.8596491 C67.7525604,62.8596491 67.1457005,62.6525123 66.7003865,62.2900229 C66.2550725,61.9007783 66,61.4088284 66,60.9177416 C66,60.3981734 66.2550725,59.8811945 66.7003865,59.5437341 C67.5601932,58.8187553 69.1884058,58.8187553 70.0790338,59.5437341 C70.5275362,59.8811945 70.7826087,60.3981734 70.7826087,60.9177416 C70.7826087,61.4079654 70.5275362,61.9007783 70.0790338,62.2632677 C69.6337198,62.6525123 69.0268599,62.8596491 68.3913043,62.8596491 L68.3913043,62.8596491 Z" id="Path-2"></path>
                        <path d="M104.135824,65.0489068 L104.135826,55.6088132 C104.135826,52.3978602 101.459161,50 98.3791199,50 L65.7567056,50 C62.6766641,50 60,52.3978602 60,55.6088132 L60,65.0525652 C60,68.2635182 62.6766641,70.6613784 65.7567056,70.6613784 L98.3799006,70.6613784 C101.460978,70.6613784 104.138712,68.261824 104.135824,65.0489068 Z M65.4569068,66.7420034 C64.4693823,66.7420034 63.667913,66.024016 63.667913,65.1393529 L63.667913,55.5220255 C63.667913,54.6373624 64.4693823,53.919375 65.4569068,53.919375 L98.6789187,53.919375 C99.6664432,53.919375 100.467912,54.6373624 100.467912,55.5220255 L100.467912,65.1393529 C100.468708,66.024016 99.6672384,66.7420034 98.6797138,66.7420034 L65.4569068,66.7420034 Z" id="Path-3"></path>
                    </g>
                </g>
            </g>
        </g>
    </g>
</svg>